<?xml version="1.0" encoding="utf-8"?>
<!-- Generator: Adobe Illustrator 24.1.2, SVG Export Plug-In . SVG Version: 6.00 Build 0)  -->
<svg version="1.1" id="Layer_1" xmlns="http://www.w3.org/2000/svg" xmlns:xlink="http://www.w3.org/1999/xlink" x="0px" y="0px"
	 viewBox="0 0 600 500" style="enable-background:new 0 0 600 500;" xml:space="preserve">
<style type="text/css">
	.st0{fill:#982167;}
	.st1{fill:#FFFFFF;}
	.st2{fill:#010101;}
</style>
<g id="McKenzie_Brackman">
	<g>
		<g transform="matrix( 1, 0, 0, 1, -62.4,0) ">
			<g transform="matrix( 1, 0, 0, 1, 0,0) ">
				<g>
					<g id="Shapes_Shape_77_0_Layer3_0_FILL_1_">
						<path class="st0" d="M111.9,146.2v208.2h362.5V146.2H111.9z"/>
					</g>
				</g>
			</g>
			<g transform="matrix( 1, 0, 0, 1, 0,0) ">
				<g>
					<g id="Shapes_Shape_77_0_Layer2_0_FILL_1_">
						<path class="st1" d="M368.3,202.3c-9.1,9.1-13.8,20.1-13.8,33.1c0,12.9,4.6,24,13.8,33.1c9.1,9.1,20.1,13.8,33.1,13.8
							s24-4.6,33.1-13.8c9.1-9.1,13.8-20.1,13.8-33.1c0-12.9-4.6-24-13.8-33.1c-9.1-9.1-20.1-13.8-33.1-13.8
							S377.4,193.2,368.3,202.3z"/>
					</g>
				</g>
			</g>
			<g transform="matrix( 1, 0, 0, 1, 0,0) ">
				<g>
					<g id="Shapes_Shape_77_0_Layer1_0_FILL_1_">
						<path class="st1" d="M328,202.3c-9.1-9.1-20.1-13.8-33.1-13.8c-12.9,0-24,4.6-33.1,13.8c-9.1,9.1-13.8,20.1-13.8,33.1
							c0,12.9,4.6,24,13.8,33.1c9.1,9.1,20.1,13.8,33.1,13.8c12.9,0,24-4.6,33.1-13.8c9.1-9.1,13.8-20.1,13.8-33.1
							C341.8,222.5,337.3,211.4,328,202.3z"/>
					</g>
				</g>
			</g>
			<g transform="matrix( 1, 0, 0, 1, 0,0) ">
				<g>
					<g id="Shapes_Shape_77_0_Layer0_0_FILL_1_">
						<path class="st1" d="M155.4,202.3c-9.1,9.1-13.8,20.1-13.8,33.1c0,12.9,4.6,24,13.8,33.1c9.1,9.1,20.1,13.8,33.1,13.8
							c12.9,0,24-4.6,33.1-13.8c9.1-9.1,13.8-20.1,13.8-33.1c0-12.9-4.6-24-13.8-33.1c-9.1-9.1-20.1-13.8-33.1-13.8
							C175.7,188.5,164.5,193,155.4,202.3z"/>
					</g>
				</g>
			</g>
		</g>
		<g transform="matrix( 1, 0, 0, 1, -199.9,39.8) ">
			<g>
				<g transform="matrix( 1, 0, 0, 1, 0,0) ">
					<g>
						<g id="Sprites_Sprite_82_0_Layer4_0_FILL_1_">
							<path class="st2" d="M323.4,266.7h-6.8l-12.5,27.8l-12.4-27.7H285v31.9h4.4l-0.3-28.5l12.6,28.5h4.6l12.9-28.5l-0.2,28.5h4.4
								V266.7 M340.5,274.2c-3.9,0-6.9,1.1-9.2,3.5c-2.4,2.4-3.5,5.4-3.5,9.1s1.1,6.8,3.5,9.1c2.4,2.4,5.4,3.5,9.2,3.5
								c3.2,0,5.9-0.9,8-2.6c2.1-1.8,3.5-4.1,4-7H348c-0.2,1.8-1.1,3.1-2.4,4.1c-1.4,1-3,1.5-4.9,1.5c-2.5,0-4.6-0.8-6.1-2.4
								s-2.4-3.6-2.4-6.2s0.8-4.8,2.4-6.2c1.5-1.5,3.6-2.4,6.4-2.4c1.8,0,3.2,0.4,4.4,1.2c1.2,0.8,2,2,2.5,3.4h4.4
								c-0.5-2.6-1.9-4.7-3.9-6.2C346.1,275,343.5,274.2,340.5,274.2 M370.6,280.1l15.1-13.2H380l-18.6,16.2v-16.4h-4.5v31.9h4.5
								V288l6.2-5.4l12.9,15.9h5.2L370.6,280.1 M409,277.6c-2.2-2.2-5.4-3.4-9.4-3.4c-3.9,0-7.1,1.1-9.4,3.5
								c-2.4,2.2-3.5,5.4-3.5,9.1c0,3.9,1.1,6.9,3.5,9.2c2.4,2.2,5.5,3.4,9.4,3.4c3.1,0,5.8-0.8,7.9-2.1c2.1-1.4,3.6-3.5,4.5-6h-5
								c-0.5,1.4-1.4,2.4-2.8,3.1s-2.9,1.1-4.8,1.1c-2.5,0-4.5-0.8-6.1-2.1c-1.6-1.4-2.4-3.2-2.4-5.5v-0.1h21.4V287
								C412.4,282.9,411.3,279.9,409,277.6 M394,280c1.5-1.1,3.4-1.8,5.6-1.8s4.1,0.6,5.6,1.8c1.5,1.1,2.4,2.8,2.8,4.6h-16.6
								C391.5,282.6,392.5,281.1,394,280 M438.9,279.9c-0.2-1.1-0.8-2-1.4-2.8c-0.8-0.9-1.8-1.5-2.9-2l-4.1-0.6
								c-2,0-3.9,0.4-5.5,1.1c-1.6,0.8-3,2-4.2,3.5V275h-4.4v23.6h4.2v-12c0-2.5,0.8-4.6,2.4-6.1c1.6-1.6,3.8-2.4,6.4-2.4
								c2,0,3.5,0.5,4.4,1.5s1.2,2.8,1.2,5.2v13.8h4.2v-13.5C439.3,282.7,439.2,281,438.9,279.9 M469.6,266.7v5.1h4.2v-5.1H469.6
								 M465.5,278.7V275h-21.9v3.8h16.5l-17.5,15.6v4.2h23.2v-3.8h-17.6L465.5,278.7 M473.9,275h-4.2v23.6h4.2V275 M503.9,287.7
								v-0.9c0-3.9-1.1-7-3.4-9.2s-5.4-3.4-9.4-3.4c-3.9,0-7.1,1.1-9.4,3.5c-2.4,2.2-3.5,5.4-3.5,9.1c0,3.9,1.1,6.9,3.5,9.2
								c2.4,2.2,5.5,3.4,9.4,3.4c3.1,0,5.8-0.8,7.9-2.1c2.1-1.4,3.6-3.5,4.5-6h-5c-0.5,1.4-1.4,2.4-2.8,3.1s-2.9,1.1-4.8,1.1
								c-2.5,0-4.5-0.8-6.1-2.1c-1.6-1.4-2.4-3.2-2.4-5.5v-0.1L503.9,287.7 M491,278.2c2.2,0,4.1,0.6,5.6,1.8
								c1.5,1.1,2.4,2.8,2.8,4.6h-16.6c0.4-2,1.2-3.5,2.8-4.6C487,278.9,488.9,278.2,491,278.2 M548.1,279.1
								c0.8-1.1,1.2-2.6,1.2-4.2c0-2.6-0.9-4.5-2.5-6c-1.7-1.4-4.1-2.1-7.1-2.1H522v31.9h17.2c3.9,0,6.8-0.8,8.5-2.2
								c1.8-1.5,2.8-3.9,2.8-7c0-2-0.5-3.8-1.6-5s-2.6-2.1-4.6-2.5C546,281.1,547.3,280.2,548.1,279.1 M538.8,270.9
								c2.1,0,3.6,0.4,4.6,1.1c1,0.8,1.5,1.9,1.5,3.5s-0.5,2.9-1.6,3.5c-1.1,0.8-2.9,1.1-5.5,1.1h-11.2v-9.2H538.8 M538.9,284.2
								c2.4,0,4.1,0.4,5.2,1.2c1.1,0.9,1.6,2.1,1.6,4c0,1.8-0.6,2.9-1.8,3.8c-1.1,0.8-3.1,1.1-5.8,1.1h-11.9v-10.1H538.9
								 M569.3,279.1v-4.5l-0.9-0.4l-1.1-0.1c-1.8,0-3.4,0.4-4.9,1.2c-1.5,0.8-2.8,2-3.8,3.5v-4h-4.2v23.8h4.2V287
								c0-2.4,0.8-4.4,2.2-6s3.2-2.4,5.2-2.4l1.5,0.1L569.3,279.1 M593.6,294.4c-0.2-0.5-0.5-1.4-0.5-2.8v-9.5c0-2.9-0.8-4.9-2.4-6
								c-1.6-1.2-4.5-1.9-8.4-1.9c-3.6,0-6.4,0.8-8.4,2.1c-1.9,1.4-2.9,3.5-3,6.2h4.4c0.1-1.6,0.8-2.9,1.9-3.5
								c1.1-0.8,2.9-1.1,5.4-1.1c2.1,0,3.8,0.3,4.6,0.9c1,0.5,1.5,1.5,1.5,2.8c0,1.8-2,2.8-6,3.1l-1.9,0.3l-5.1,0.8
								c-1.1,0.2-1.9,0.5-2.4,0.9c-1.1,0.6-2,1.5-2.6,2.5c-0.5,0.9-0.9,2-0.9,3.3c0,2.2,0.8,4,2.4,5.2c1.6,1.2,3.9,1.9,6.8,1.9
								c2.1,0,4.1-0.4,5.9-1.1c1.8-0.8,3.1-1.7,4.1-3.1c0.1,1.2,0.6,2.1,1.4,2.8c0.6,0.6,1.6,0.9,2.9,0.9h1.6l1.6-0.1v-3.4l-0.6,0.1
								h-0.6C594.5,295.1,594,294.9,593.6,294.4 M581.8,288.1l4.6-0.8l2.6-0.9v3.5c0,1.5-0.9,2.9-2.6,4c-1.8,1.1-3.9,1.6-6.5,1.6
								c-1.6,0-2.9-0.4-3.8-1s-1.4-1.5-1.4-2.6s0.4-2,1.2-2.5C576.8,289,578.6,288.5,581.8,288.1 M610.8,274.2
								c-3.9,0-6.9,1.1-9.2,3.5c-2.4,2.4-3.5,5.4-3.5,9.1s1.1,6.8,3.5,9.1c2.4,2.4,5.4,3.5,9.2,3.5c3.2,0,5.9-0.9,8-2.6
								c2.1-1.8,3.5-4.1,4-7h-4.5c-0.3,1.8-1.1,3.1-2.4,4.1c-1.4,1-3,1.5-4.9,1.5c-2.5,0-4.6-0.8-6.1-2.4s-2.4-3.6-2.4-6.2
								s0.7-4.8,2.4-6.2c1.5-1.5,3.6-2.4,6.4-2.4c1.8,0,3.2,0.4,4.4,1.2c1.1,0.9,2,2,2.5,3.4h4.4c-0.5-2.6-1.9-4.7-3.9-6.2
								C616.4,275,613.8,274.2,610.8,274.2 M649.9,275h-6.4l-12.4,10.3v-18.6h-4.2v32h4.2v-8.5l4.4-3.5l9.4,12h5.8l-12-14.6
								L649.9,275 M688.2,275.1c-1.1-0.5-2.5-0.6-4.1-0.6c-2.1,0-4,0.4-5.6,1.2c-1.6,0.8-3.1,2.1-4.5,3.9c-0.5-1.6-1.5-2.9-2.9-3.8
								c-1.5-0.9-3.2-1.4-5.5-1.4c-2,0-3.9,0.4-5.5,1.1c-1.6,0.8-3,2-4.3,3.5v-4h-4.2v23.6h4.2v-12c0-2.5,0.8-4.6,2.4-6.1
								c1.6-1.6,3.8-2.4,6.4-2.4c2,0,3.5,0.5,4.4,1.5s1.2,2.8,1.2,5.2v13.8h4.1v-12c0-2.5,0.8-4.6,2.4-6.1c1.6-1.6,3.8-2.4,6.4-2.4
								c2,0,3.5,0.5,4.4,1.5s1.2,2.8,1.2,5.2v13.8h4.3v-13.5c0-2.4-0.1-4.1-0.5-5.1c-0.2-1.1-0.7-2-1.4-2.8
								C690.4,276.2,689.4,275.6,688.2,275.1 M717.9,276c-1.6-1.2-4.5-1.9-8.4-1.9c-3.6,0-6.4,0.8-8.4,2.1c-1.9,1.4-2.9,3.5-3,6.2
								h4.4c0.1-1.6,0.7-2.9,1.9-3.5c1.1-0.8,2.9-1.1,5.4-1.1c2.1,0,3.8,0.2,4.6,0.9c1,0.5,1.5,1.5,1.5,2.8c0,1.8-2,2.8-6,3.1
								l-1.9,0.2l-5.1,0.8c-1.1,0.2-1.9,0.5-2.4,0.9c-1.1,0.6-2,1.5-2.6,2.5c-0.5,0.9-0.9,2-0.9,3.2c0,2.2,0.8,4,2.4,5.3
								c1.6,1.2,3.9,1.9,6.8,1.9c2.1,0,4.1-0.4,5.9-1.1c1.8-0.8,3.1-1.8,4.1-3.1c0.1,1.2,0.6,2.1,1.4,2.8c0.6,0.6,1.6,0.9,2.9,0.9
								h1.6l1.6-0.1v-3.4l-0.6,0.1h-0.6c-0.7,0-1.4-0.3-1.6-0.8c-0.2-0.5-0.5-1.4-0.5-2.8v-9.5C720.3,279.2,719.5,277.2,717.9,276
								 M701.8,292c0-1.1,0.4-2,1.2-2.5c0.9-0.5,2.8-1,5.9-1.4l4.6-0.8l2.6-0.9v3.5c0,1.5-0.9,2.9-2.6,4c-1.8,1.1-3.9,1.6-6.5,1.6
								c-1.6,0-2.9-0.4-3.8-1C702.3,294,701.8,293.1,701.8,292 M733.2,280.5c1.6-1.6,3.8-2.4,6.4-2.4c2,0,3.5,0.5,4.4,1.5
								s1.2,2.8,1.2,5.2v13.8h4.3v-13.5c0-2.4-0.1-4.1-0.5-5.1c-0.2-1.1-0.7-2-1.4-2.8c-0.8-0.9-1.8-1.5-2.9-2
								c-1.2-0.5-2.6-0.6-4.1-0.6c-2,0-3.9,0.4-5.5,1.1c-1.6,0.8-3,2-4.3,3.5v-4.1h-4.2v23.5h4.2v-12
								C730.8,284.1,731.5,282,733.2,280.5z"/>
						</g>
					</g>
				</g>
			</g>
			<g>
				<g>
					<path class="st1" d="M399.7,274.2c-3.9,0-7.1,1.1-9.4,3.5c-2.4,2.2-3.5,5.4-3.5,9.1c0,3.9,1.1,6.9,3.5,9.2
						c2.4,2.2,5.5,3.4,9.4,3.4c3.1,0,5.8-0.8,7.9-2.1c2.1-1.4,3.6-3.5,4.5-6h-5c-0.5,1.4-1.4,2.4-2.8,3.1s-2.9,1.1-4.8,1.1
						c-2.5,0-4.5-0.8-6.1-2.1c-1.6-1.4-2.4-3.2-2.4-5.5v-0.1h21.4V287c0-4.1-1.1-7.1-3.4-9.4C406.8,275.4,403.6,274.2,399.7,274.2z
						 M391.4,284.6c0.1-2,1.1-3.5,2.6-4.6s3.4-1.8,5.6-1.8s4.1,0.6,5.6,1.8c1.5,1.1,2.4,2.8,2.8,4.6H391.4z"/>
					<polygon class="st1" points="465.5,278.7 465.5,275 443.6,275 443.6,278.7 460.1,278.7 442.6,294.4 442.6,298.6 465.9,298.6 
						465.9,294.9 448.3,294.9 					"/>
					<path class="st1" d="M437.5,277.1c-0.8-0.9-1.8-1.5-2.9-2l-4.1-0.6c-2,0-3.9,0.4-5.5,1.1c-1.6,0.8-3,2-4.2,3.5V275h-4.4v23.6
						h4.2v-12c0-2.5,0.8-4.6,2.4-6.1c1.6-1.6,3.8-2.4,6.4-2.4c2,0,3.5,0.5,4.4,1.5s1.2,2.8,1.2,5.2v13.8h4.2v-13.5
						c0-2.4-0.1-4.1-0.4-5.3S438.1,277.9,437.5,277.1z"/>
					<polygon class="st1" points="304.2,294.5 291.8,266.7 285,266.7 285,298.6 289.4,298.6 289.2,270.1 301.8,298.6 306.4,298.6 
						319.3,270.1 319,298.6 323.4,298.6 323.4,266.7 316.7,266.7 					"/>
					<polygon class="st1" points="380,266.9 361.4,283.1 361.4,266.7 356.9,266.7 356.9,298.6 361.4,298.6 361.4,288 367.6,282.6 
						380.5,298.5 385.8,298.5 370.6,280.1 385.8,266.9 					"/>
					<path class="st1" d="M345.6,294c-1.4,1-3,1.5-4.9,1.5c-2.5,0-4.6-0.8-6.1-2.4s-2.4-3.6-2.4-6.2s0.8-4.7,2.4-6.2
						c1.5-1.5,3.6-2.4,6.4-2.4c1.8,0,3.2,0.4,4.4,1.2c1.2,0.8,2,2,2.5,3.4h4.4c-0.5-2.6-1.9-4.8-3.9-6.2c-2.2-1.6-4.9-2.4-7.9-2.4
						c-3.9,0-6.9,1.1-9.2,3.5c-2.4,2.4-3.5,5.4-3.5,9.1s1.1,6.8,3.5,9.1c2.4,2.4,5.4,3.5,9.2,3.5c3.3,0,5.9-0.9,8-2.6
						c2.1-1.8,3.5-4.1,4-7H348C347.8,291.6,346.9,293,345.6,294z"/>
					<path class="st1" d="M611.9,295.5c-0.2,0-0.6,0-0.9,0c-2.5,0-4.6-0.8-6.1-2.4s-2.4-3.6-2.4-6.2s0.7-4.7,2.4-6.2
						c1.5-1.5,3.6-2.4,6.4-2.4c0.2,0,0.4,0,0.6,0v-4c-0.4,0-0.8,0-1.1,0c-3.9,0-6.9,1.1-9.2,3.5c-2.4,2.4-3.5,5.4-3.5,9.1
						s1.1,6.8,3.5,9.1c2.4,2.4,5.4,3.5,9.2,3.5c0.4,0,0.8,0,1.1,0V295.5L611.9,295.5z"/>
					<path class="st1" d="M567.3,274.1c-1.8,0-3.4,0.4-4.9,1.2c-1.5,0.8-2.8,2-3.8,3.5v-4h-4.2v23.8h4.2V287c0-2.4,0.8-4.4,2.2-6
						s3.2-2.4,5.2-2.4l1.5,0.1l1.6,0.4v-4.5l-0.9-0.4L567.3,274.1z"/>
					<path class="st1" d="M544.3,281.9c1.8-0.8,3-1.6,3.9-2.8c0.8-1.1,1.2-2.6,1.2-4.2c0-2.6-0.9-4.5-2.5-6
						c-1.7-1.4-4.1-2.1-7.1-2.1H522v31.9h17.2c3.9,0,6.8-0.8,8.5-2.2c1.8-1.5,2.8-3.9,2.8-7c0-2-0.5-3.8-1.6-5
						C547.8,283.1,546.3,282.2,544.3,281.9z M526.5,270.9h12.2l0,0c2.1,0,3.6,0.4,4.6,1.1c1,0.8,1.5,1.9,1.5,3.5s-0.5,2.9-1.6,3.5
						c-1.1,0.8-2.9,1.1-5.5,1.1h-11.2V270.9L526.5,270.9z M544,293.2c-1.1,0.8-3.1,1.1-5.8,1.1h-11.9v-10.1h12.5
						c2.4,0,4.1,0.4,5.2,1.2c1.1,0.9,1.6,2.1,1.6,4C545.8,291.2,545.2,292.4,544,293.2z"/>
					<path class="st1" d="M595.3,295.5c-0.8-0.4-1.2-0.6-1.6-1.1c-0.2-0.5-0.5-1.4-0.5-2.8v-9.5c0-2.9-0.8-4.9-2.4-6
						c-1.6-1.2-4.5-1.9-8.4-1.9c-3.6,0-6.4,0.8-8.4,2.1c-1.9,1.4-2.9,3.5-3,6.2h4.4c0.1-1.6,0.8-2.9,1.9-3.5
						c1.1-0.8,2.9-1.1,5.4-1.1c2.1,0,3.8,0.3,4.6,0.9c1,0.5,1.5,1.5,1.5,2.8c0,1.8-2,2.8-6,3.1l-1.9,0.3l-5.1,0.8
						c-1.1,0.2-1.9,0.5-2.4,0.9c-1.1,0.6-2,1.5-2.6,2.5c-0.5,0.9-0.9,2-0.9,3.3c0,2.2,0.8,4,2.4,5.2c1.6,1.2,3.9,1.9,6.8,1.9
						c2.1,0,4.1-0.4,5.9-1.1c1.8-0.8,3.1-1.7,4.1-3.1c0.1,1.2,0.6,2.1,1.4,2.8c0.6,0.6,1.6,0.9,2.9,0.9h1.6l1.6-0.1v-3.4l-0.6,0.1
						L595.3,295.5L595.3,295.5z M589,290c0,1.5-0.9,2.9-2.6,4c-1.8,1.1-3.9,1.6-6.5,1.6c-1.6,0-2.9-0.4-3.8-1s-1.4-1.5-1.4-2.6
						s0.4-2,1.2-2.5s2.6-1,5.8-1.4l4.6-0.8l2.6-0.9v3.6H589z"/>
					<rect x="469.6" y="266.7" class="st1" width="4.2" height="5.1"/>
					<path class="st1" d="M491.1,274.2c-3.9,0-7.1,1.1-9.4,3.5c-2.4,2.2-3.5,5.4-3.5,9.1c0,3.9,1.1,6.9,3.5,9.2
						c2.4,2.2,5.5,3.4,9.4,3.4c3.1,0,5.8-0.8,7.9-2.1c2.1-1.4,3.6-3.5,4.5-6h-5c-0.5,1.4-1.4,2.4-2.8,3.1s-2.9,1.1-4.8,1.1
						c-2.5,0-4.5-0.8-6.1-2.1c-1.6-1.4-2.4-3.2-2.4-5.5v-0.1h21.4v-0.1v-0.9c0-3.9-1.1-7-3.4-9.2
						C498.3,275.4,495.1,274.2,491.1,274.2z M482.8,284.6c0.4-2,1.2-3.5,2.8-4.6c1.5-1.1,3.4-1.8,5.5-1.8c2.2,0,4.1,0.6,5.6,1.8
						c1.5,1.1,2.4,2.8,2.8,4.6H482.8z"/>
					<rect x="469.6" y="275" class="st1" width="4.2" height="23.6"/>
				</g>
			</g>
		</g>
	</g>
</g>
</svg>
