<?xml version="1.0" encoding="utf-8"?>
<!-- Generator: Adobe Illustrator 24.1.2, SVG Export Plug-In . SVG Version: 6.00 Build 0)  -->
<svg version="1.1" id="Layer_2_1_" xmlns="http://www.w3.org/2000/svg" xmlns:xlink="http://www.w3.org/1999/xlink" x="0px" y="0px"
	 viewBox="0 0 500 500" style="enable-background:new 0 0 500 500;" xml:space="preserve">
<style type="text/css">
	.st0{fill:#1D1D1B;}
	.st1{fill:#0098CC;}
</style>
<g>
	<g>
		<path class="st0" d="M63.3,141.6H91v40.7h16.4v23.8H91v86.6H63.3v-86.6H49.1v-23.8h14.2V141.6z"/>
		<path class="st0" d="M121.4,182.3h27.7v114.1c0,10.5-1,18.3-3.1,23.5s-5.3,9.1-9.8,11.9s-9.8,4.2-16.1,4.2
			c-5.5,0-12.4-1.4-20.7-4.2V310c4.3,2.1,8.2,3.1,11.5,3.1c3.5,0,6.2-1.1,7.9-3.1c1.8-2.1,2.6-6,2.6-11.6
			C121.4,298.4,121.4,182.3,121.4,182.3z"/>
		<path class="st1" d="M135.2,136.8c4.9,0,9.1,1.8,12.6,5.3s5.2,7.8,5.2,12.8c0,4.9-1.7,9.1-5.2,12.7c-3.5,3.5-7.6,5.3-12.4,5.3
			c-4.9,0-9.2-1.8-12.6-5.4c-3.5-3.6-5.2-7.9-5.2-13c0-4.9,1.7-9,5.1-12.4C126.2,138.5,130.4,136.8,135.2,136.8z"/>
		<path class="st0" d="M257.7,182.3h27.7v110.4h-27.7V281c-5.4,5.1-10.8,8.8-16.3,11.1c-5.4,2.3-11.3,3.4-17.7,3.4
			c-14.3,0-26.6-5.5-37-16.6s-15.6-24.8-15.6-41.3c0-17,5-31,15.1-41.9c10.1-10.9,22.3-16.3,36.7-16.3c6.6,0,12.8,1.3,18.6,3.8
			s11.2,6.3,16.1,11.3v-12.2H257.7z M228.6,205c-8.6,0-15.7,3-21.3,9.1c-5.7,6.1-8.5,13.8-8.5,23.3s2.9,17.4,8.6,23.5
			c5.8,6.2,12.9,9.2,21.3,9.2c8.7,0,15.9-3,21.6-9.1s8.6-14,8.6-23.8c0-9.6-2.9-17.4-8.6-23.3C244.6,208,237.4,205,228.6,205z"/>
		<path class="st0" d="M310.4,139.7h27.7v153h-27.7V139.7z"/>
	</g>
	<g>
		<path class="st0" d="M179.6,310.2l22.2,47.7h-5.1l-7.5-15.7h-20.5l-7.4,15.7H156l22.5-47.7H179.6z M179,320.3l-8.2,17.3h16.3
			L179,320.3z"/>
		<path class="st0" d="M206.7,322.6h4.6v5.2c1.4-2,2.8-3.6,4.4-4.6c1.5-1,3.1-1.5,4.8-1.5c1.3,0,2.6,0.4,4,1.2l-2.4,3.8
			c-1-0.4-1.8-0.6-2.4-0.6c-1.5,0-3,0.6-4.4,1.9c-1.4,1.2-2.5,3.2-3.2,5.8c-0.6,2-0.8,6.1-0.8,12.2v11.9h-4.6L206.7,322.6
			L206.7,322.6z"/>
		<path class="st0" d="M262.2,329.9l-3.6,2.2c-3.1-4.1-7.4-6.2-12.7-6.2c-4.3,0-7.9,1.4-10.7,4.1c-2.8,2.8-4.3,6.1-4.3,10.1
			c0,2.6,0.7,5,2,7.3s3.1,4,5.4,5.3c2.3,1.3,4.8,1.9,7.7,1.9c5.2,0,9.4-2.1,12.7-6.2l3.6,2.4c-1.7,2.5-3.9,4.5-6.8,5.9
			c-2.8,1.4-6.1,2.1-9.7,2.1c-5.6,0-10.2-1.8-13.9-5.3s-5.5-7.9-5.5-12.9c0-3.4,0.9-6.6,2.6-9.5c1.7-2.9,4.1-5.2,7.1-6.9
			c3-1.6,6.4-2.5,10.1-2.5c2.3,0,4.6,0.4,6.8,1.1s4,1.6,5.5,2.8C259.8,326.7,261.1,328.1,262.2,329.9z"/>
		<path class="st0" d="M270.9,309h4.5v19.9c1.8-2.4,3.9-4.2,6.1-5.4c2.2-1.2,4.6-1.8,7.2-1.8s5,0.7,7,2s3.5,3.1,4.5,5.4
			s1.5,5.8,1.5,10.6v18.2h-4.5V341c0-4.1-0.2-6.8-0.5-8.1c-0.6-2.3-1.6-4.1-3.1-5.3c-1.5-1.2-3.4-1.8-5.8-1.8
			c-2.7,0-5.2,0.9-7.4,2.7c-2.2,1.8-3.6,4.1-4.3,6.7c-0.4,1.7-0.6,4.9-0.6,9.6v12.9H271V309H270.9z"/>
		<path class="st0" d="M313,308c1,0,1.9,0.4,2.6,1.1s1.1,1.6,1.1,2.7c0,1-0.4,1.9-1.1,2.6s-1.6,1.1-2.6,1.1s-1.9-0.4-2.6-1.1
			s-1.1-1.6-1.1-2.6s0.4-1.9,1.1-2.7C311.1,308.4,312,308,313,308z M310.7,322.6h4.5v35.3h-4.5V322.6z"/>
		<path class="st0" d="M328.6,309.5h4.5v13.1h7.2v3.9h-7.2v31.3h-4.5v-31.3h-6.2v-3.9h6.2V309.5z"/>
		<path class="st0" d="M376.9,346.1l3.8,2c-1.3,2.5-2.7,4.5-4.3,6c-1.6,1.5-3.5,2.7-5.5,3.5c-2.1,0.8-4.4,1.2-7,1.2
			c-5.8,0-10.3-1.9-13.5-5.7c-3.2-3.8-4.9-8-4.9-12.8c0-4.5,1.4-8.5,4.1-12c3.5-4.5,8.1-6.7,14-6.7c6,0,10.8,2.3,14.4,6.8
			c2.6,3.2,3.9,7.2,3.9,12.1h-31.7c0.1,4.1,1.4,7.5,3.9,10.1s5.7,3.9,9.4,3.9c1.8,0,3.5-0.3,5.2-0.9s3.1-1.5,4.3-2.5
			C374.2,350.1,375.5,348.4,376.9,346.1z M376.9,336.6c-0.6-2.4-1.5-4.4-2.6-5.8s-2.7-2.6-4.6-3.5s-3.9-1.3-6-1.3
			c-3.5,0-6.4,1.1-8.9,3.3c-1.8,1.6-3.2,4.1-4.1,7.3H376.9z"/>
		<path class="st0" d="M424.6,329.9l-3.6,2.2c-3.1-4.1-7.4-6.2-12.7-6.2c-4.3,0-7.9,1.4-10.7,4.1c-2.8,2.8-4.3,6.1-4.3,10.1
			c0,2.6,0.7,5,2,7.3s3.1,4,5.4,5.3s4.8,1.9,7.7,1.9c5.2,0,9.4-2.1,12.7-6.2l3.6,2.4c-1.7,2.5-3.9,4.5-6.8,5.9
			c-2.8,1.4-6.1,2.1-9.7,2.1c-5.6,0-10.2-1.8-13.9-5.3s-5.5-7.9-5.5-12.9c0-3.4,0.9-6.6,2.6-9.5s4.1-5.2,7.1-6.9
			c3-1.6,6.4-2.5,10.1-2.5c2.3,0,4.6,0.4,6.8,1.1c2.2,0.7,4,1.6,5.5,2.8C422.2,326.7,423.5,328.1,424.6,329.9z"/>
		<path class="st0" d="M437.2,309.5h4.5v13.1h7.2v3.9h-7.2v31.3h-4.5v-31.3H431v-3.9h6.2V309.5z"/>
	</g>
</g>
</svg>
