<?xml version="1.0" encoding="utf-8"?>
<!-- Generator: Adobe Illustrator 24.1.2, SVG Export Plug-In . SVG Version: 6.00 Build 0)  -->
<svg version="1.1" id="Layer_1" xmlns="http://www.w3.org/2000/svg" xmlns:xlink="http://www.w3.org/1999/xlink" x="0px" y="0px"
	 viewBox="0 0 500 500" style="enable-background:new 0 0 500 500;" xml:space="preserve">
<style type="text/css">
	.st0{fill:#EE2C29;}
	.st1{fill:#3DC5F2;}
	.st2{fill:#FFFFFF;}
	.st3{fill:#010101;}
	.st4{fill:#FCCE36;}
	.st5{fill:none;stroke:#676767;stroke-width:1.9753;stroke-linecap:round;stroke-linejoin:round;}
	.st6{fill:none;stroke:#666767;stroke-width:4.9383;stroke-linecap:round;stroke-linejoin:round;}
</style>
<g id="Joint_Republic">
	<g transform="matrix( 1, 0, 0, 1, 0,0) ">
		<g transform="matrix( 1, 0, 0, 1, 0,0) ">
			<g>
				<g id="Shapes_Shape_53_0_Layer1_0_FILL_1_">
					<path class="st0" d="M111.8,76.9V158h61.6c0.1-12.2,3.4-23,10-32.5L111.8,76.9L111.8,76.9z M208.8,50.3h-54.4l43.2,60.4
						c6.6-5,13.8-8.3,21.8-10L208.8,50.3L208.8,50.3z M286.3,133.2c3.6,7.5,5.4,15.8,5.5,24.8h96.4V87.1L286.3,133.2L286.3,133.2z
						 M351.4,50.3h-77l-21,52.6c7.8,2.8,14.8,7.4,21.2,13.8l1.3,1.4L351.4,50.3z"/>
					<path class="st1" d="M334.9,322.7c19.5,4.1,30.7,11.4,33.5,21.9l0.1,0.6c-5.5-2.8-11.4-4.2-17.7-4.2c-9.9,0-18.4,3.2-25.6,9.5
						c-7.2,6.4-11.1,14.1-11.7,23.3c14.3-5.1,29.8-9.1,46.6-11.8c9.9-1.6,19.3-2.6,28.2-3.2v-92.4H111.8v48.5
						c8.6-7.4,19.1-14,31.4-19.8c13.1-6.2,27.3-11,42.6-14.5c29.9-6.8,56.7-7.2,80.3-1.2c11.2,2.8,20.2,6.8,27.2,12.1
						c7.2,5.5,11.7,12,13.4,19.5l0.1,0.9c-6.7-4-13.8-6-21.4-6c-7.7,0-14.9,2.1-21.6,6.2c-6.5,4-11.8,9.4-16,16.3
						c6.5-1.9,13.3-3.6,20.6-5C293.2,318.9,315.4,318.6,334.9,322.7z"/>
					<path class="st2" d="M368.4,344.6c-2.8-10.5-14-17.8-33.5-21.9s-41.7-3.8-66.4,0.8c-7.3,1.4-14.2,3.1-20.6,5
						c4.1-6.9,9.4-12.3,16-16.3c6.7-4.1,13.9-6.2,21.6-6.2c7.6,0,14.7,2,21.4,6l-0.1-0.9c-1.7-7.4-6.1-13.9-13.4-19.5
						c-6.9-5.3-16-9.3-27.2-12.1c-23.6-6-50.4-5.5-80.3,1.2c-15.3,3.5-29.5,8.3-42.6,14.5c-12.3,5.8-22.7,12.4-31.4,19.8v-48.5
						V157.9v-81l-1-0.7v374.1h277.5V359c-8.9,0.5-18.3,1.6-28.2,3.2c-16.8,2.7-32.3,6.6-46.6,11.8c0.6-9.2,4.5-17,11.7-23.3
						c7.2-6.4,15.7-9.5,25.6-9.5c6.3,0,12.2,1.4,17.7,4.2L368.4,344.6L368.4,344.6z"/>
					<path class="st3" d="M291.9,157.9v0.6c0,16.4-5.8,30.3-17.3,41.9C263,212,249,217.7,232.7,217.7s-30.3-5.8-41.9-17.3
						c-11.6-11.6-17.3-25.6-17.3-41.9v-0.6h-61.6v108.6h276.5V157.9H291.9z"/>
					<path class="st4" d="M388.3,50.3h-36.9L275.9,118l-1.3-1.4c-6.4-6.4-13.4-10.9-21.2-13.8l21-52.6h-65.6l10.6,50.4
						c-7.9,1.7-15.2,5.1-21.8,10l-43.2-60.4h-43.6v25.9l1,0.7l71.6,48.6c-6.6,9.5-9.9,20.3-10,32.5v0.6c0,16.4,5.8,30.3,17.3,41.9
						c11.6,11.6,25.6,17.3,41.9,17.3s30.3-5.8,41.9-17.3c11.6-11.6,17.3-25.6,17.3-41.9v-0.6c-0.1-9-1.9-17.3-5.5-24.8l102-46
						L388.3,50.3L388.3,50.3z"/>
				</g>
			</g>
			<g>
				<path id="Shapes_Shape_53_0_Layer1_0_1_STROKES_1_" class="st5" d="M351.4,50.3h36.9v36.8v70.8v108.6V359v91.3H110.8V76.2V50.3
					h43.6h54.4h65.6H351.4z"/>
			</g>
		</g>
		<g transform="matrix( 1, 0, 0, 1, 0,0) ">
			<g>
				<path id="Shapes_Shape_53_0_Layer0_0_1_STROKES_1_" class="st6" d="M388.3,50.3v400H110.8v-400L388.3,50.3L388.3,50.3z"/>
			</g>
		</g>
	</g>
</g>
</svg>
