<?xml version="1.0" encoding="utf-8"?>
<!-- Generator: Adobe Illustrator 24.1.2, SVG Export Plug-In . SVG Version: 6.00 Build 0)  -->
<svg version="1.1" id="Layer_1" xmlns="http://www.w3.org/2000/svg" xmlns:xlink="http://www.w3.org/1999/xlink" x="0px" y="0px"
	 viewBox="0 0 700 500" style="enable-background:new 0 0 700 500;" xml:space="preserve">
<style type="text/css">
	.st0{fill:#676767;}
	.st1{fill:#A8CF3A;}
	.st2{fill:#989898;}
</style>
<g id="astroturf2000">
	<g transform="matrix( 1, 0, 0, 1, 0,0) ">
		<g>
			<g id="Layer0_0_FILL_3_">
				<path class="st0" d="M90.4,257.6l-1.7,5.3H53.2l-3.6,10.3c-1.1,3.3,2.6,5,11,5h48.1l7-20.6c1.1-3.3-2.6-5-11-5h-48l-2.4,7.3
					h25.3l1.3-3.6h6.4C89.5,256.3,90.7,256.7,90.4,257.6 M77.2,266.5h10.1l-2.7,8h-6.4c-2.4,0-3.4-0.4-3.3-1.3L77.2,266.5
					 M318.4,265.5l2.7-7.9c1.1-3.3-2.6-5-11-5h-48l-8.7,25.4h12.7c8.4,0,13.3-1.7,14.4-5l5.7-16.9h6.3c2.4,0,3.6,0.4,3.3,1.3
					l-2.7,7.9h25.3 M342.5,217.6l-0.1-0.9l0,0L342.5,217.6 M605.9,202.9l-0.1-0.4l0,0L605.9,202.9 M191.2,263.7v-0.6h-9.3h-25.7
					l2-5.6c0.3-0.9,1.6-1.3,4-1.3h6.3l-1.4,4.3h23.1h2.1l0.3-0.9l2.3-7h-48c-8.4,0-13.3,1.6-14.3,4.9l-3.1,9.3h35.3l-0.9,2.4
					l-1.1,3.4c-0.4,1.1-2.3,1.7-5.9,1.7h-4.6l0.4-1.1l1.3-3.9h-25.6l-2.9,8.6h14.1h14.3h19.6l8.1-0.6c3.4-0.7,5.7-2.4,6.6-4.9
					L191.2,263.7 M240.2,247l0.6-2l0.1-0.6h-12.7c-8.4,0-13.3,1.7-14.4,5l-1.1,3.3h-7.6L204,256l-0.1,0.3h7.6l-0.1,0.3l-5.6,16.4
					c-1.1,3.3,2.6,5,11,5h24.9l1.3-3.6h-1.6c-7.1,0-10.3-1.1-9.6-3.3l0,0l4.6-13.6c0.3-0.9,1.4-1.3,3.4-1.3h9.1l1.3-3.6h-12.1
					L240.2,247 M421.5,270.2l2.1-6.1l-36.6,9.4l0.1-0.4l7-20.4h-48c-8.4,0-13.3,1.6-14.4,4.9l-7,20.6h43.7l-7.4,1.7
					c-76,18.1-141.9,30.7-197.3,37.6c-47.9,5.9-76,6.1-84.6,0.6c-2.3,2.9-3.1,5.3-2.6,7.6c2.6,9.7,32.3,10.6,89,2.9
					c56.7-7.9,123.9-22.1,201.4-43C386.1,280.5,404.1,275.3,421.5,270.2 M351.4,274.5l5.9-16.9c0.3-0.9,1.6-1.3,4-1.3h6.3l-5.7,16.9
					c-0.3,0.9-1.7,1.3-4.1,1.3H351.4 M466.9,252c-0.7,1.1-2,1.9-4,2.3l-5,0.3l-13.4,3.9l-1.9,5.4l25.6-8l1.1-3.3
					c0.1-0.6,0.6-1.1,1-1.6L466.9,252 M481.1,247.9c1.6,0,3,0.3,4.3,0.9c0.9,0.3,1.6,0.6,2,1c23.9-8,46-16,66.4-24h0.1l-0.7-1.4
					C531.2,232.2,507.2,240.2,481.1,247.9z"/>
				<path class="st1" d="M462.9,299c-1.9,0.6-3.7,1.3-5.4,2.3h26.9c1-0.7,1.9-1.4,2.7-2.3H462.9 M466.4,294.2l0.1-0.1h-11.1
					l-0.1,0.4h10.9L466.4,294.2 M471.1,306l3.3-0.7l3.6-1h-25c-1,0.9-1.7,1.7-2.3,2.7h16.7l0.7-0.1L471.1,306 M449.4,309.5l-1.1,3.3
					H460l0.4-1.3c0.3-0.9,0.7-1.4,1.3-2H449.4 M447.5,314.6l-1.3,3.6h35.7l1.1-3.3h-24l0.1-0.3L447.5,314.6 M445.8,319.7l-1,3h35.7
					l1-3H445.8 M481.4,283.7h-10.9l-3.6,0.7h17.9l-1.6-0.4L481.4,283.7 M540.5,310.3l-0.1-0.4v-0.4h-10.7l-0.1,1l-0.1,2.3h11.7
					C540.8,312,540.7,311.2,540.5,310.3 M540.9,305.6l0.4-1.3h-10.4l-0.1,0.4c0,0.1,0,0.3,0,0.4l-0.3,1l-0.3,0.9h10.4L540.9,305.6
					 M542.4,301.3l0.4-1l0.4-1.3h-10.1l-0.6,1.1l-0.4,1.1L542.4,301.3 M545.2,295.6l0.9-0.9l0.6-0.7h-11l-0.6,0.9l-0.6,0.9h10.7
					 M488.7,314.6l0.1,0.7l0.1,0.9c0.1,0.7,0.4,1.4,0.9,2.1h28.4c1.4-1,2.6-2.1,3.7-3.6h-14.4l-2.4,0.4h-0.9l-2.1-0.4h-13.4
					 M499.5,322.6l2.4,0.1h1.6l2.3-0.1l3.1-0.6c2.3-0.4,4.4-1.1,6.6-2.1l0.3-0.1h-24.7c0,0.1,0.1,0.1,0.3,0.1c1.4,1,3.1,1.7,5.1,2.1
					L499.5,322.6 M488.9,309.5l-0.1,1l-0.1,2.3h11.7c-0.3-0.7-0.6-1.4-0.6-2.3l-0.1-0.4v-0.4H489 M489.7,306l-0.3,0.9h10.4l0.3-1.3
					l0.4-1.3h-10.3l-0.1,0.4v0.4L489.7,306 M489.4,295.6l0.3-0.6l0.3-0.7v-0.1V294h-12.6l-0.3,0.9l-0.6,0.7H489.4 M501.7,301.3
					l0.4-1l0.4-1.3h-10.1l-0.6,1.1l-0.4,1.1L501.7,301.3 M513.5,309.9l-0.3,0.4l-2.4,2.3h12.6l1.3-2.3l0.1-0.4l0.1-0.6h-11.6
					L513.5,309.9 M516.1,305l-0.3,0.7l-0.6,1.3h11.1l0.6-1.3l0.6-1.3h-11.3L516.1,305 M504.4,295.6l0.9-0.9l0.6-0.7h-11l-0.6,0.9
					l-0.6,0.9h10.7 M517.5,300.3l-0.4,1h11.3l0.1-0.4l0.1-0.6l0.1-0.6l0.1-0.7h-11.1L517.5,300.3 M517.9,294l0.1,0.7l0.1,0.9h11.6
					v-0.9v-0.9h-11.9 M490.2,289.3l-0.1-0.6h-31.4l-1,1.3h32.9L490.2,289.3 M522.4,284.2l-0.4-0.1l-2.4-0.4h-7.7l-1.3,0.1l-1.3,0.1
					l-0.7,0.1l-0.6,0.1h14.9L522.4,284.2 M529.4,290l-0.4-1.3h-29.6l-0.6,0.6l-0.7,0.7L529.4,290 M606.7,310l0.1-0.6h-11.6l-0.1,0.4
					l-0.3,0.4l-2.4,2.3H605l1.3-2.3L606.7,310 M608.1,306.9l0.6-1.3l0.6-1.3H598l-0.1,0.7l-0.3,0.7L597,307h11.1 M611.5,295.6v-0.9
					v-0.9h-12l0.1,0.7l0.1,0.9h11.7 M610.5,299.7l0.1-0.7h-11.1l-0.3,1.3l-0.4,1h11.3l0.1-0.4l0.1-0.6L610.5,299.7 M585.1,322.7
					l2.3-0.1l3.1-0.6c2.3-0.4,4.4-1.1,6.6-2.1l0.3-0.1h-24.7c0,0.1,0.1,0.1,0.3,0.1c1.4,1,3.1,1.7,5.1,2.1l2.9,0.6l2.4,0.1H585.1
					 M556.4,319.9l0.3-0.1H532c0,0.1,0.1,0.1,0.3,0.1c1.4,1,3.1,1.7,5.1,2.1l2.9,0.6l2.4,0.1h1.6l2.3-0.1l3.1-0.6
					C552.1,321.6,554.2,320.9,556.4,319.9 M559.1,318.3c1.4-1,2.6-2.1,3.7-3.6h-14.4l-2.4,0.4h-0.9l-2.1-0.4h-13.6l0.1,0.7l0.1,0.9
					c0.1,0.7,0.4,1.4,0.9,2.1h28.6 M570.4,314.6l0.1,0.7l0.1,0.9c0.1,0.7,0.4,1.4,0.9,2.1h28.4c1.4-1,2.6-2.1,3.7-3.6h-14.4
					l-2.4,0.4h-0.9l-2.1-0.4h-13.4 M564.4,312.6l1.3-2.3l0.1-0.4l0.1-0.6h-11.4l-0.1,0.4l-0.3,0.4l-2.4,2.3h12.7 M556.9,305
					l-0.3,0.7L556,307h11.1l0.6-1.3l0.6-1.3H557L556.9,305 M569.2,301.3l0.1-0.4l0.1-0.6l0.1-0.6l0.1-0.7h-11.1l-0.3,1.3l-0.4,1
					L569.2,301.3 M570.7,294.9V294h-11.9l0.1,0.7l0.1,0.9h11.6v-0.7 M581.9,312.6c-0.3-0.7-0.6-1.4-0.6-2.3l-0.1-0.4v-0.4h-10.7
					l-0.1,1l-0.1,2.3H582 M581.4,306.9l0.3-1.3l0.4-1.3h-10.4l-0.1,0.4v0.4l-0.3,1L571,307h10.4 M586.8,294.7l0.6-0.7h-11l-0.6,0.9
					l-0.6,0.9h10.6L586.8,294.7 M583.2,301.3l0.4-1l0.4-1.3h-10.1l-0.6,1.1l-0.4,1.1L583.2,301.3 M570.2,290l-0.4-1.3h-29.6
					l-0.6,0.6l-0.7,0.7L570.2,290 M562.8,284l-2.4-0.4h-7.7l-1.3,0.1l-1.3,0.1l-0.7,0.1l-0.6,0.1h14.9l-0.6-0.1L562.8,284
					 M611.1,290l-0.4-1.3h-29.6l-0.6,0.6l-0.7,0.7L611.1,290 M593.5,283.7l-1.3,0.1l-1.3,0.1l-0.7,0.1l-0.6,0.1h14.9l-0.6-0.1
					l-0.4-0.1l-2.4-0.4L593.5,283.7 M645.6,263c0.4-1.3-0.3-2.3-2.1-2.9c-1.4-0.4-2.7-0.6-4-0.6h-16c-1.3,0-2.7,0.1-4.4,0.6
					c-2.1,0.6-3.4,1.6-3.9,2.9c-0.4,1.3,0.1,2.1,1.9,2.9l4,0.6h16c1.7,0,3.4-0.3,5.1-0.9C644.2,264.9,645.2,264,645.6,263
					 M643.4,248h-18.7c-6.3,0-12.1,0.9-17.7,2.7c-8,2.6-13,6.6-14.9,12l-3.6,10.6c-0.6,1.7,0.4,3.1,3,4c1.3,0.4,3,0.7,4.9,0.7
					s3.7-0.3,5.4-0.7c3.3-0.9,5.1-2.3,5.7-4l3.6-10.6c1-2.7,3.4-4.9,7.4-6.3c2.9-1,6-1.4,9.6-1.4h13c1.7,0,3.4-0.3,5.1-0.9
					c1.7-0.6,2.7-1.4,3.1-2.6c0.4-1.3-0.3-2.3-2.3-2.9L643.4,248 M605.7,202.5l0.1,0.4c23.7-12,34.6-21.3,32.9-27.9
					c-2.6-9.7-32.3-10.6-88.9-2.9c-56.7,7.9-123.9,22.1-201.4,43l-6,1.7l0.1,0.9l0.1,0.7c76-18.1,141.7-30.7,197.3-37.6
					c55.6-6.9,84.6-6,87.1,2.4C628.7,188,621.4,194.5,605.7,202.5 M550.5,248c-3.6,0-7.3,0.6-11,1.7c-5,1.4-8.3,3.7-9.7,6.7
					l-0.3,0.7l-5.4,16.1c-0.6,1.7,0.4,3.1,3,4c1.3,0.4,3,0.7,4.9,0.7s3.7-0.3,5.3-0.7c3.3-0.9,5.3-2.3,5.9-4l5.9-17.3l0.1-0.3
					c0.3-0.7,1.9-1.1,4.9-1.1h13c3,0,4.3,0.4,4.1,1.1l-1,3c-0.1,0.6-1,1-2.4,1.4l-2.7,0.3h-6.9l-4.4,0.6c-2.3,0.6-3.7,1.6-4.1,2.9
					c-0.4,1.1,0.1,2,1.4,2.6l15.4,9.9c1.3,1,3.1,1.6,5.3,1.6c1.9,0,3.7-0.3,5.7-1c3.4-0.9,5.4-2.3,6-4c0.6-1.4,0-2.7-1.3-3.7
					l-6.3-3.1c1.7-0.1,3.6-0.7,5.4-1.6c3.9-1.6,6.3-3.7,7.1-6.4l0.7-2.3c0.6-1.7,0-3.3-1.7-4.7c-2.4-2.3-7.4-3.4-15-3.4h-21.9
					 M152.4,278.7l1.6-0.6h-14.3c-44.3,16.7-65.3,29-63,36.9c0.3,1.1,1.1,2.1,2.6,3C87.1,308.5,111.5,295.3,152.4,278.7
					 M152.2,274.5h4.6c3.6,0,5.6-0.6,5.9-1.7l1.1-3.4l-11.3,4L152.2,274.5 M204.1,256.3l0.1-0.3l-11.6,3.7l-0.3,0.9h-2.1l-8.3,2.7
					h9.3h0.1l-0.1,0.6c6.6-2.4,13.4-4.9,20.4-7.3l0.1-0.3L204.1,256.3 M240.8,245l-0.6,2c16.1-5.3,33-10.4,50.7-15.7
					C273.5,235.9,256.8,240.5,240.8,245 M480.4,247.9c-1.9,0-3.7,0.3-5.4,0.9c-2.1,0.6-3.7,1.3-4.7,2.4c-0.4,0.4-0.9,1-1,1.6
					l-1.1,3.3l-4.3,12.9c-1.1,3.3,0.4,5.7,4.7,7.4c3,1.1,6.4,1.7,10,1.7h20.3c3.7,0,7.6-0.6,11.7-1.9c5.1-1.6,8.3-4.1,9.6-8
					l5.3-15.4c0.6-1.7-0.4-3.1-3-4c-1.4-0.6-3-0.9-4.9-0.9c-2,0-3.9,0.3-5.7,0.9c-3.1,0.9-4.9,2.1-5.6,4l-5.6,16.7
					c-0.1,0.4-0.9,0.9-2.1,1.3l-3,0.6h-9.1c-1,0-1.9-0.1-2.7-0.6c-0.9-0.4-1.3-0.9-1.1-1.3l5.6-16.7c0.4-1.1,0.1-2.1-1-3
					c-0.6-0.4-1.1-0.7-2-1c-1.3-0.6-2.7-0.7-4.3-0.9L480.4,247.9 M467.2,250c-2.3-1.4-4.9-2.1-7.6-2.1h-42.1c-5.9,0-9.3,1.1-10,3.6
					c-0.6,1.6,0.3,2.4,2.3,2.9l5.4,0.3h11.6l-3.1,9.4l-2.1,6.1l-1,3.1c-0.6,1.7,0.4,3,3,4c1.4,0.4,3,0.7,4.9,0.7l5.4-0.7
					c3.3-0.9,5.1-2.1,5.7-4l3.1-9.4l1.9-5.4l1.3-3.9h11.6h0.7l5-0.3c2-0.4,3.4-1.1,4-2.3l0.3-0.6C467.5,250.7,467.5,250.2,467.2,250
					z"/>
				<path class="st2" d="M191.2,263.2v0.6l0.1-0.6H191.2z"/>
			</g>
		</g>
	</g>
</g>
</svg>
