<?xml version="1.0" encoding="utf-8"?>
<!-- Generator: Adobe Illustrator 24.1.2, SVG Export Plug-In . SVG Version: 6.00 Build 0)  -->
<svg version="1.1" id="Layer_1" xmlns="http://www.w3.org/2000/svg" xmlns:xlink="http://www.w3.org/1999/xlink" x="0px" y="0px"
	 viewBox="0 0 500 500" style="enable-background:new 0 0 500 500;" xml:space="preserve">
<style type="text/css">
	.st0{fill:none;stroke:#676767;stroke-width:7.4108;stroke-linecap:round;stroke-linejoin:round;}
	.st1{fill:#676767;}
	.st2{fill:#349A9A;}
	.st3{fill:none;stroke:#676767;stroke-width:7.4036;stroke-linecap:round;stroke-linejoin:round;stroke-miterlimit:3.9961;}
	.st4{fill:none;stroke:#676767;stroke-width:6.169750e-02;stroke-linecap:round;stroke-linejoin:round;stroke-miterlimit:3.9961;}
	.st5{fill:none;stroke:#676767;stroke-width:7.4231;stroke-linecap:round;stroke-linejoin:round;stroke-miterlimit:4.0066;}
</style>
<g id="EiDD">
	<g>
		<g transform="matrix( 1, 0, 0, 1, -67.2,23.95) ">
			<g transform="matrix( 1, 0, 0, 1, 0,0) ">
				<g>
					<path id="Shapes_Shape_9_0_Layer1_0_1_STROKES" class="st0" d="M494.2,197.8c0.8,17.2-3.9,34.6-14.1,52.4
						c-10.3,17.7-23,30.5-38.3,38.4s-28.6,8.5-40,2c-5.5-3.2-9.8-7.6-12.8-13.3c-3.2-6-5-13.4-5.4-22.3c-0.5-11.2,1.3-22.4,5.4-33.8
						c2.2-6.1,5.1-12.3,8.7-18.5c10.2-17.7,23-30.5,38.2-38.4c15.3-7.9,28.7-8.6,40-2C487.3,168.7,493.4,180.6,494.2,197.8z"/>
				</g>
			</g>
			<g transform="matrix( 1, 0, 0, 1, 0,0) ">
				<g>
					<g id="Shapes_Shape_9_0_Layer0_0_FILL">
						<path class="st1" d="M511.2,198.7c-6.3-6.8-17.7-10.2-34.2-10.2h-50.9l-27,79.5H450c16.5,0,30.2-3.4,41.1-10.1
							c10.9-6.8,18.5-16.7,22.9-29.6C518.4,215.3,517.5,205.4,511.2,198.7 M465.5,208.2c7.9,0,13.1,1.5,15.5,4.6
							c2.5,3,2.6,7.9,0.2,14.8c-2.3,6.9-5.8,11.8-10.3,14.8c-4.4,3-10.7,4.5-18.7,4.5H437l13.2-38.7L465.5,208.2L465.5,208.2z"/>
					</g>
				</g>
			</g>
		</g>
		<g transform="matrix( 1, 0, 0, 1, -139.2,23.95) ">
			<g transform="matrix( 1, 0, 0, 1, 0,0) ">
				<g>
					<path id="Shapes_Shape_8_0_Layer1_0_1_STROKES" class="st0" d="M477.3,197.8c0.8,17.2-3.9,34.6-14.1,52.4
						c-10.3,17.7-23,30.5-38.3,38.4s-28.6,8.5-40,2s-17.5-18.4-18.3-35.6s3.9-34.6,14.1-52.3s23-30.5,38.2-38.4
						c15.3-7.9,28.7-8.6,40-2C470.4,168.7,476.5,180.6,477.3,197.8z"/>
				</g>
			</g>
			<g transform="matrix( 1, 0, 0, 1, 0,0) ">
				<g>
					<g id="Shapes_Shape_8_0_Layer0_0_FILL">
						<path class="st1" d="M494.3,198.7c-6.3-6.8-17.7-10.2-34.2-10.2h-50.9l-27,79.5h50.9c16.5,0,30.2-3.4,41.1-10.1
							c10.9-6.8,18.5-16.7,22.9-29.6C501.5,215.3,500.6,205.4,494.3,198.7 M448.6,208.2c7.9,0,13.1,1.5,15.5,4.6
							c2.5,3,2.6,7.9,0.2,14.8c-2.3,6.9-5.8,11.8-10.3,14.8c-4.4,3-10.7,4.5-18.7,4.5H420l13.2-38.7L448.6,208.2L448.6,208.2z"/>
					</g>
				</g>
			</g>
		</g>
		<g transform="matrix( 0.9996795654296875, 0, 0, 1, -211.2,23.95) ">
			<g transform="matrix( 1, 0, 0, 1, 0,0) ">
				<g>
					<g id="Shapes_Shape_7_0_Layer1_0_FILL">
						<path class="st2" d="M460.5,197.8c-0.8-17.2-6.9-29-18.2-35.6c-11.4-6.6-24.7-5.9-40,2s-28,20.7-38.2,38.4
							c-10.3,17.7-15,35.1-14.1,52.3c0.8,17.2,6.9,29.1,18.3,35.6s24.7,5.9,40-2s28-20.7,38.3-38.4
							C456.6,232.4,461.3,214.9,460.5,197.8z"/>
					</g>
				</g>
				<g>
					<path id="Shapes_Shape_7_0_Layer1_0_1_STROKES" class="st3" d="M460.5,197.8c0.8,17.2-3.9,34.6-14.1,52.4
						c-10.3,17.7-23,30.5-38.3,38.4s-28.6,8.5-40,2s-17.5-18.4-18.3-35.6s3.9-34.6,14.1-52.3s23-30.5,38.2-38.4
						c15.3-7.9,28.7-8.6,40-2C453.6,168.7,459.7,180.6,460.5,197.8z"/>
				</g>
			</g>
			<g transform="matrix( 1, 0, 0, 1, 0,0) ">
				<g>
					<g id="Shapes_Shape_7_0_Layer0_0_FILL">
						<path class="st1" d="M414.6,223.5c0.6-3.5-0.1-6.5-2.2-9.1s-5.4-4.3-9.9-5.1c-2.5-0.5-5.3-0.5-8.3-0.1l-9.4,1.7l-2.1,4.9
							l3.5-0.5l3.8,0.1c2.5,0.5,4.1,1.2,4.9,2.2c0.7,1,0.9,2.5,0.5,4.6c-0.2,1.2-0.6,2.5-1.1,3.9l-1.9,4.3l-7.7,15.9l-1.7,4.5l-1,4
							c-0.6,3.4,0.2,6.5,2.3,9.1c2.1,2.7,5.5,4.4,10.1,5.2l8,0.2l9.6-1.8l25.6-6.3l1-5.1l-24.5,6.5l-3.3,0.6l-3.9-0.1
							c-2.4-0.4-4.1-1.1-4.9-2.2c-0.9-0.9-1.1-2.5-0.7-4.8l1.1-3.8l1.9-4.4l7.6-15.7l1.9-4.8L414.6,223.5 M427.6,193.1
							c0.5-2.9-0.2-5.6-2-8c-1.9-2.4-4.3-3.9-7.3-4.4c-3.1-0.6-5.9,0-8.5,1.7s-4.1,4-4.6,6.9s0.2,5.5,2,8c1.9,2.4,4.3,3.9,7.4,4.4
							c3,0.5,5.9,0,8.5-1.7C425.6,198.3,427.1,196,427.6,193.1z"/>
					</g>
				</g>
				<g>
					<path id="Shapes_Shape_7_0_Layer0_0_1_STROKES" class="st4" d="M438.6,256l-1,5.1"/>
				</g>
			</g>
		</g>
		<g transform="matrix( 1.00054931640625, 0, 0, 1, -283.15,23.95) ">
			<g transform="matrix( 1, 0, 0, 1, 0,0) ">
				<g>
					<path id="Shapes_Shape_6_0_Layer1_0_1_STROKES" class="st5" d="M443.2,197.8c0.8,17.2-3.9,34.6-14.1,52.4
						c-10.3,17.7-23,30.5-38.3,38.4s-28.6,8.5-40,2s-17.5-18.4-18.3-35.6s3.9-34.6,14.1-52.3c10.2-17.7,23-30.5,38.2-38.4
						c15.3-7.9,28.7-8.6,40-2C436.4,168.7,442.4,180.6,443.2,197.8z"/>
				</g>
			</g>
			<g transform="matrix( 1, 0, 0, 1, 0,0) ">
				<g>
					<g id="Shapes_Shape_6_0_Layer0_0_FILL">
						<path class="st1" d="M396,217.5l3.2-9.4h53.4l6.7-19.5h-84.1l-27,79.4h86.7l6.9-20.4h-56l3.5-10.4h43.2l6.7-19.6H396V217.5z"
							/>
					</g>
				</g>
			</g>
		</g>
	</g>
</g>
</svg>
