<?xml version="1.0" encoding="utf-8"?>
<!-- Generator: Adobe Illustrator 24.1.2, SVG Export Plug-In . SVG Version: 6.00 Build 0)  -->
<svg version="1.1" id="Layer_1" xmlns="http://www.w3.org/2000/svg" xmlns:xlink="http://www.w3.org/1999/xlink" x="0px" y="0px"
	 viewBox="0 0 600 500" style="enable-background:new 0 0 600 500;" xml:space="preserve">
<style type="text/css">
	.st0{fill:none;stroke:#EF3C23;stroke-width:8.3068;stroke-linecap:round;stroke-linejoin:round;}
	.st1{fill:none;stroke:#EF3C23;stroke-width:7.1724;stroke-linecap:round;stroke-linejoin:round;stroke-miterlimit:4.0633;}
	.st2{fill:none;stroke:#666766;stroke-width:4.1533;stroke-linecap:round;stroke-linejoin:round;}
</style>
<g id="Taitech">
	<g>
		<g transform="matrix( 1, 0, 0, 1, -16.3,-1.3) ">
			<g transform="matrix( 1, 0, 0, 1, 0,0) ">
				<g>
					<path id="Shapes_Shape_35_0_Layer0_0_1_STROKES_1_" class="st0" d="M286.8,246c0,10.6-3.8,19.8-11.4,27.4
						c-7.4,7.4-16.6,11.3-27.2,11.3s-19.8-3.7-27.4-11.3c-7.4-7.7-11.3-16.7-11.3-27.4s3.7-19.7,11.3-27.2
						c7.7-7.7,16.7-11.4,27.4-11.4s19.7,3.8,27.2,11.4C283,226.5,286.8,235.6,286.8,246z"/>
				</g>
			</g>
		</g>
		<g transform="matrix( 1.003936767578125, 0, 0, 1.003936767578125, -16.2,-1.2) ">
			<g transform="matrix( 1, 0, 0, 1, 0,0) ">
				<g>
					<path id="Shapes_Shape_36_0_Layer0_0_1_STROKES_1_" class="st1" d="M273.7,245.2c0,7.3-2.6,13.6-7.7,18.7s-11.3,7.7-18.4,7.7
						c-7.2,0-13.4-2.6-18.7-7.7c-5.1-5.1-7.7-11.4-7.7-18.7c0-7.2,2.6-13.4,7.7-18.4c5.1-5.1,11.4-7.7,18.7-7.7s13.5,2.6,18.4,7.7
						C271.1,231.9,273.7,238,273.7,245.2z"/>
				</g>
			</g>
		</g>
		<g transform="matrix( 1, 0, 0, 1, 0,0) ">
			<g transform="matrix( 1, 0, 0, 1, 0,0) ">
				<g>
					<path id="Shapes_Shape_37_0_Layer7_0_1_STROKES_1_" class="st2" d="M96.5,246.7v47.2H73.7v-47.2H39.5v-10h90.8v10H96.5z"/>
				</g>
			</g>
			<g transform="matrix( 1, 0, 0, 1, 0,0) ">
				<g>
					<path id="Shapes_Shape_37_0_Layer6_0_1_STROKES_1_" class="st2" d="M191.8,255.8c-5.2-2.6-13.2-4-23.9-4h-33.2l-8.3,8.7h33.8
						l14.4,1.5c2.6,1,4,2.7,4,5.4v1h-26.7c-11,0-18.9,1-23.5,3.1c-4.7,2.1-7.1,5.4-7.1,10.2c0,4,2,6.9,6.1,8.9
						c4.2,2.1,10,3.1,17.7,3.1h54.8v-26.1C199.7,262.6,197,258.6,191.8,255.8z M178.7,285.5h-25.5l-8.9-0.9
						c-1.4-0.5-2.1-1.6-2.1-3.1c0-2,0.9-3.2,2.7-3.7l9.8-1h24.1L178.7,285.5L178.7,285.5z"/>
				</g>
			</g>
			<g transform="matrix( 1, 0, 0, 1, 0,0) ">
				<g>
					<path id="Shapes_Shape_37_0_Layer5_0_1_STROKES_1_" class="st2" d="M242.4,294.4H221v-23l21.4-8.3V294.4z"/>
				</g>
			</g>
			<g transform="matrix( 1, 0, 0, 1, 0,0) ">
				<g>
					<path id="Shapes_Shape_37_0_Layer4_0_1_STROKES_1_" class="st2" d="M290.6,236.7v15.1h21.5v8.3h-21.5v17.1c0,3.2,1,5.4,3.1,6.7
						l10.2,1.6h8.3v8.3h-18.4c-7.7,0-13.4-1.1-17.2-3.3c-4-2.4-6.1-5.6-6.1-9.8v-20.6H256v-8.3h14.4V245L290.6,236.7z"/>
				</g>
			</g>
			<g transform="matrix( 1, 0, 0, 1, 0,0) ">
				<g>
					<path id="Shapes_Shape_37_0_Layer3_0_1_STROKES_1_" class="st2" d="M392,277.2h-45.9c0.1,2.8,1.4,5,3.7,6.2l15.1,1.6h27v8.7
						h-29.7c-12.9,0-22.5-1.7-28.8-5.2c-6.7-3.5-10-8.7-10-15.7c0-6.9,3.3-12.1,10-15.7c6.3-3.5,16-5.2,28.8-5.2h21.4l8.3,8.7h-26.7
						l-15,1.6c-2.5,1.2-3.8,3.3-4.2,6.2h45.9v8.9L392,277.2L392,277.2z"/>
				</g>
			</g>
			<g transform="matrix( 1, 0, 0, 1, 0,0) ">
				<g>
					<path id="Shapes_Shape_37_0_Layer2_0_1_STROKES_1_" class="st2" d="M472.1,293.8h-27.4l-17.5-1c-4.7-0.9-8.5-2.1-11.6-4
						c-3.7-2-6.6-4.3-8.5-7.1c-2-2.7-2.8-5.7-2.8-8.7c0-3.1,1-6.1,2.8-9.2c2.1-2.8,5-5.2,8.5-7.1c3.2-1.9,7.2-3.1,11.9-4l17.2-1
						h31.6l-4.2,8.9h-21.5c-9.3,0-15.8,1-19.7,2.8c-3.6,1.6-5.4,4.8-5.4,9.3c0,2.5,0.7,4.6,2.2,6.4s3.8,3.2,6.8,4.2l5.2,1l32.4,0.4
						V293.8L472.1,293.8z"/>
				</g>
			</g>
			<g transform="matrix( 1, 0, 0, 1, 0,0) ">
				<g>
					<path id="Shapes_Shape_37_0_Layer1_0_1_STROKES_1_" class="st2" d="M509.5,228.4v23.5h18.1c10.9,0,19.1,1.2,24.5,3.6
						c5,2.5,7.4,6.3,7.4,11.6v26.7h-20.3v-25.5c0-2.7-1-4.7-2.8-5.8l-10.6-1.6h-16.2V294h-20.2v-57.1L509.5,228.4z"/>
				</g>
			</g>
			<g transform="matrix( 1, 0, 0, 1, 0,0) ">
				<g>
					<path id="Shapes_Shape_37_0_Layer0_0_1_STROKES_1_" class="st2" d="M245.4,244c0,3.7-1.4,6.9-4,9.5s-5.8,4-9.5,4
						s-6.9-1.4-9.5-4s-4-5.8-4-9.5s1.4-6.9,4-9.5s5.8-4,9.5-4s6.9,1.4,9.5,4S245.4,240.3,245.4,244z"/>
				</g>
			</g>
		</g>
	</g>
</g>
</svg>
