<?xml version="1.0" encoding="utf-8"?>
<!-- Generator: Adobe Illustrator 24.1.2, SVG Export Plug-In . SVG Version: 6.00 Build 0)  -->
<svg version="1.1" id="Layer_1" xmlns="http://www.w3.org/2000/svg" xmlns:xlink="http://www.w3.org/1999/xlink" x="0px" y="0px"
	 viewBox="0 0 500 500" style="enable-background:new 0 0 500 500;" xml:space="preserve">
<style type="text/css">
	.st0{fill:#F16829;}
</style>
<g id="_x31_W">
	<g>
		<g transform="matrix( 1, 0, 0, 1, 0,0) ">
			<g>
				<g id="Layer1_0_FILL_2_">
					<path class="st0" d="M241.6,154.5h-192v191.6h192V154.5 M222.1,173.8v152.9h-153V173.8H222.1 M111.3,231.1h26.3v77.3h28V190.7
						h-22.9c-1.5,8.3-4.8,14-9.9,17.2c-2.2,1.4-5.8,2.1-10.7,2.1h-10.7v21.1H111.3z"/>
				</g>
			</g>
		</g>
		<g transform="matrix( 1, 0, 0, 1, 0,0) ">
			<g>
				<g id="Layer0_0_FILL_4_">
					<path class="st0" d="M449.5,264.3v-82.6h-50.3v72.2c0,10.1-2.8,15.2-8.3,15.2c-3.1,0-5.2-1.1-6.3-3.3
						c-1.3-2.2-1.9-6.2-1.9-11.8v-72.2h-50.3V254c0,10.1-2.8,15.2-8.5,15.2c-3,0-5.1-1.1-6.3-3.3c-1.1-2.2-1.7-6.2-1.7-11.8v-72.2
						h-50.4v77c0,18.1,4,31.9,12,41.5c10.2,12.2,23.6,18.3,40.4,18.3c13.3,0,26.5-6.3,39.5-18.9c11.8,12.6,25.2,18.9,40.1,18.9
						c14.5,0,26.8-5.2,36.9-15.7C444.5,292.1,449.5,279.3,449.5,264.3z"/>
				</g>
			</g>
		</g>
	</g>
</g>
</svg>
