<?xml version="1.0" encoding="utf-8"?>
<!-- Generator: Adobe Illustrator 24.1.2, SVG Export Plug-In . SVG Version: 6.00 Build 0)  -->
<svg version="1.1" id="Layer_1" xmlns="http://www.w3.org/2000/svg" xmlns:xlink="http://www.w3.org/1999/xlink" x="0px" y="0px"
	 viewBox="0 0 500 500" style="enable-background:new 0 0 500 500;" xml:space="preserve">
<style type="text/css">
	.st0{fill:#146635;}
	.st1{fill:#FFFFFF;}
	.st2{fill:none;stroke:#176635;stroke-width:6.9955;stroke-linecap:round;stroke-linejoin:round;}
</style>
<g id="ASNL">
	<g transform="matrix( 1, 0, 0, 1, 0,0) ">
		<g transform="matrix( 1, 0, 0, 1, 0,0) ">
			<g>
				<g id="Shapes_Shape_59_0_Layer1_0_FILL_1_">
					<path class="st0" d="M411.8,142.6h-86.7L87.3,393v29.3c0,7.7,2.7,14.3,8.2,19.8s12.1,8.2,19.8,8.2h268.5
						c7.7,0,14.3-2.7,19.8-8.2s8.2-12,8.2-19.8V142.6 M394,363.9h11.3l-8.7,25.7c-0.3,0.8,0.5,1.3,2.3,1.3h2.3l-1.1,3.3h-27.8
						l8.8-25.9C382,365.4,386.3,363.9,394,363.9 M274,310.4c-0.1-2,0.7-3.6,2.4-5c1.5-1.3,3.4-1.9,5.5-1.8c2.1,0,3.8,0.5,5.3,1.6
						c1.7,1,2.7,2.2,3,3.8c0.3,1.2,0.8,2.3,1.5,3.3c1.2,1.7,2.1,3.4,2.8,5.3l0.6,1.3c0.1,1.5,0.6,3.2,1.7,4.9l2.9,5.2
						c1,1.9,1.6,4,1.9,6.3s0.3,4.5,0.1,6.6c-0.2,2.2-0.9,4.3-2,6.2c-1,1.8-2.5,2.9-4.5,3.5c-1.1,0.3-2.1,0.2-2.9-0.2
						c-1.6-0.8-2.8-2.1-3.5-3.8l-0.8-1.9l-0.2-0.7v-0.2c-0.2-1.6-0.7-2.9-1.5-4.1c-1-1.4-2.1-3-3.1-4.8s-2.4-3.2-4-4.3
						c-0.1,0.1-0.5,0.1-1.2,0c-2.1-0.3-4.2-0.1-6.4,0.5c-2.1,0.6-4.1,1.3-6.1,2.1c-1.9,0.8-4,1.3-6.2,1.5c-2.2,0.3-4.3,0.9-6.2,1.9
						s-4,1.8-6.3,2.2c-1.6,0.6-3.4,1.2-5.5,1.7c-1.4,0.3-2,0.2-1.8-0.5c-0.2,0.5-1.2,0.9-3.1,1.2c-2,0.4-3.7,0-5.3-1
						c-1.5-1-3.1-2-4.8-2.9c-1.5-0.8-3.1-1.9-4.6-3.3c-1.6-1.5-2.8-3.1-3.4-5l-1.9-5.7l-0.6-1c-1-1.5-2.3-2.9-3.9-4.2
						c-1.6-1.3-2.8-2.9-3.6-5c-0.8-2.2-1.9-3.8-3.3-4.8c-0.6-0.3-1-0.8-1.2-1.5c-0.7-1.9-1.9-3.3-3.6-4.3l-1.3-0.8
						c-0.3,0.2-1.1,0.2-2.6,0l-6.5-0.2c-1,0-2,0.4-2.9,1l-4.8,3.5l-4.3,3.2l-2.4,1.7c-1.9,1.2-3.9,1.6-6.1,1.1l-2.8-0.2
						c0.2,2.2-0.4,4.1-1.6,5.8c-1.3,1.7-2.1,3.5-2.5,5.5c-0.6,2.2-1.5,4.1-2.8,5.6c-1.2,1.4-1.6,3.1-1.3,5c0,1.3-0.2,2.3-0.4,3.1
						c1.6,1.1,1.7,2.4,0.5,3.8c0.1,2.1,0.4,3.7,0.8,4.9c0.3,1,0.4,2,0.3,3.2c-0.2,2.4-0.4,4.4-0.6,5.9l-0.2,7
						c-0.4,2.1-0.7,4.2-0.9,6.5c-0.2,2.2-0.6,4.3-1,6.2c-0.5,2-0.8,4.1-1,6.4l-0.5,6.6c-0.1,2.3,0.1,4.5,0.6,6.5
						c0.5,2.1,0.9,4.3,1.2,6.4l0.1,2.3l1.1,1.9c0.9,1.8,1.7,3.6,2.4,5.5c0.8,2,1.1,4.1,1,6.4c-0.1,2.4-0.8,4.2-2.2,5.4
						c-1.1,1-1.7,1.1-1.6,0.5c-0.4,0.8-1.1,1.1-2,0.8c-2,0.7-4,1.4-6,1.9c-1.4,0.4-2.3,0.1-2.8-0.9c-0.9-1.7-2.3-2.9-4.2-3.5
						l-2.9-0.9l-3.8-1.3c-2.3-0.8-4.2-0.5-5.7,0.8c-0.4,0.3-0.8,0.3-1.3-0.1c-1-0.8-1.6-1.2-1.7-1.2c-1.4-1.6-2.9-2-4.7-1.3
						c-0.8,0.3-1.2,0.1-1.1-0.6c0.1-1.2-0.2-2.1-0.9-2.7l-1-0.6c-1.3-0.4-2-1.1-2.1-2l-0.3-1.2c-0.4-1.2-0.8-2.4-1.3-3.6
						c-0.9-2.1-0.5-3.9,1-5.4c1.2-1.2,3.1-1.7,5.6-1.5c1.2,0.1,2.2,0.3,2.9,0.5l2.5,0.9c2,0.7,4,0.8,6.2,0.4s3.7-1.2,4.7-2.4
						l0.6-1.4c0.3-0.7,0.3-1.3-0.1-1.8c-1-1.1-1.6-2.6-1.7-4.5c-0.1-2.3-0.3-4.6-0.5-6.8c-0.2-2.2-0.5-4.4-1-6.6l-0.5-3
						c-0.2-2.3-0.6-4.5-1.1-6.4c-0.6-2.1-0.9-4.2-1-6.5c-0.2-2.4-0.1-4.4,0.2-6.3c0-0.3,0-0.7-0.2-1.4c-0.6-2.1-0.7-4.2-0.3-6.3
						c0.1-0.6,0-1.1-0.2-1.5c-0.4-0.7-0.5-1.4-0.4-2.1l88.6-93.2l0.4,0.6c1.2,1.7,1.7,3.8,1.6,6.3c-0.1,2.2,0.4,4.2,1.6,6
						c1,1.4,1.9,2.9,2.8,4.5c1.1,1.9,2,3.8,2.7,5.6c0.4,1.2,0.8,2.4,1,3.8c0.5,1.8,1.2,3.6,2.1,5.4c1,1.9,1.7,4,2.1,6.2l0.4,1.5
						c0.5,1.4,0.9,3,1.2,4.8c0.3,2.1,0.9,3.8,1.5,5.1c-1.4,1.4-2.5,2.4-3.3,3c0.6,1.7,1,3.6,1.3,5.8c0.3,2.2,0.8,4.3,1.7,6.1
						c0.4,0.8,0.9,1.4,1.6,1.8c0-1.4,0.9-2.8,2.6-4.2c1.5-1.4,3.6-2.2,6.1-2.5c2.7-0.3,5.3-0.4,7.8,0l7.8,0.8
						c1.4,0.1,2.5,0.4,3.5,0.8l2.3,0.2C272.4,312.8,273.6,311.8,274,310.4 M265.3,374.5c-2.2,0-3.4,0.4-3.7,1.2l-1.7,5.1h31.7
						l-2.9,8.5c-0.8,2.2-2.7,3.7-5.9,4.4l-7.3,0.6h-43.1l2.6-7.8h22.8l-1.5,4.5h4.1c3.2,0,5-0.5,5.3-1.5l1.8-5.4h-31.7l2.9-8.4
						c1-2.9,5.3-4.4,12.9-4.4h43.2l-2.3,7.1h-22.8l1.3-3.8h-5.7 M340,375.7c0.3-0.8-0.7-1.2-2.9-1.2h-5.7l-5.1,15.3
						c-1,2.9-5.3,4.4-12.9,4.4h-11.6l7.8-22.9H353c7.6,0,10.9,1.5,9.9,4.4l-6.3,18.5h-22.9L340,375.7 M379.4,404.5
						c2,0,3.9,0.5,5.7,1.5c1.8,1,3.2,2.4,4.3,4.2c1,1.8,1.5,3.8,1.5,5.8s-0.5,3.9-1.5,5.7c-1,1.8-2.4,3.2-4.3,4.3
						c-1.8,1-3.7,1.5-5.7,1.5s-3.9-0.5-5.7-1.5c-1.8-1-3.3-2.4-4.3-4.3c-1-1.8-1.5-3.7-1.5-5.7s0.5-3.9,1.6-5.8
						c1-1.8,2.4-3.3,4.3-4.2C375.5,405,377.4,404.5,379.4,404.5 M192,374.6l-1.1,3.2h-22.8l2.2-6.5h43.3c7.6,0,11,1.5,9.9,4.4
						l-6.3,18.5H174c-7.6,0-10.9-1.5-9.9-4.5l3.1-9.3H199l1.6-4.7c0.3-0.7-0.7-1.1-2.9-1.1H192 M198,383.7h-9.1l-2,6.1
						c-0.3,0.8,0.7,1.2,2.9,1.2h5.8L198,383.7 M374.9,408c-1.5,0.8-2.6,1.9-3.4,3.4c-0.9,1.5-1.3,3-1.3,4.7c0,1.6,0.4,3.2,1.3,4.6
						c0.8,1.5,1.9,2.6,3.4,3.4s3,1.2,4.6,1.2s3.1-0.4,4.6-1.2c1.4-0.8,2.6-2,3.4-3.4s1.2-3,1.2-4.6s-0.4-3.2-1.2-4.7
						c-0.8-1.5-2-2.6-3.5-3.4c-1.4-0.8-3-1.2-4.5-1.2C377.8,406.8,376.3,407.2,374.9,408 M374.2,410h2.5h3.9
						c0.8,0.1,1.5,0.2,1.9,0.5c0.5,0.3,0.9,0.7,1.2,1.2c0.3,0.5,0.5,1.1,0.5,1.7c0,0.9-0.3,1.6-0.9,2.2s-1.4,1-2.4,1.2l0.8,0.5
						l0.8,0.9l0.9,1.5l1.4,2.5h-3.1l-1-2c-0.7-1.3-1.3-2.2-1.7-2.5c-0.4-0.3-1-0.5-1.7-0.5h-0.6v5h-2.5L374.2,410 M376.7,411.9v3.3
						h1l2.7-0.2l0.8-0.6c0.2-0.3,0.3-0.6,0.3-0.9s-0.1-0.7-0.3-0.9c-0.2-0.3-0.5-0.5-0.8-0.6l-2.7-0.2h-1 M149.4,111.5
						c-0.2-2.3-0.8-4.1-1.8-5.6c-0.4-1.1-1.3-2.1-2.6-3.1c-1.5-1.1-3.2-2.2-4.9-3.1s-3.6-1.3-5.9-1.3c-1.7,0-3.2,0.2-4.6,0.7
						c-1.8,0.6-3.6,1.2-5.3,2.1c-1.7,0.8-3,1.9-4,3.4c-1,1.4-1.6,3.1-1.9,5.2c-0.3,1.9-0.4,4-0.4,6.3c0,1.9,0.4,3.5,1.2,4.9
						c-2.1-0.1-3.1,1.2-2.9,4c0.2,2.1,0.7,4,1.5,5.7c1.1,2.2,2.2,2.5,3.3,1c0.7,1.5,1.3,3.1,1.8,5l1.5,5.8c0.5,1.9,0.9,3.9,1.3,5.9
						l0.3,1.3c-0.3,0.6-0.8,0.9-1.6,1.2c-1.2,2.4-2.7,4.1-4.4,5.2c-1.6,1-3.1,2.3-4.4,3.6c-1.5,1.6-3,3-4.6,4.3
						c-1.3,1-2.2,2.3-2.9,3.9c-0.4,1-0.7,2-0.8,3.1c-0.2,2.3,0.1,4.4,0.9,6.5l2.2,5.5c0.2,2.2,1,3.9,2.4,5.1c0.6,0.5,1,1.3,1.3,2.3
						c0.5,2.2,1.4,4,2.8,5.6s2.7,3.3,3.8,5c0.6,1,1.4,1.9,2.2,2.5c0.6,0.4,0.5,1.1-0.2,1.9c-1.6,1.8-1.6,3.5,0,5.3
						c1.1,1.2,1.3,2.6,0.6,4.2c0.7,2.4,0.7,4.7-0.1,6.9c-0.9,2.4-0.5,4.2,1.3,5.5c0.4,2,0.2,3.3-0.7,4.1c0,1.1,0,2.5,0.3,4.1
						c0,0.2-0.1,0.5-0.3,1c-0.8,1.7-1.4,3.5-1.9,5.2c-0.6,1.9,0.2,3,2.4,3.3c0.1,1.8-0.7,3.1-2.3,3.9c-1.6,0.7-3.1,1.7-4.5,2.8
						c-0.9,0.7-0.9,1.6-0.1,2.7c0.4,0.5,0.4,1.3,0,2.2s-0.4,1.8,0.2,2.7l2.7,3.9c0.3,0.4,0.4,0.8,0.4,1.3c0.3,1.5,1.1,2.5,2.5,2.9
						c0.3,0.1,0.6,0.3,0.9,0.6c1.5,1.4,3.3,1.5,5.6,0.4c1.2-0.6,1.9-1.5,2.3-2.6c0.5-1.4,0.2-1.9-0.9-1.5c-0.1-1.4,0.2-2.7,1-3.8
						l0.8-0.9c1.3-1.1,2.2-2.6,2.6-4.4c0.3-1.2,0.2-2.1-0.4-2.9c2.6,0.2,4.2-1,4.6-3.6c0.2-1.4,1.1-1.7,2.7-1
						c0.9,0.3,1.6,0.7,2.1,1.1c0.3,0.3,0.4,0.7,0.3,1.1c-0.3,1.5-1.2,2.9-2.6,4.1c-1,0.8-1.3,1.6-1,2.4c0.1,0.3,0,0.8-0.3,1.2
						c-0.9,1.2-1.2,2.2-0.8,3.2l-0.4,1.6c2.2,1,2.6,2.7,1.2,4.9c-0.8,1.3-1.4,2.6-1.9,4.1c-0.4,1.2-0.7,1.5-0.9,1
						c0,2.4-0.3,4.7-0.7,6.8c-0.2,1.1-0.8,2.2-1.8,3.1c-1.4,1.4-2.4,2.9-3,4.5c-0.7,2.1-1.6,3.9-2.6,5.5s-1.9,3.4-2.8,5.5
						c-0.5,1.2-0.9,2.5-1,4c-0.1,0.7,0.2,1.4,0.7,1.9c1.1,1,2.3,1.8,3.6,2.4c0.9,0.4,1.7,1,2.4,1.8c0.4,0.4,0.9,0.6,1.6,0.6
						c0.8-0.1,1.4-0.3,1.7-0.8c0.2,0.7,0.2,1.7,0.1,3.1c-0.1,2.3-0.5,4.4-1.2,6.5c-0.6,2-0.7,4-0.2,6.1l0.6,2.3
						c-0.9,1.7-1.1,3.8-0.5,6.1c0.3,0.9,0.2,1.7-0.2,2.3c-0.7,1.3-0.8,2.6-0.2,3.8c0.5,1.1,0.6,2.4,0.1,3.7l-1.1,2.2
						c-0.3,0.5-0.4,1-0.5,1.5l88.5-93.2c-0.6-1-1.2-2.1-1.6-3.1c-0.8-1.9-1.5-3.7-2-5.2c-0.4,0-0.7-0.5-0.9-1.6
						c-0.4-2.2-1.5-3.8-3.1-5c-0.8-0.6-1.5-1.3-2-2.2l-0.7-0.9c-1.2-1.5-2.8-2.6-4.8-3.3c-2.3-0.8-3.9-1.5-5-2.1l2.9-2.5l4.9-4
						c1.5-1.2,2.6-2.8,3.3-4.8c0.3-1,0.9-1.6,1.6-2.1c2-1.1,2.8-2.7,2.3-4.8c-0.2-0.7-0.2-1.2-0.1-1.7c0.3-1.1,0.3-2.2-0.1-3
						c-0.6-1.5-1.2-2.9-2-4.2c-1-1.8-2-3.4-3-4.7c-0.7-1-1.8-2-3.1-3.1c-1.6-1.2-2.9-2.6-3.9-4.2c-1-1.6-2.1-3-3.4-4.2
						c-1.5-1.5-2.4-3.2-2.8-5c-0.1-1.8-0.4-3.8-0.8-5.8c-0.4-2.1-1.1-3.9-2.2-5.7c-0.9-1.6-2-3.1-3.3-4.7c-0.7-0.8-1.1-1.7-1.3-2.6
						c-0.4-2.2-1.2-4-2.4-5.2l-3.5-3.8c-0.4-0.8-1.1-1.7-2-2.8c-1-1.2-2.4-2.5-4.1-3.9c-1.5-1.3-3.1-2.4-4.7-3.4l-4.3-2.7
						c-1.9-0.6-4-1-6.3-1.2c-1.1-0.1-2.2-0.4-3.2-0.8c-1.1-0.4-2-0.5-2.7-0.3c-1.9,0.7-3.8,0.7-5.7,0c-0.9-0.3-1.4-0.7-1.3-1
						c-0.6-2.1-1-3.8-1-5.2l1.3-0.4c0.6-1.9,1-4,1.2-6.3c0.3-2.8-0.5-4.5-2.6-4.9c0.2-0.3,0.3-0.8,0.2-1.2L149.4,111.5 M262.3,135.8
						c5-5,7.5-11,7.5-18.1s-2.5-13.1-7.5-18c-5-5-11-7.5-18-7.5s-13.1,2.5-18,7.5c-5,5-7.5,11-7.5,18s2.5,13.1,7.5,18.1
						s11,7.5,18,7.5C251.3,143.3,257.3,140.8,262.3,135.8z"/>
					<path class="st1" d="M190.9,377.8l1.1-3.2h5.8c2.2,0,3.2,0.4,2.9,1.1l-1.6,4.7h-31.8l-3.1,9.3c-1,3,2.3,4.5,9.9,4.5h43.2
						l6.3-18.5c1-3-2.3-4.4-9.9-4.4h-43.3l-2.2,6.5H190.9 M188.9,383.7h9.1l-2.4,7.2h-5.8c-2.2,0-3.1-0.4-2.9-1.2L188.9,383.7
						 M385.1,406c-1.8-1-3.7-1.5-5.7-1.5s-3.8,0.5-5.7,1.5c-1.8,1-3.2,2.4-4.3,4.2c-1,1.8-1.6,3.8-1.6,5.8s0.5,3.9,1.5,5.7
						c1,1.8,2.4,3.2,4.3,4.3c1.8,1,3.7,1.5,5.7,1.5s3.9-0.5,5.7-1.5c1.8-1,3.2-2.4,4.3-4.3c1-1.8,1.5-3.7,1.5-5.7s-0.5-3.9-1.5-5.8
						C388.3,408.4,386.9,407,385.1,406 M371.4,411.4c0.8-1.5,2-2.6,3.4-3.4s3-1.2,4.5-1.2c1.6,0,3.1,0.4,4.5,1.2
						c1.5,0.8,2.6,1.9,3.5,3.4c0.8,1.5,1.2,3,1.2,4.7c0,1.6-0.4,3.2-1.2,4.6c-0.8,1.5-1.9,2.6-3.4,3.4s-3,1.2-4.6,1.2
						s-3.1-0.4-4.6-1.2c-1.5-0.8-2.6-2-3.4-3.4s-1.3-3-1.3-4.6C370.1,414.4,370.6,412.9,371.4,411.4 M376.7,410h-2.5v12.2h2.5v-5
						h0.6c0.7,0,1.3,0.2,1.7,0.5c0.4,0.3,1,1.2,1.7,2.5l1,2h3.1l-1.4-2.5l-0.9-1.5l-0.8-0.9l-0.8-0.5c1-0.2,1.8-0.6,2.4-1.2
						s0.9-1.4,0.9-2.2c0-0.7-0.2-1.2-0.5-1.7s-0.7-0.9-1.2-1.2c-0.5-0.3-1.1-0.4-1.9-0.5L376.7,410 M376.7,415.2v-3.3h1l2.7,0.2
						c0.4,0.1,0.7,0.3,0.8,0.6c0.2,0.3,0.3,0.6,0.3,0.9s-0.1,0.7-0.3,0.9l-0.8,0.6l-2.7,0.2h-1 M337.1,374.5c2.2,0,3.2,0.4,2.9,1.2
						l-6.3,18.5h22.9l6.3-18.5c1-3-2.3-4.4-9.9-4.4h-43.4l-7.8,22.9h11.6c7.6,0,11.9-1.5,12.9-4.4l5.1-15.3L337.1,374.5
						 M261.6,375.7c0.3-0.8,1.5-1.2,3.7-1.2h5.6l-1.3,3.8h22.8l2.3-7.1h-43.2c-7.6,0-11.9,1.5-12.9,4.4l-2.9,8.4h31.7l-1.8,5.4
						c-0.3,1-2.1,1.5-5.3,1.5h-4.1l1.5-4.5H235l-2.6,7.8h43.1l7.3-0.6c3.1-0.7,5.1-2.2,5.9-4.4l2.9-8.5h-31.7L261.6,375.7
						 M276.4,305.4c-1.7,1.4-2.5,3-2.4,5c-0.4,1.5-1.6,2.5-3.5,3l-2.3-0.2c-0.9-0.5-2.1-0.7-3.5-0.8l-7.8-0.8
						c-2.5-0.3-5.1-0.3-7.8,0c-2.5,0.3-4.6,1.1-6.1,2.5c-1.7,1.5-2.6,2.9-2.6,4.2c-0.7-0.4-1.2-1-1.6-1.8c-0.8-1.8-1.4-3.8-1.7-6.1
						c-0.3-2.2-0.7-4.1-1.3-5.8c0.8-0.5,1.9-1.5,3.3-3c-0.7-1.4-1.2-3.1-1.5-5.1c-0.3-1.8-0.7-3.4-1.2-4.8l-0.4-1.5
						c-0.4-2.2-1.2-4.3-2.1-6.2c-0.9-1.8-1.6-3.6-2.1-5.4c-0.2-1.3-0.5-2.6-1-3.8c-0.7-1.9-1.6-3.7-2.7-5.6
						c-0.9-1.6-1.9-3.1-2.8-4.5c-1.2-1.8-1.7-3.8-1.6-6c0.1-2.5-0.5-4.6-1.6-6.3l-0.4-0.6L133,344.9c-0.1,0.7,0,1.4,0.4,2.1
						c0.3,0.4,0.3,0.9,0.2,1.5c-0.4,2.1-0.3,4.2,0.3,6.3c0.2,0.7,0.3,1.2,0.2,1.4c-0.3,1.8-0.4,3.9-0.2,6.3c0.1,2.3,0.5,4.4,1,6.5
						c0.5,1.9,0.9,4.1,1.1,6.4l0.5,3c0.5,2.2,0.8,4.4,1,6.6c0.2,2.3,0.3,4.5,0.5,6.8c0.1,1.9,0.7,3.4,1.7,4.5c0.4,0.4,0.4,1,0.1,1.8
						l-0.6,1.4c-0.9,1.2-2.5,2-4.7,2.4c-2.1,0.4-4.2,0.2-6.2-0.4l-2.5-0.9c-0.8-0.3-1.7-0.4-2.9-0.5c-2.5-0.2-4.3,0.3-5.6,1.5
						c-1.6,1.5-1.9,3.3-1,5.4c0.5,1.3,1,2.5,1.3,3.6l0.3,1.2c0.1,0.9,0.8,1.5,2.1,2l1,0.6c0.7,0.6,1,1.5,0.9,2.7
						c0,0.7,0.3,1,1.1,0.6c1.8-0.7,3.3-0.3,4.7,1.3c0.1,0,0.7,0.4,1.7,1.2c0.5,0.4,0.9,0.4,1.3,0.1c1.5-1.3,3.4-1.6,5.7-0.8l3.8,1.3
						l2.9,0.9c1.9,0.6,3.3,1.8,4.2,3.5c0.5,1,1.5,1.2,2.8,0.9c2.1-0.5,4.1-1.2,6-1.9c0.9,0.3,1.6,0,2-0.8c0,0.7,0.5,0.5,1.6-0.5
						c1.4-1.2,2.2-3,2.2-5.4c0.1-2.3-0.3-4.4-1-6.4c-0.7-1.9-1.6-3.8-2.4-5.5l-1.1-1.9l-0.1-2.3c-0.2-2.1-0.6-4.3-1.2-6.4
						c-0.5-2.1-0.7-4.3-0.6-6.5l0.5-6.6c0.1-2.3,0.5-4.4,1-6.4c0.5-1.9,0.8-4,1-6.2c0.2-2.3,0.5-4.4,0.9-6.5l0.2-7
						c0.2-1.6,0.4-3.6,0.6-5.9c0.1-1.2,0-2.2-0.3-3.2c-0.4-1.2-0.7-2.9-0.8-4.9c1.3-1.4,1.1-2.7-0.5-3.8c0.3-0.8,0.4-1.8,0.4-3.1
						c-0.3-1.9,0.1-3.6,1.3-5c1.2-1.5,2.2-3.3,2.8-5.6c0.4-2,1.2-3.8,2.5-5.5s1.8-3.6,1.6-5.8l2.8,0.2c2.1,0.5,4.2,0.1,6.1-1.1
						l2.4-1.7l4.3-3.2l4.8-3.5c0.9-0.6,1.8-0.9,2.9-1l6.5,0.2c1.4,0.2,2.3,0.2,2.6,0l1.3,0.8c1.7,1,2.9,2.4,3.6,4.3
						c0.2,0.6,0.6,1.1,1.2,1.5c1.4,1,2.6,2.6,3.3,4.8c0.7,2,1.9,3.7,3.6,5c1.6,1.3,2.9,2.6,3.9,4.2l0.6,1l1.9,5.7
						c0.6,1.9,1.7,3.6,3.4,5c1.5,1.4,3.1,2.4,4.6,3.3c1.7,0.9,3.3,1.9,4.8,2.9c1.6,1.1,3.3,1.4,5.3,1c1.9-0.3,2.9-0.7,3.1-1.2
						c-0.2,0.7,0.4,0.8,1.8,0.5c2.1-0.5,3.9-1.1,5.5-1.7c2.3-0.5,4.4-1.2,6.3-2.2c1.9-1,4-1.6,6.2-1.9c2.2-0.3,4.3-0.8,6.2-1.5
						c2-0.8,4-1.5,6.1-2.1c2.2-0.6,4.3-0.8,6.4-0.5c0.7,0.1,1.1,0.1,1.2,0c1.6,1.1,3,2.5,4,4.3c1.1,1.8,2.1,3.4,3.1,4.8
						c0.8,1.1,1.3,2.5,1.5,4.1v0.2l0.2,0.7l0.8,1.9c0.7,1.7,1.9,3,3.5,3.8c0.8,0.4,1.8,0.5,2.9,0.2c2-0.5,3.5-1.7,4.5-3.5
						c1.1-1.9,1.8-4,2-6.2c0.2-2.1,0.2-4.4-0.1-6.6c-0.3-2.3-0.9-4.3-1.9-6.3L297,324c-1.1-1.7-1.6-3.4-1.7-4.9l-0.6-1.3
						c-0.7-1.8-1.6-3.6-2.8-5.3c-0.7-1-1.2-2.1-1.5-3.3c-0.4-1.6-1.4-2.8-3-3.8c-1.5-1-3.3-1.6-5.3-1.6
						C279.8,303.5,277.9,304.1,276.4,305.4 M405.3,363.9H394c-7.6,0-11.9,1.5-12.9,4.4l-8.8,25.9H400l1.1-3.3h-2.3
						c-1.8,0-2.6-0.4-2.3-1.3L405.3,363.9 M403.6,58.5l-1-1l-18.7-7.2H115.3c-7.7,0-14.3,2.7-19.8,8.2s-8.2,12.1-8.2,19.8V393
						l237.8-250.4h86.7l0,0V78.3C411.8,70.6,409.1,64,403.6,58.5 M269.8,117.8c0,7-2.5,13.1-7.5,18.1s-11,7.5-18,7.5
						s-13.1-2.5-18-7.5c-5-5-7.5-11-7.5-18.1s2.5-13.1,7.5-18c5-5,11-7.5,18-7.5s13.1,2.5,18,7.5
						C267.3,104.7,269.8,110.7,269.8,117.8 M147.6,105.9c1,1.5,1.6,3.3,1.8,5.6l0.4,6.3c0,0.5-0.1,0.9-0.2,1.2
						c2,0.4,2.9,2.1,2.6,4.9c-0.2,2.3-0.6,4.4-1.2,6.3l-1.3,0.4c0,1.4,0.3,3.2,1,5.2c-0.1,0.3,0.4,0.7,1.3,1c1.9,0.7,3.8,0.7,5.7,0
						c0.7-0.3,1.6-0.2,2.7,0.3c1,0.4,2.1,0.7,3.2,0.8c2.3,0.2,4.3,0.6,6.3,1.2l4.3,2.7c1.6,1,3.2,2.1,4.7,3.4c1.7,1.4,3,2.7,4.1,3.9
						c0.9,1,1.5,2,2,2.8l3.5,3.8c1.2,1.2,2,3,2.4,5.2c0.2,1,0.6,1.8,1.3,2.6c1.3,1.5,2.4,3.1,3.3,4.7c1,1.7,1.7,3.6,2.2,5.7
						c0.4,2,0.7,4,0.8,5.8c0.4,1.8,1.4,3.5,2.8,5c1.2,1.2,2.3,2.6,3.4,4.2c1,1.5,2.3,2.9,3.9,4.2c1.3,1.1,2.4,2.1,3.1,3.1
						c1,1.4,2,2.9,3,4.7c0.7,1.3,1.4,2.7,2,4.2c0.3,0.9,0.3,1.9,0.1,3c-0.1,0.5-0.1,1.1,0.1,1.7c0.5,2.1-0.3,3.7-2.3,4.8
						c-0.7,0.4-1.2,1.1-1.6,2.1c-0.7,2-1.8,3.5-3.3,4.8l-4.9,4l-2.9,2.5c1,0.6,2.7,1.2,5,2.1c2,0.7,3.6,1.8,4.8,3.3l0.7,0.9
						c0.5,0.9,1.2,1.7,2,2.2c1.6,1.2,2.6,2.9,3.1,5c0.2,1.1,0.5,1.7,0.9,1.6c0.5,1.6,1.1,3.3,2,5.2c0.5,1.1,1,2.1,1.6,3.1l-89,93.4
						c0-0.5,0.2-1,0.5-1.5l1.1-2.2c0.5-1.3,0.5-2.5-0.1-3.7c-0.6-1.3-0.5-2.6,0.2-3.8c0.4-0.6,0.4-1.4,0.2-2.3
						c-0.6-2.3-0.5-4.3,0.5-6.1l-0.6-2.3c-0.4-2.1-0.4-4.2,0.2-6.1c0.7-2.1,1-4.2,1.2-6.5c0.1-1.4,0.1-2.5-0.1-3.1
						c-0.4,0.5-1,0.7-1.7,0.8c-0.7,0.1-1.2-0.1-1.6-0.6c-0.7-0.8-1.6-1.4-2.4-1.8c-1.4-0.6-2.6-1.4-3.6-2.4
						c-0.6-0.5-0.8-1.2-0.7-1.9c0.1-1.4,0.5-2.8,1-4c0.9-2.1,1.8-3.9,2.8-5.5s1.9-3.5,2.6-5.5c0.6-1.7,1.6-3.2,3-4.5
						c1-1,1.6-2,1.8-3.1c0.4-2.1,0.7-4.4,0.7-6.8c0.2,0.6,0.5,0.2,0.9-1c0.5-1.4,1.1-2.8,1.9-4.1c1.4-2.2,1-3.9-1.2-4.9l0.4-1.6
						c-0.4-1-0.1-2,0.8-3.2c0.3-0.5,0.4-0.9,0.3-1.2c-0.3-0.8,0-1.6,1-2.4c1.4-1.2,2.3-2.5,2.6-4.1c0.1-0.5,0-0.8-0.3-1.1
						c-0.4-0.4-1.1-0.7-2.1-1.1c-1.6-0.7-2.5-0.3-2.7,1c-0.4,2.6-1.9,3.8-4.6,3.6c0.5,0.8,0.7,1.8,0.4,2.9c-0.4,1.8-1.3,3.3-2.6,4.4
						L132,260c-0.8,1.1-1.1,2.3-1,3.8c1.1-0.4,1.4,0.1,0.9,1.5c-0.4,1.1-1.2,1.9-2.3,2.6c-2.2,1.1-4.1,1-5.6-0.4
						c-0.3-0.3-0.6-0.5-0.9-0.6c-1.4-0.4-2.2-1.4-2.5-2.9c0-0.5-0.1-1-0.4-1.3l-2.7-3.9c-0.6-0.9-0.7-1.7-0.2-2.7
						c0.5-0.9,0.5-1.7,0-2.2c-0.8-1-0.8-1.9,0.1-2.7c1.4-1.1,2.9-2.1,4.5-2.8c1.7-0.8,2.4-2.1,2.3-3.9c-2.2-0.3-3-1.4-2.4-3.3
						c0.5-1.7,1.2-3.5,1.9-5.2c0.2-0.5,0.3-0.8,0.3-1c-0.2-1.6-0.3-3-0.3-4.1c0.8-0.7,1.1-2.1,0.7-4.1c-1.7-1.3-2.2-3.1-1.3-5.5
						c0.8-2.2,0.8-4.5,0.1-6.9c0.7-1.6,0.5-2.9-0.6-4.2c-1.6-1.8-1.6-3.5,0-5.3c0.7-0.8,0.8-1.4,0.2-1.9c-0.8-0.6-1.6-1.5-2.2-2.5
						c-1.1-1.7-2.4-3.4-3.8-5s-2.3-3.4-2.8-5.6c-0.2-1-0.6-1.8-1.3-2.3c-1.4-1.2-2.2-2.9-2.4-5.1l-2.2-5.5c-0.8-2-1.1-4.2-0.9-6.5
						c0.1-1.1,0.4-2.2,0.8-3.1c0.7-1.6,1.6-2.9,2.9-3.9c1.5-1.3,3.1-2.7,4.6-4.3c1.4-1.4,2.8-2.6,4.4-3.6c1.7-1.1,3.2-2.9,4.4-5.2
						c0.8-0.2,1.4-0.6,1.6-1.2l-0.3-1.3c-0.4-2-0.8-3.9-1.3-5.9l-1.5-5.8c-0.5-1.8-1.1-3.5-1.8-5c-1.1,1.5-2.2,1.2-3.3-1
						c-0.9-1.7-1.4-3.5-1.5-5.7c-0.2-2.8,0.8-4.1,2.9-4c-0.8-1.4-1.2-3-1.2-4.9c0-2.3,0.1-4.4,0.4-6.3c0.3-2.1,0.9-3.8,1.9-5.2
						c1-1.4,2.4-2.6,4-3.4c1.7-0.8,3.5-1.5,5.3-2.1c1.4-0.4,2.9-0.7,4.6-0.7c2.3,0,4.3,0.4,5.9,1.3c1.8,1,3.4,2,4.9,3.1
						C146.3,103.8,147.2,104.8,147.6,105.9z"/>
				</g>
			</g>
		</g>
		<g transform="matrix( 1, 0, 0, 1, 0,0) ">
			<g>
				<path id="Shapes_Shape_59_0_Layer0_0_1_STROKES_1_" class="st2" d="M383.8,50.3H115.3c-7.7,0-14.3,2.7-19.8,8.2
					s-8.2,12.1-8.2,19.8v344c0,7.7,2.7,14.3,8.2,19.8s12.1,8.2,19.8,8.2h268.5c7.7,0,14.3-2.7,19.8-8.2s8.2-12,8.2-19.8v-344
					c0-7.7-2.7-14.3-8.2-19.8C398.1,53,391.5,50.3,383.8,50.3z"/>
			</g>
		</g>
	</g>
</g>
</svg>
