<?xml version="1.0" encoding="utf-8"?>
<!-- Generator: Adobe Illustrator 24.1.2, SVG Export Plug-In . SVG Version: 6.00 Build 0)  -->
<svg version="1.1" id="Layer_1" xmlns="http://www.w3.org/2000/svg" xmlns:xlink="http://www.w3.org/1999/xlink" x="0px" y="0px"
	 viewBox="0 0 500 500" style="enable-background:new 0 0 500 500;" xml:space="preserve">
<style type="text/css">
	.st0{clip-path:url(#SVGID_2_);fill:#640D0D;}
	.st1{fill:#640D0D;}
</style>
<g id="CoaCoSeal">
	<g>
		<g>
			<g>
				<g>
					<defs>
						<circle id="SVGID_1_" cx="249.5" cy="250.3" r="210"/>
					</defs>
					<clipPath id="SVGID_2_">
						<use xlink:href="#SVGID_1_"  style="overflow:visible;"/>
					</clipPath>
					<circle class="st0" cx="249.5" cy="250.3" r="95"/>
				</g>
			</g>
		</g>
		<g>
			<path class="st1" d="M70.5,208.6c0.9-4.2,2.5-8.2,4.8-12c2.4-3.8,5.2-5.3,8.6-4.6c1.6,0.3,2.8,1.1,3.7,2.3
				c0.9,1.2,1.3,2.6,0.9,4.2c-0.2,0.9-1.1,2.6-2.6,4.9c-1.5,2.6-2.6,5.1-3.1,7.6c-1,5.1,0,9.4,3.2,13.1c3.1,3.7,7.5,6.1,13.1,7.2
				c5.3,1.1,10.2,0.6,14.4-1.6c4.3-2.2,6.9-5.8,8-10.8c0.5-2.3,0.4-5.3-0.1-8.9l-0.8-5.5c0.4-1.8,1.3-3,2.8-3.8
				c1.5-0.7,2.9-1,4.2-0.7c3.7,0.8,5.9,3.4,6.6,7.9s0.6,9.1-0.3,13.5c-1.8,8.7-6.3,15.3-13.4,19.6c-7.2,4.3-15.3,5.5-24.4,3.7
				c-9.1-1.9-16.1-6.2-21-12.9C70.2,225.2,68.7,217.4,70.5,208.6z"/>
			<path class="st1" d="M142.6,152.2c5.7,3.8,9.3,8.7,10.9,14.8c1.6,6.1,0.6,12-3.1,17.6c-3.7,5.6-8.7,8.9-15,9.8
				c-6.3,0.9-12.2-0.5-17.9-4.3c-5.5-3.7-9.1-8.7-10.8-15c-1.7-6.3-0.7-12.2,2.9-17.6c3.6-5.5,8.6-8.7,15-9.6
				C130.9,147.1,136.9,148.5,142.6,152.2z M124.4,179.6c2.8,1.8,5.7,2.8,8.8,2.8c3.1,0,5.6-1.4,7.4-4.1c1.8-2.7,2.1-5.5,0.9-8.3
				c-1.2-2.9-3.2-5.2-6-7.1c-2.8-1.8-5.8-2.8-8.9-2.8c-3.2,0-5.6,1.3-7.4,4s-2.1,5.6-0.9,8.4C119.5,175.4,121.6,177.7,124.4,179.6z"
				/>
			<path class="st1" d="M175.3,107.9l18.1,25.6c1.4,2,2.3,3.8,2.6,5.4c0.3,1.7-0.6,3.3-2.8,4.8c-1.4,1-2.7,1.4-4,1.2s-2.6-0.9-4-2
				c-0.4,5.1-2.5,9-6.4,11.8c-4.9,3.5-10.3,4.5-16.2,3.1s-10.9-5-15-10.9c-4-5.7-5.8-11.6-5.2-17.8s3.3-11,8.1-14.4
				c2-1.4,4.2-2.4,6.4-2.8c2.3-0.4,4.5-0.2,6.8,0.6c-0.7-1.3-0.9-2.8-0.5-4.3s1.2-2.7,2.4-3.6c2.2-1.5,4-1.9,5.4-1
				C172.5,104.5,173.9,106,175.3,107.9z M173.5,144.2c2.5-1.8,3.8-4.2,3.7-7.3s-1.1-6-3.1-8.7c-1.9-2.7-4.3-4.6-7.3-5.8
				c-2.9-1.2-5.7-0.9-8.2,0.9c-2.7,1.9-4,4.4-3.9,7.5c0.1,3.1,1.1,6.1,3.1,8.9c1.9,2.7,4.4,4.6,7.3,5.8
				C168,146.5,170.8,146.1,173.5,144.2z"/>
			<path class="st1" d="M212.8,70.2c4.2-1,8.5-1.2,12.9-0.6s7,2.6,7.8,5.9c0.4,1.5,0.2,3-0.6,4.4c-0.7,1.4-1.9,2.2-3.4,2.6
				c-0.9,0.2-2.8,0.1-5.6-0.3c-3-0.3-5.7-0.2-8.2,0.4c-5,1.2-8.6,3.9-10.6,8.3s-2.4,9.4-1.1,14.9c1.2,5.3,3.7,9.5,7.4,12.5
				s8.1,3.9,13.2,2.7c2.3-0.5,5-1.8,8.1-3.8l4.7-3c1.8-0.4,3.3-0.1,4.6,1s2.1,2.3,2.4,3.5c0.8,3.7-0.7,6.7-4.5,9.3
				c-3.8,2.5-8,4.3-12.5,5.3c-8.7,2-16.5,0.6-23.4-4.1c-6.9-4.7-11.4-11.6-13.5-20.7c-2.1-9-1.1-17.2,3-24.5
				C197.6,76.8,204.1,72.2,212.8,70.2z"/>
			<path class="st1" d="M294,112.1c-1,6.7-4,12.1-8.9,16.1s-10.7,5.5-17.3,4.5c-6.7-1-11.7-4.2-15.2-9.5c-3.5-5.3-4.7-11.3-3.6-18.1
				c1-6.6,4-11.9,9.1-16.1c5-4.2,10.8-5.7,17.2-4.7c6.5,1,11.5,4.2,15,9.6C293.8,99.4,295,105.4,294,112.1z M261.5,107.1
				c-0.5,3.3-0.1,6.4,1.2,9.2c1.3,2.8,3.6,4.5,6.8,5c3.2,0.5,5.8-0.4,7.9-2.7c2.1-2.3,3.4-5.1,3.9-8.4s0.1-6.4-1.2-9.3
				c-1.3-2.9-3.6-4.6-6.7-5.1c-3.2-0.5-5.9,0.4-8,2.7C263.4,100.9,262.1,103.7,261.5,107.1z"/>
			<path class="st1" d="M350.5,106.3c-0.9,1.6-2.1,2.7-3.7,3.2c-1.6,0.6-3.1,0.4-4.6-0.4c-0.9-0.5-2.2-1.8-4-3.8s-3.4-3.5-4.9-4.3
				c-1.8-1-3.6-1.5-5.3-1.3c-1.7,0.2-3,1.1-3.9,2.7c-1.1,2,0.6,5.3,5.1,10.1c4.5,4.7,7.8,9,9.7,12.8c2,3.8,1.3,8.6-1.9,14.3
				c-3,5.4-7.3,8.6-12.9,9.7c-5.6,1.1-11.2,0.1-16.7-3c-4.6-2.6-8.5-5.6-11.7-9.1s-3.9-6.8-2.1-10c0.9-1.6,2.1-2.6,3.6-3.1
				s3.1-0.3,4.6,0.6c0.9,0.5,2.7,2.2,5.3,4.9c2.6,2.8,4.6,4.6,6,5.4c2.5,1.4,4.8,1.9,6.8,1.5s3.6-1.7,4.7-3.6
				c1.4-2.4-0.3-6.1-4.9-11s-8-9-10-12.3s-1.6-7.5,1.3-12.6c2.9-5.2,7.2-8.4,12.7-9.5s10.9-0.2,16.2,2.8c3.2,1.8,6.1,4.3,8.9,7.4
				C351.4,100.8,352,103.7,350.5,106.3z"/>
			<path class="st1" d="M366.6,173L349,152.4c-2,2.3-2.9,4.8-2.6,7.5s1.4,5.2,3.5,7.6c1.3,1.5,3.8,3.2,7.5,4.9l5.7,2.7
				c0.9,1,1.2,2.3,1,3.9c-0.2,1.5-0.8,2.8-1.8,3.6c-2.1,1.8-5.4,1.6-10-0.3c-4.6-2-8.5-4.8-11.6-8.4c-4.6-5.4-6.6-11.3-6-17.6
				s3.6-11.8,9-16.4c5-4.3,10.8-6.4,17.4-6.3c6.5,0.1,11.9,2.7,16.1,7.6c4.3,5,6,10.7,5.1,17.1c-0.9,6.4-3.5,11.5-7.8,15.2
				C371.6,176,369,175.8,366.6,173z M355.2,146.7l13.2,15.4c2-2.1,3.1-4.4,3.3-6.9c0.2-2.5-0.6-4.8-2.5-7.1c-1.8-2.1-4-3.3-6.6-3.5
				S357.5,145.1,355.2,146.7z"/>
			<path class="st1" d="M406.7,217.2l-29.5,10.5c-2.3,0.8-4.2,1.2-5.9,1c-1.7-0.1-3-1.4-3.9-4c-0.6-1.6-0.6-3,0-4.2
				c0.5-1.2,1.6-2.3,3.1-3.3c-4.8-1.7-8-4.8-9.6-9.4c-2-5.7-1.6-11.2,1.4-16.5c2.9-5.3,7.8-9.1,14.5-11.5c6.6-2.3,12.8-2.4,18.5-0.2
				c5.8,2.2,9.7,6.2,11.7,11.7c0.8,2.3,1.1,4.6,0.9,7c-0.2,2.3-1,4.4-2.4,6.4c1.5-0.3,2.9-0.1,4.2,0.6c1.3,0.8,2.3,1.9,2.8,3.3
				c0.9,2.5,0.7,4.3-0.5,5.5C410.7,215.4,409,216.4,406.7,217.2z M372.3,205.7c1,2.9,3.1,4.8,6.1,5.5s6.1,0.5,9.2-0.6
				s5.6-2.9,7.6-5.4c1.9-2.5,2.4-5.2,1.4-8.1c-1.1-3.1-3.2-5-6.2-5.8s-6.2-0.6-9.4,0.6c-3.2,1.1-5.7,2.9-7.5,5.4
				C371.6,199.8,371.2,202.6,372.3,205.7z"/>
			<path class="st1" d="M375.1,233.6l54-4.4c2-0.2,3.8,0.3,5.2,1.3c1.4,1,2.2,2.5,2.3,4.4c0.2,1.9-0.4,3.5-1.6,4.8
				c-1.2,1.2-2.9,2-4.9,2.1l-54,4.4c-2,0.2-3.8-0.3-5.2-1.3c-1.4-1-2.2-2.5-2.3-4.4c-0.2-1.9,0.4-3.5,1.6-4.8
				C371.4,234.5,373.1,233.8,375.1,233.6z"/>
		</g>
	</g>
</g>
</svg>
