<?xml version="1.0" encoding="utf-8"?>
<!-- Generator: Adobe Illustrator 24.1.2, SVG Export Plug-In . SVG Version: 6.00 Build 0)  -->
<svg version="1.1" id="Layer_1" xmlns="http://www.w3.org/2000/svg" xmlns:xlink="http://www.w3.org/1999/xlink" x="0px" y="0px"
	 viewBox="0 0 500 500" style="enable-background:new 0 0 500 500;" xml:space="preserve">
<style type="text/css">
	.st0{fill:#009A67;}
	.st1{fill:#FFFFFF;}
	.st2{fill:none;stroke:#009A67;stroke-width:10.3788;stroke-linecap:round;stroke-linejoin:round;}
	.st3{fill:#009A67;stroke:#009A67;stroke-width:1.0379;stroke-miterlimit:10;}
	.st4{fill:none;stroke:#009A67;stroke-width:2.0758;stroke-linecap:round;stroke-linejoin:round;}
</style>
<g id="Super5League">
	<g>
		<g transform="matrix( 1, 0, 0, 1, 0,0) ">
			<g transform="matrix( 1, 0, 0, 1, 0,0) ">
				<g>
					<g id="Shapes_Shape_71_0_Layer14_0_FILL">
						<path class="st0" d="M422.2,408.8V294.9H76.9v113.9c0,11.5,4,21.2,12.1,29.3c8.1,8.1,17.9,12.2,29.4,12.2h262.2
							c11.5,0,21.2-4.1,29.3-12.2C418.1,430,422.2,420.2,422.2,408.8z"/>
						<path class="st1" d="M410,62.4c-8.1-8.1-17.9-12.1-29.3-12.1H118.4c-11.5,0-21.2,4-29.4,12.1c-8,8.2-12.1,18-12.1,29.4v203.1
							h345.3V91.8C422.2,80.4,418.1,70.6,410,62.4z"/>
					</g>
				</g>
				<g>
					<path id="Shapes_Shape_71_0_Layer14_0_1_STROKES" class="st2" d="M422.2,294.9V91.8c0-11.5-4.1-21.2-12.2-29.4
						c-8.1-8.1-17.9-12.1-29.3-12.1H118.4c-11.5,0-21.2,4-29.4,12.1c-8,8.2-12.1,18-12.1,29.4v203.1 M422.2,294.9v113.9
						c0,11.5-4.1,21.2-12.2,29.3c-8.1,8.1-17.9,12.2-29.3,12.2H118.4c-11.5,0-21.2-4.1-29.4-12.2c-8.1-8.1-12.1-17.9-12.1-29.3
						V294.9H422.2z"/>
				</g>
			</g>
			<g transform="matrix( 1, 0, 0, 1, 0,0) ">
				<g>
					<g id="Shapes_Shape_71_0_Layer13_0_FILL">
						<path class="st3" d="M150.5,244.4l0.7,0.3c7.8,3,16.2,4.5,25.3,4.5l32-7.6l0.9-0.5c-5.2,1.8-10.8,2.4-16.7,2
							c2.4-5.5,3.8-10.9,4.4-16.1c-2.3,4.2-9,8.9-20.1,14.1c-9.8-2.7-17.6-6.8-23.6-12.5c2,5.6,5.2,11,9.8,16.3L150.5,244.4
							 M209.5,241.1l-0.9,0.5l1.1-0.6L209.5,241.1 M234.1,218.6c2.7-3.9,4.9-8,6.6-12.3c-2.7,1.5-5.5,2.1-8.6,1.9
							C234.5,210.7,235.2,214.2,234.1,218.6 M240.7,206.3L240.7,206.3c-1.8,4.3-4,8.4-6.7,12.4v0.1
							C236.8,214.7,239,210.6,240.7,206.3 M230.1,167c-7.9,5.8-13.3,9.4-16.2,10.8c-7.4-8.4-13.9-14.7-19.5-19
							c1.7,8.2,3,17.1,3.9,26.8c-9.3,5.6-17.7,9.3-25.1,11c8.8,2,17.2,4.5,25.2,7.7c1.3,8,0.9,15.6-1.2,22.8
							c3.5-2.1,9.4-8.7,18-19.9c7.1-0.2,12.8,0.2,17,1.1c-2.3-6.3-5.1-12.3-8.5-18.1C225.9,185.8,228,178.1,230.1,167 M149.2,159.8
							c-8.8,9.2-14.6,15.8-17.4,19.9c-6.4-1.8-11.6-5.7-15.7-11.7c0.8,11.6,3.1,20.2,6.7,25.9c-5.4,5.6-8.9,9.8-10.5,12.5l19,1.5
							c6.7,8.2,14.1,15.2,22.1,20.8c-2.5-6.2-4.2-13.9-5-23.1c8.9-4,17.2-7,24.8-8.9c-8.5-1.4-17.3-4.5-26.5-9.5
							C146.8,176,147.6,166.9,149.2,159.8 M137.5,130c-3.7-0.1-7.7,1-11.8,3.2l-0.5,0.5L110.1,160c1.6,3.3,3.6,5.9,6,7.9
							c-0.9-7.3-0.1-14.7,2.3-22C124.7,138,131.1,132.7,137.5,130 M225,130.8l0.4,0.4c11.9,11.9,18.6,26,20,42.2l0.1,0.5
							c-1.3-16.5-8-30.7-20-42.7L225,130.8 M225.4,131.1l-0.4-0.4c-5.7-2.3-11.6-3.1-17.8-2.3c10.1,3.7,17.9,8.9,23.4,15.5
							c1.4,9.9,1.3,17.6-0.5,23c3.2-3,6.2-6.7,9-11.1c2.7,3.4,4.7,9.2,6.2,17.5C243.9,157.1,237.3,143,225.4,131.1 M181.7,121.6
							l-9.2-10.6l-10.4,11.6c-9.4,0.9-17.6,3.4-24.6,7.4c5.8,0.4,12.2,2.1,19,5.1c-3.6,7.1-6,15.3-7.4,24.7c4-5.1,11.3-11.3,22-18.4
							c10.1,5.8,17.9,11.6,23.2,17.4c-1.5-8.5-3.8-17-7.2-25.5c7.4-3.3,14.1-4.8,20-4.7C197.1,124.4,188.6,122.1,181.7,121.6
							 M345.5,283.5c7.9-2.1,12.8-4.4,14.8-6.9c2.2-4.5,3.3-9.5,3.4-14.9c-4.9-3-10.1-5.6-15.7-7.9c-5.2,0.4-10.9,1.4-17.2,3
							c-0.6,6.2-0.4,11.5,0.6,15.8C334.7,276.9,339.4,280.6,345.5,283.5 M385.6,275.4c1.2-2.8,1.2-5.2-0.1-7.1
							c-2.7-1.1-6.3-2-11.1-2.7c-6.9,6.4-11.6,10-14.1,11c-1,3.4-2.5,6.7-4.7,10.1c3.9,1,7.6,1.2,11.3,0.6c4.1-1.4,8-3.4,11.8-6.1
							C381.3,279.3,383.5,277.4,385.6,275.4 M398.3,247.2c0-5.8-0.7-10-2.1-12.6c-2.3,2.5-4.7,4.6-7.2,6.2c-2.6,7.1-4.9,11.9-7,14.5
							c1.6,4.2,2.7,8.5,3.5,12.9l5.9-0.3c3.1-4.9,5.2-10.5,6.3-16.7L398.3,247.2 M364.7,213.7c1.2,6,1.8,11.9,1.8,17.6
							c3.1,3.4,6.7,8.3,10.6,14.7c2.1-0.6,6-2.3,11.9-5.2c1.8-3.3,2.8-8.3,3-15c-2.9-5-7.4-9.3-13.6-12.9
							C374.5,212.2,369.9,212.4,364.7,213.7 M365.9,249.4c0.6-6.4,0.8-12.4,0.6-18c-2.9-4.5-7.3-9.2-13.3-14.1
							c-7.8,3.5-13.3,6.6-16.5,9.5c-1.9,4.5-3.5,10.4-4.8,17.6c5.4,4.3,10.8,7.4,16.2,9.3C353.2,253.5,359.1,252,365.9,249.4
							 M360.3,197.8l-2.6-0.4l4.8,8c4.5,1.1,9.8,3.6,15.9,7.5c4.2,0.2,8,1.4,11.5,3.6C382.6,206.2,372.7,200,360.3,197.8
							 M315.4,246.1c-1.8-4.2-2.2-10.1-1.5-17.8c-1.3-1.6-2.3-3.5-3-5.9c-1.9,3.9-3.3,8.2-4.2,12.9c-1.1,6.2-1,12.1,0.2,17.9
							c1.2,5.8,3.7,11.3,7.4,16.6c3.7,5.4,8.2,9.6,13.3,12.8c2.5,0.9,5.2,1.5,8.1,1.8c-2.4-4-3.8-8-4.5-11.9
							c-4.6-4.6-8.6-10-12.1-16.2c-3.5-1.2-7.6-2.2-12.3-3.2C308.4,251.5,311.2,249.2,315.4,246.1 M332.5,205.8
							c-4.5,1.1-9.3,3.8-14.4,8.3c-2.5,4.5-3.8,9.3-4.1,14.2c2,4.5,5,7.6,9,9.5c2.3-2.4,6.9-6,13.8-11.1c1.9-6,4.5-11.2,7.7-15.4
							C340.2,208.6,336.3,206.8,332.5,205.8 M325.8,205.5l-1.5,1.1c3-0.9,5.7-1.2,8.2-0.7c5-1.8,10.7-2.5,17-2l8.2-6.4
							C346.1,196,335.5,198.7,325.8,205.5 M204.7,287.6c-1.2-5.5-0.6-12.9,2.1-22.2c-1.3-2.3-2.1-4.9-2.4-7.9
							c-3.3,4.4-5.9,9.4-7.9,14.9c-2.7,7.4-3.9,14.7-3.6,22c0.3,7.4,2.1,14.8,5.5,22.1c3.5,7.4,8,13.6,13.6,18.7
							c2.9,1.6,6.1,3,9.7,4c-2-5.5-3-10.7-2.9-15.6c-4.6-6.6-8.4-14.1-11.4-22.5c-4-2.2-8.9-4.4-14.4-6.6
							C194.9,292.7,198.8,290.4,204.7,287.6 M234.4,241.7c-5.8,0.3-12.3,2.7-19.5,7.1c-4,5.1-6.7,10.6-8.1,16.6
							c1.5,5.9,4.5,10.4,9,13.6c3.4-2.4,9.8-5.9,19.3-10.6c3.7-7,8-12.7,12.8-17.2C243.3,246.9,238.8,243.7,234.4,241.7
							 M253.4,334.8c3.7-5.1,6.2-10.9,7.5-17.5c-5.4-4.7-11.2-9.1-17.5-13.2c-6.5-0.7-13.8-0.7-21.9-0.1c-2,7.5-2.9,14-2.7,19.5
							c3,6.2,8,11.7,14.9,16.5C243.8,339.1,250.3,337.4,253.4,334.8 M284.6,338.8c2.1-3.2,2.6-6.1,1.5-8.7c-3-1.9-7.4-3.8-13-5.8
							c-9.9,6.3-16.5,9.8-19.8,10.5c-1.9,3.9-4.6,7.7-8,11.3c4.5,2.1,9.1,3.1,13.8,3.2c5.3-0.9,10.6-2.5,15.8-4.9
							C278.5,342.7,281.7,340.8,284.6,338.8 M270.7,280.5c-2.6-6.1-7-12.8-13.3-20.2c-10.3,2.6-17.8,5.3-22.4,8.1
							c-3.3,5.2-6.5,12.1-9.8,20.7c5.7,6.4,11.7,11.4,18,14.9c6.3,0.8,13.9,0.3,22.8-1.5C268.2,294.8,269.7,287.4,270.7,280.5
							 M296.3,297.1c2.9-3.7,5.2-9.7,6.9-17.9c-2.4-6.7-7-13-13.9-18.8c-4.6-1.8-10.3-2.4-17-2c0.2,7.6-0.4,15-1.7,22.1
							c3.1,4.9,6.4,11.7,9.9,20.4C283.2,300.7,288.5,299.4,296.3,297.1 M306.5,291c-3.4,2.6-6.8,4.6-10.2,6.1
							c-4.8,8.1-8.7,13.6-11.7,16.3c1,5.5,1.5,11,1.5,16.6c2.4,1,4.8,1.3,7.4,0.9c4.8-5.4,8.6-11.8,11.3-19.1l1.6-4.9
							C307.6,299.8,307.7,294.5,306.5,291 M270.3,237.9l-3.2-1.1c-13.9-4.3-27.5-3.3-40.9,3l-2.1,1c3.9-0.5,7.3-0.2,10.2,0.9
							c6.5-1.1,13.6-0.7,21.3,1.2l11.5-6.1l4.2,10.8c5.3,2.4,11.3,6.6,18,12.7c5.1,1.1,9.5,3.4,13.3,6.9
							C295.9,253.1,285.1,243.3,270.3,237.9 M309.1,113.7c-1.4-2.9-2.8-5.5-4.3-7.9c-2.4-1.2-5.4-2.1-9.2-2.8
							c-2.5,3.4-4.1,6.2-4.7,8.3c0.3,2.4,1.1,5.3,2.3,8.8c3.4,0.5,6.5,0.5,9.3,0C304.6,118.6,306.8,116.5,309.1,113.7 M311.2,119.5
							l-8.7,0.5c-2.1,1.5-4.4,3.3-6.7,5.6c1.3,2.8,2.7,5,4.2,6.7c2.5,1.1,5.5,1.5,8.8,1.2c2.9-2.9,4.4-5.1,4.7-6.6
							C313.2,124.3,312.5,121.8,311.2,119.5 M322.2,116.9c-1.4,0.2-3.2,0.7-5.4,1.6c-1.4,4.4-2.5,7.2-3.3,8.3
							c0.4,1.7,0.6,3.5,0.5,5.5c1.9-0.6,3.6-1.4,5-2.6c1.4-1.6,2.6-3.5,3.5-5.6c0.7-1.4,1.2-2.8,1.6-4.2
							C323.9,118.4,323.3,117.4,322.2,116.9 M318.5,99.8c-0.4,1.7-0.9,3.1-1.6,4.5c0.6,3.7,0.8,6.4,0.6,8c1.7,1.4,3.3,3,4.7,4.7
							c1-0.3,1.8-0.8,2.5-1.6c0.1-2.9-0.4-5.8-1.5-8.7l-0.8-1.9C321.1,102.2,319.7,100.6,318.5,99.8 M316.9,104.3
							c-0.1-1.9-0.9-4.3-2.5-7.2c-2.5-1.5-5.5-2.2-9-2.2c-1.9,0.6-3.8,1.9-5.7,3.7c2,2.2,3.7,4.6,5.1,7.2c2.2,0.7,5,1.9,8.3,3.7
							C313.8,108.7,315.1,107,316.9,104.3 M290.7,128.2c-1.8,0.3-3.8,0.9-6.1,1.7c2,2.2,4.4,3.9,7.3,5.3c2.9,1.4,5.9,2.1,8.9,2.2
							c1.3-0.2,2.6-0.7,4-1.2c-2-1.2-3.7-2.5-4.9-4C296.8,131.4,293.8,130,290.7,128.2 M281.4,117.5c-1-0.3-1.9-0.9-2.8-1.8
							c0.1,2.2,0.6,4.4,1.4,6.6c1.1,2.9,2.6,5.5,4.6,7.6c0.2-1.1,0.8-2.8,1.9-5.1C284.7,123.5,283,121,281.4,117.5 M283.8,103.2
							c1.7-2,4-3.7,6.9-5.1l1.9-4.8c-5.3,2.2-9.2,6-11.7,11.4l-0.4,0.8C281.5,104.4,282.6,103.6,283.8,103.2 M290.4,102.7l-6.5,0.6
							c-1.7,1.6-3,3.9-4.2,7.2c0.1,2.6,0.7,4.9,1.8,7.1c2,1.4,4,2.1,6.2,1.9c0.4-1.6,1.5-4.3,3.2-8.2
							C290.2,108.1,290,105.3,290.4,102.7 M305.4,94.9c1.8-1,3.8-1.4,5.8-1.3c-5.7-2.6-11.5-2.9-17.4-0.7l-1.2,0.5l4,2.2
							C298.9,94.9,301.8,94.7,305.4,94.9 M350.6,164c-3.6,1.6-7.4,3.8-11.4,6.6c1.2,4.5,2.7,8.2,4.5,11c3.4,2.2,7.7,3.6,12.7,4.1
							c5.1-3.5,8-6.4,8.7-8.7c0.4-3.8-0.1-7.6-1.4-11.4L350.6,164 M382.6,169.7c0.2-2.3-0.4-4-1.9-5l-8.5,0.9
							c-3.3,6.3-5.6,10.1-7.2,11.4c0.2,2.6-0.1,5.4-0.8,8.3c3-0.3,5.7-1.1,8.1-2.5c2.5-2,4.8-4.5,6.8-7.4
							C380.6,173.6,381.7,171.7,382.6,169.7 M319.9,154.9c-1.3-0.8-2.6-1.9-3.6-3.4c-0.4,3.3-0.3,6.6,0.4,10.1
							c0.8,4.7,2.4,8.9,4.7,12.6c2.4,3.8,5.6,7.1,9.5,9.9c4,2.8,8.2,4.7,12.7,5.6l6.2-0.8c-2.7-2.2-4.7-4.7-6.2-7.2
							c-4.4-2.1-8.7-4.9-12.7-8.4l-9.5,0.9c0.5-1.5,1.9-3.9,4.1-7.1C323.2,164.6,321.4,160.6,319.9,154.9 M327.2,134.3
							c-2.9,1.9-5.6,5.1-8,9.6c-0.6,3.8-0.3,7.5,0.7,11.1c2.5,2.6,5.4,4.1,8.8,4.4c1-2.2,3.3-6,6.9-11.3c-0.1-4.7,0.4-9,1.5-12.9
							C333.4,134.2,330.1,133.9,327.2,134.3 M384.3,146.6c-1.5-4.1-3.1-6.9-4.7-8.3c-1,2.4-2.1,4.5-3.5,6.2c0,5.7-0.4,9.7-1.2,12
							c2.2,2.6,4.1,5.3,5.8,8.2c1.6-0.2,2.9-0.7,4.2-1.7c0.9-4.3,0.9-8.8,0.1-13.4L384.3,146.6 M357.8,143.5
							c-3.1-2.4-7.5-4.6-13-6.5c-4.6,4.4-7.7,8.1-9.2,11c-0.1,3.6,0.2,8.2,1.1,13.7c4.9,1.6,9.6,2.4,13.9,2.3
							c3.5-1.5,7.4-4,11.5-7.6C360.8,151.7,359.4,147.4,357.8,143.5 M374.4,133.1c-3.3-2.8-7.6-4.7-12.9-5.6c-3,0.4-6.1,1.8-9.5,4
							c2.4,3.9,4.3,7.9,5.8,12c3.1,1.6,6.9,4.2,11.3,7.7c1.3-0.9,3.7-3.2,7.1-6.7C376.5,141.7,375.9,137.9,374.4,133.1 M342.8,121.9
							c1.8,1.5,3.6,2.9,5.4,4.4c3.5-0.4,7.9,0,13.2,1.2c2.9-0.9,5.9-1.1,9-0.4c-7.8-5.4-16.3-7.3-25.7-5.6L342.8,121.9 M338.7,128.5
							l4.1-6.6c-8.5,1.9-15.3,6.6-20.4,13.9l-0.8,1.1c1.9-1.5,3.7-2.3,5.6-2.6C330.3,131.7,334.1,129.8,338.7,128.5z"/>
						<path class="st1" d="M122.8,193.8c-3.7-5.7-5.9-14.3-6.7-25.9c-2.4-2-4.4-4.7-6-7.9c-1.9,6.3-2.8,13-2.8,20.1
							c0,9.4,1.7,18.2,5,26.3c3.4,8.2,8.4,15.8,15.3,22.6l22.2,15.2l0.8,0.3l12.6,0.5c-4.5-5.3-7.8-10.8-9.8-16.3
							c-8-5.6-15.3-12.5-22.1-20.8l-19-1.5C113.9,203.6,117.4,199.4,122.8,193.8 M234.1,218.7L234.1,218.7c-2.5,3.5-5.4,7-8.7,10.3
							c-4.9,4.9-10.3,9-15.9,12.1l0.2-0.1c5.6-3.1,10.9-7.2,15.8-12.1C228.7,225.7,231.6,222.3,234.1,218.7 M240.7,206.3
							c0.4-1,0.8-2,1.1-3C241.5,204.3,241.1,205.3,240.7,206.3L240.7,206.3 M197.1,227c-0.6,5.2-2,10.6-4.4,16.1
							c5.9,0.4,11.5-0.3,16.7-2c5.7-3.1,11-7.2,15.9-12.1c3.3-3.3,6.2-6.7,8.7-10.3c1.1-4.5,0.4-7.9-2-10.4c-4.2-0.9-9.9-1.3-17-1.1
							C206.5,218.3,200.6,225,197.1,227 M148.4,205.5c0.8,9.3,2.5,17,5,23.1c6,5.7,13.9,9.8,23.6,12.5c11.1-5.2,17.8-9.9,20.1-14.1
							c2.1-7.2,2.5-14.8,1.2-22.8c-8-3.1-16.3-5.7-25.2-7.7C165.6,198.4,157.3,201.4,148.4,205.5 M149.2,159.8
							c-1.6,7.1-2.4,16.2-2.5,27.2c9.1,4.9,18,8.1,26.5,9.5c7.4-1.7,15.8-5.4,25.1-11c-0.9-9.7-2.2-18.6-3.9-26.8
							c-5.4-5.8-13.1-11.6-23.2-17.4C160.4,148.5,153.1,154.7,149.2,159.8 M127.5,131.1l-1.7,1.7l-0.2,0.3c4.2-2.2,8.1-3.2,11.8-3.2
							c7-4,15.2-6.4,24.6-7.4l10.4-11.6C155.1,111.9,140.1,118.6,127.5,131.1 M156.5,135.1c-6.9-3-13.2-4.8-19-5.1
							c-6.4,2.7-12.7,8.1-19.1,16c-2.4,7.3-3.2,14.7-2.3,22c4.1,6,9.3,9.9,15.7,11.7c2.8-4,8.6-10.7,17.4-19.9
							C150.5,150.4,153,142.2,156.5,135.1 M207.2,128.5c-6-0.1-12.6,1.5-20,4.7c3.3,8.5,5.7,17,7.2,25.5c5.6,4.3,12.1,10.6,19.5,19
							c2.9-1.4,8.3-5,16.2-10.8c1.7-5.4,1.9-13.1,0.5-23C225.1,137.4,217.3,132.2,207.2,128.5 M176.5,110.9l-4,0.1l9.2,10.6
							c6.9,0.5,15.4,2.8,25.5,6.9c6.2-0.8,12.1,0,17.8,2.3C211.6,117.5,195.4,110.9,176.5,110.9 M360.4,276.6c-2,2.5-7,4.8-14.8,6.9
							c-6.1-2.9-10.8-6.5-14.1-10.9c0.6,3.9,2.1,7.9,4.5,11.9c-2.9-0.3-5.7-0.9-8.1-1.8c4.8,3,10.3,5.1,16.5,6.2
							c8,1.4,15.6,0.9,22.7-1.6c-3.7,0.6-7.4,0.4-11.3-0.6C357.8,283.3,359.4,279.9,360.4,276.6 M385.5,268.2
							c1.3,1.9,1.3,4.3,0.1,7.1c2.2-2.3,4.2-4.7,5.9-7.4L385.5,268.2 M390.1,216.8l-0.2-0.3c-3.5-2.2-7.3-3.4-11.5-3.6
							c6.2,3.6,10.7,7.9,13.6,12.9c-0.2,6.7-1.2,11.7-3,15c2.5-1.6,4.9-3.7,7.2-6.2c1.4,2.6,2.1,6.8,2.1,12.6
							C399.3,236.2,396.6,226.1,390.1,216.8 M366.5,231.4c0-5.8-0.6-11.7-1.8-17.6c5.2-1.3,9.8-1.5,13.7-0.8
							c-6.2-3.9-11.5-6.4-15.9-7.5l-4.8-8l-8.2,6.4c-6.3-0.5-12,0.2-17,2c3.8,0.9,7.7,2.8,11.9,5.6c-3.2,4.3-5.7,9.4-7.7,15.4
							c3.2-2.9,8.7-6.1,16.5-9.5C359.2,222.2,363.6,226.9,366.5,231.4 M366.5,231.4c0.2,5.6,0,11.6-0.6,18
							c-6.8,2.7-12.7,4.1-17.8,4.4c5.6,2.3,10.8,5,15.7,7.9c-0.1,5.4-1.2,10.4-3.4,14.9c2.5-1,7.2-4.6,14.1-11
							c4.7,0.7,8.4,1.6,11.1,2.7c-0.8-4.4-1.9-8.7-3.5-12.9c2-2.6,4.3-7.4,7-14.5c-5.8,2.9-9.8,4.7-11.9,5.2
							C373.2,239.7,369.6,234.8,366.5,231.4 M322.9,237.8c-4-1.9-7-5.1-9-9.5c-0.8,7.7-0.3,13.6,1.5,17.8c-4.2,3.1-7,5.4-8.4,7.1
							c4.7,0.9,8.8,2,12.3,3.2c3.5,6.2,7.5,11.6,12.1,16.2c-0.9-4.3-1.1-9.6-0.6-15.8c6.3-1.6,12-2.6,17.2-3
							c-5.4-1.9-10.8-5-16.2-9.3c1.3-7.3,3-13.1,4.8-17.6C329.8,231.8,325.3,235.5,322.9,237.8 M332.5,205.8
							c-2.5-0.4-5.2-0.2-8.2,0.7c-5.8,4.4-10.3,9.7-13.3,15.9c0.7,2.3,1.7,4.3,3,5.9c0.3-4.9,1.6-9.6,4.1-14.2
							C323.2,209.7,328,206.9,332.5,205.8 M211.9,335.1c5.3,4.8,11.6,8.5,18.9,11.2c9.5,3.5,18.9,4.5,28.3,3
							c-4.7-0.1-9.3-1.1-13.8-3.2c3.4-3.6,6.1-7.4,8-11.3c-3,2.6-9.6,4.3-19.8,5.2c-6.9-4.8-11.8-10.3-14.9-16.5
							c-0.1,4.9,0.9,10.2,2.9,15.6C218.1,338.1,214.9,336.8,211.9,335.1 M225.3,289.1c3.3-8.6,6.5-15.6,9.8-20.7
							c-9.5,4.7-15.9,8.3-19.3,10.6c-4.5-3.2-7.5-7.8-9-13.6c-2.6,9.3-3.3,16.7-2.1,22.2c-5.8,2.8-9.8,5.1-11.8,6.8
							c5.6,2.2,10.4,4.4,14.4,6.6c2.9,8.4,6.7,15.9,11.4,22.5c-0.2-5.5,0.7-12,2.7-19.5c8.1-0.6,15.4-0.6,21.9,0.1
							C237,300.5,231,295.5,225.3,289.1 M234.4,241.7c-2.9-1.1-6.3-1.4-10.2-0.9c-8.1,4.2-14.7,9.7-19.8,16.6c0.3,3,1.1,5.7,2.4,7.9
							c1.4-6,4.1-11.5,8.1-16.6C222.1,244.4,228.6,242.1,234.4,241.7 M286.1,330.1c1.2,2.6,0.7,5.5-1.5,8.7c3.3-2.3,6.2-4.9,8.8-7.8
							C290.9,331.4,288.5,331.1,286.1,330.1 M280.6,300.9c-3.4-8.7-6.7-15.5-9.9-20.4c-1,6.9-2.5,14.3-4.6,22.1
							c-8.9,1.8-16.5,2.3-22.8,1.5c6.3,4,12.2,8.4,17.5,13.2c-1.3,6.6-3.8,12.5-7.5,17.5c3.3-0.7,9.9-4.2,19.8-10.5
							c5.6,1.9,9.9,3.9,13,5.8c0-5.6-0.5-11.1-1.5-16.6c3-2.8,7-8.2,11.7-16.3C288.5,299.4,283.2,300.7,280.6,300.9 M302.9,267.7
							l-0.2-0.4c-3.8-3.5-8.2-5.7-13.3-6.9c6.8,5.8,11.4,12,13.9,18.8c-1.7,8.2-4,14.1-6.9,17.9c3.4-1.5,6.8-3.5,10.2-6.1
							c1.1,3.5,1.1,8.8-0.2,15.9C310,293.6,308.8,280.6,302.9,267.7 M271.4,247.8l-4.2-10.8l-11.5,6.1c-7.6-1.9-14.7-2.4-21.3-1.2
							c4.4,2,8.9,5.1,13.4,9.4c-4.8,4.5-9.1,10.3-12.8,17.2c4.6-2.9,12-5.6,22.4-8.1c6.3,7.4,10.7,14.2,13.3,20.2
							c1.3-7.1,1.8-14.4,1.7-22.1c6.7-0.4,12.4,0.3,17,2C282.6,254.3,276.6,250.1,271.4,247.8 M304.9,136.2c-1.3,0.6-2.7,1-4,1.2
							c2.8,0.1,5.7-0.4,8.7-1.5c3.8-1.4,6.9-3.5,9.4-6.3c-1.5,1.2-3.1,2-5,2.6c0.1-2-0.1-3.8-0.5-5.5c-0.2,1.6-1.8,3.8-4.7,6.6
							c-3.4,0.3-6.3-0.1-8.8-1.2C301.2,133.7,302.8,135.1,304.9,136.2 M324,120l0.7-4.7c-0.7,0.8-1.5,1.3-2.5,1.6
							C323.3,117.4,323.9,118.4,324,120 M316.8,118.5c2.2-0.9,4-1.4,5.4-1.6c-1.4-1.7-3-3.3-4.7-4.7c0.2-1.6,0.1-4.3-0.6-8
							c-1.8,2.7-3.1,4.4-3.8,5.2c-3.3-1.8-6-3-8.3-3.7c1.5,2.4,2.9,5,4.3,7.9c-2.3,2.8-4.5,4.9-6.6,6.3l8.7-0.5
							c1.3,2.3,2,4.7,2.2,7.3C314.3,125.7,315.4,123,316.8,118.5 M278.7,115.7c0.9,0.8,1.8,1.4,2.8,1.8c-1.1-2.2-1.7-4.5-1.8-7.1
							c1.1-3.2,2.5-5.6,4.2-7.2c-1.2,0.4-2.3,1.2-3.3,2.3C279.1,108.9,278.5,112.3,278.7,115.7 M290.9,111.2
							c-1.7,3.9-2.8,6.6-3.2,8.2c-2.2,0.1-4.3-0.5-6.2-1.9c1.6,3.5,3.3,6,5.1,7.3c-1.1,2.4-1.7,4.1-1.9,5.1c2.2-0.8,4.3-1.4,6.1-1.7
							c3,1.8,6.1,3.1,9.2,4c-1.5-1.7-2.9-3.9-4.2-6.7c2.3-2.2,4.5-4.1,6.7-5.6c-2.8,0.5-5.9,0.5-9.3,0
							C291.9,116.5,291.2,113.6,290.9,111.2 M296.6,95.6l-4-2.2l-1.9,4.8c-2.8,1.3-5.1,3-6.9,5.1l6.5-0.6c-0.3,2.6-0.1,5.5,0.5,8.6
							c0.6-2.1,2.2-4.8,4.7-8.3c3.8,0.7,6.9,1.6,9.2,2.8c-1.4-2.5-3.1-4.9-5.1-7.2c1.9-1.9,3.8-3.1,5.7-3.7
							C301.8,94.7,298.9,94.9,296.6,95.6 M311.2,93.6c-2-0.1-4,0.3-5.8,1.3c3.6,0,6.6,0.7,9,2.2c1.6,2.9,2.4,5.3,2.5,7.2
							c0.7-1.3,1.2-2.8,1.6-4.5c1.2,0.8,2.6,2.4,4,4.9c-2.3-5-6-8.7-11.1-11.1H311.2 M362,156.4c-4.1,3.6-7.9,6.1-11.5,7.6l13.1,1.6
							c1.3,3.8,1.8,7.6,1.4,11.4c1.5-1.3,3.9-5.2,7.2-11.4l8.5-0.9c-1.7-2.9-3.6-5.6-5.8-8.2c0.8-2.4,1.2-6.4,1.2-12
							c-3.4,3.6-5.7,5.8-7.1,6.7c-4.4-3.5-8.2-6.1-11.3-7.7C359.4,147.4,360.8,151.7,362,156.4 M349.8,188.9l-6.2,0.8
							c4.2,0.9,8.6,0.9,13.2,0.1c6-1.1,11.2-3.4,15.6-6.9c-2.4,1.3-5.1,2.2-8.1,2.5c0.7-2.9,1-5.7,0.8-8.3c-0.8,2.2-3.7,5.1-8.7,8.7
							c-5.1-0.5-9.3-1.9-12.7-4.1C345.1,184.2,347.2,186.6,349.8,188.9 M380.7,164.7c1.4,1,2,2.7,1.9,5c1-2.2,1.8-4.4,2.3-6.7
							C383.6,164,382.3,164.5,380.7,164.7 M328.7,159.3c-3.3-0.3-6.2-1.8-8.8-4.4c1.4,5.6,3.3,9.7,5.6,12.2
							c-2.2,3.2-3.6,5.6-4.1,7.1l9.5-0.9c4,3.5,8.3,6.3,12.7,8.4c-1.8-2.8-3.3-6.5-4.5-11c4-2.8,7.8-5,11.4-6.6
							c-4.3,0.1-8.9-0.7-13.9-2.3c-0.9-5.5-1.3-10.1-1.1-13.7C332,153.3,329.7,157.1,328.7,159.3 M327.2,134.3
							c-1.8,0.3-3.7,1.2-5.6,2.6c-3,4.6-4.8,9.5-5.3,14.6c1.1,1.5,2.3,2.6,3.6,3.4c-1.1-3.6-1.3-7.2-0.7-11.1
							C321.6,139.4,324.3,136.2,327.2,134.3 M361.5,127.5c5.3,0.9,9.6,2.8,12.9,5.6c1.6,4.8,2.1,8.6,1.8,11.4
							c1.3-1.8,2.5-3.8,3.5-6.2c1.7,1.5,3.2,4.2,4.7,8.3c-2.1-8-6.7-14.4-13.6-19.3l-0.2-0.2C367.4,126.4,364.4,126.6,361.5,127.5
							 M342.8,121.9l-4.1,6.6c-4.6,1.3-8.4,3.2-11.5,5.8c2.9-0.3,6.2,0,9.9,0.9c-1.1,3.8-1.6,8.1-1.5,12.9c1.5-2.9,4.6-6.6,9.2-11
							c5.5,2,9.8,4.2,13,6.5c-1.5-4.1-3.4-8.1-5.8-12c3.4-2.2,6.5-3.6,9.5-4c-5.4-1.2-9.8-1.6-13.2-1.2
							C346.5,124.8,344.7,123.4,342.8,121.9z"/>
					</g>
				</g>
				<g>
					<path id="Shapes_Shape_71_0_Layer13_0_1_STROKES" class="st4" d="M125.9,132.9l1.7-1.7c12.6-12.5,27.6-19.2,45-20.1l4-0.1
						c18.9,0,35.1,6.6,48.5,19.9l0.4,0.4c12,12,18.7,26.2,20,42.7l0.2,6.2c0-2.3-0.1-4.5-0.3-6.7 M240.7,206.3c0.4-1,0.8-2,1.2-3.1
						l3.8-23.2 M245.4,173.4c-1.4-16.3-8.1-30.3-20-42.2l-0.4-0.4 M234.1,218.6c2.7-3.9,4.9-8,6.6-12.3 M241.9,203.3
						c-0.3,1-0.7,2-1.1,3 M209.5,241.1c5.7-3.1,11-7.2,15.9-12.1c3.3-3.3,6.2-6.7,8.7-10.3 M240.7,206.3c-1.8,4.3-4,8.5-6.7,12.4
						 M125.2,133.6l0.5-0.5l0.2-0.3L125.2,133.6L110.1,160 M150.5,244.4l0.7,0.3c7.8,3,16.2,4.5,25.3,4.5l32-7.6l0.9-0.5
						 M209.6,241.1c5.6-3.1,10.9-7.2,15.8-12.1c3.3-3.3,6.1-6.7,8.6-10.3 M150.5,244.4l-0.8-0.3L127.5,229
						c-6.8-6.8-11.9-14.3-15.3-22.6c-3.3-8.1-5-16.9-5-26.3c0-7.1,0.9-13.8,2.8-20.1 M209.6,241.1l-1.1,0.6 M245.4,173.4
						c-1.5-8.3-3.6-14.1-6.2-17.5c-2.8,4.3-5.8,8-9,11.1c-2.1,11.1-4.3,18.9-6.5,23.2c3.4,5.7,6.2,11.8,8.5,18.1
						c3.1,0.2,6-0.4,8.6-1.9 M162.1,122.6c-9.4,0.9-17.6,3.4-24.6,7.4c5.8,0.4,12.2,2.1,19,5.1c-3.6,7.1-6,15.3-7.4,24.7
						c4-5.1,11.3-11.3,22-18.4c10.1,5.8,17.9,11.6,23.2,17.4c-1.5-8.5-3.8-17-7.2-25.5c7.4-3.3,14.1-4.8,20-4.7
						c-10.1-4.1-18.6-6.4-25.5-6.9l-9.2-10.6L162.1,122.6z M225,130.8c-5.7-2.3-11.6-3.1-17.8-2.3c10.1,3.7,17.9,8.9,23.4,15.5
						c1.4,9.9,1.3,17.6-0.5,23c-7.9,5.8-13.3,9.4-16.2,10.8c-7.4-8.4-13.9-14.7-19.5-19c1.7,8.2,3,17.1,3.9,26.8
						c-9.3,5.6-17.7,9.3-25.1,11c8.8,2,17.2,4.5,25.2,7.7c1.3,8,0.9,15.6-1.2,22.8c3.5-2.1,9.4-8.7,18-19.9c7.1-0.2,12.8,0.2,17,1.1
						c2.4,2.5,3.1,5.9,2,10.4 M240.7,206.3L240.7,206.3 M125.6,133.1c4.2-2.2,8.1-3.2,11.8-3.2c-6.4,2.7-12.7,8.1-19.1,16
						c-2.4,7.3-3.2,14.7-2.3,22c4.1,6,9.3,9.9,15.7,11.7c2.8-4,8.6-10.7,17.4-19.9c-1.6,7.1-2.4,16.2-2.5,27.2
						c9.1,4.9,18,8.1,26.5,9.5c-7.6,1.9-15.8,4.9-24.8,8.9c0.8,9.3,2.5,17,5,23.1c6,5.7,13.9,9.8,23.6,12.5
						c11.1-5.2,17.8-9.9,20.1-14.1c-0.6,5.2-2,10.6-4.4,16.1c5.9,0.4,11.5-0.3,16.7-2 M234.1,218.6L234.1,218.6 M110.1,160
						c1.6,3.3,3.6,5.9,6,7.9c0.8,11.6,3.1,20.2,6.7,25.9c-5.4,5.6-8.9,9.8-10.5,12.5l19,1.5c6.7,8.2,14.1,15.2,22.1,20.8
						c2,5.6,5.2,11,9.8,16.3l-12.6-0.5 M209.5,241.1l0.2-0.1 M245.4,173.4l0.1,0.5"/>
				</g>
			</g>
			<g transform="matrix( 1, 0, 0, 1, 0,0) ">
				<g>
					<g id="Shapes_Shape_71_0_Layer12_0_FILL">
						<path class="st1" d="M259.5,375.8l3.2-12.3h-39.9l-7.8,32.8l11.7,4c2.5-3.4,5.7-5,9.4-5c2.7,0,5,0.9,6.7,2.6
							c1.8,1.7,2.6,3.9,2.6,6.7c0,3-1,5.5-2.9,7.5s-4.5,3-7.7,3c-5.8,0-9.4-2.6-10.7-7.9l-13.8,2.1c1.1,5.3,3.9,9.5,8.4,12.7
							c4.5,3.1,9.8,4.7,16,4.7c7.2,0,13.2-2.2,18-6.5c4.8-4.4,7.2-9.9,7.2-16.3c0-5.5-1.9-10.1-5.7-13.7s-8.4-5.3-13.7-5.3
							c-5.1,0-9.1,1.7-12.1,5.2l3.4-14.3L259.5,375.8L259.5,375.8z"/>
					</g>
				</g>
			</g>
			<g transform="matrix( 1, 0, 0, 1, 0,0) ">
				<g>
					<g id="Shapes_Shape_71_0_Layer11_0_FILL">
						<path class="st1" d="M212.1,399.6v-5.3c-0.1-3-1.9-4.5-5.4-4.5h-15.4v4.3l14.9,0.1c1,0,1.5,0.2,1.5,0.7v4.1
							c0,0.4-0.5,0.6-1.5,0.6l-14.9-0.1v14.1h4.3v-9.8h5.7v5.6c0,2.8,1.8,4.2,5.3,4.2h5.6v-4.4l-4.7,0.1c-1.2,0-1.9-0.2-1.9-0.7
							v-4.7h1.3C210.3,403.8,212.1,402.4,212.1,399.6z"/>
					</g>
				</g>
			</g>
			<g transform="matrix( 1, 0, 0, 1, 0,0) ">
				<g>
					<g id="Shapes_Shape_71_0_Layer10_0_FILL">
						<path class="st1" d="M169.9,399.5v-4.7c0-0.5,0.5-0.7,1.5-0.7l15-0.1v-4.3H171c-3.6,0-5.4,1.4-5.4,4.3v15.4
							c0,2.8,1.8,4.2,5.4,4.2h15.4v-4.4l-15,0.1c-1,0-1.5-0.2-1.5-0.7v-4.7h16.6v-4.4L169.9,399.5z"/>
					</g>
				</g>
			</g>
			<g transform="matrix( 1, 0, 0, 1, 0,0) ">
				<g>
					<g id="Shapes_Shape_71_0_Layer9_0_FILL">
						<path class="st1" d="M140,389.8v4.3l14.9,0.1c1,0,1.5,0.2,1.5,0.7v4.1c0,0.4-0.5,0.6-1.5,0.6l-14.9-0.1v14.1h4.3v-9.8h11.3
							c3.5,0,5.3-1.4,5.3-4.2v-5.3c-0.1-3-1.9-4.5-5.4-4.5L140,389.8L140,389.8z"/>
					</g>
				</g>
			</g>
			<g transform="matrix( 1, 0, 0, 1, 0,0) ">
				<g>
					<g id="Shapes_Shape_71_0_Layer8_0_FILL">
						<path class="st1" d="M135.1,389.8h-4.3v18.8c0,0.5-0.5,0.7-1.5,0.7h-9.1c-1,0-1.5-0.2-1.5-0.7v-18.8h-4.3v19.6
							c0,2.8,1.8,4.2,5.3,4.2h10c3.6,0,5.4-1.4,5.4-4.2V389.8z"/>
					</g>
				</g>
			</g>
			<g transform="matrix( 1, 0, 0, 1, 0,0) ">
				<g>
					<g id="Shapes_Shape_71_0_Layer7_0_FILL">
						<path class="st1" d="M94.6,399.5c-1,0-1.5-0.2-1.5-0.6v-4.1c0-0.5,0.5-0.7,1.5-0.7l15-0.1v-4.3H94.3c-3.6,0-5.4,1.4-5.4,4.3
							v5.2c0,3,1.9,4.6,5.8,4.6h9.1c1,0,1.5,0.2,1.5,0.6v4.1c0,0.5-0.5,0.7-1.5,0.7l-14.9-0.1v4.4h15.4c3.6,0,5.4-1.4,5.4-4.2V404
							c0-3-2-4.4-5.9-4.4h-9.2C94.6,399.6,94.6,399.5,94.6,399.5z"/>
					</g>
				</g>
			</g>
			<g transform="matrix( 1, 0, 0, 1, 0,0) ">
				<g>
					<g id="Shapes_Shape_71_0_Layer6_0_FILL">
						<path class="st1" d="M395,394.8c0-0.5,0.5-0.7,1.5-0.7l15-0.1v-4.3h-15.4c-3.6,0-5.4,1.4-5.4,4.3v15.4c0,2.8,1.8,4.2,5.4,4.2
							h15.4v-4.4l-15,0.1c-1,0-1.5-0.2-1.5-0.7v-4.7h16.6v-4.4l-16.6,0.1V394.8z"/>
					</g>
				</g>
			</g>
			<g transform="matrix( 1, 0, 0, 1, 0,0) ">
				<g>
					<g id="Shapes_Shape_71_0_Layer5_0_FILL">
						<path class="st1" d="M385.9,389.8h-4.3v18.8c0,0.5-0.5,0.7-1.5,0.7H371c-1,0-1.5-0.2-1.5-0.7v-18.8h-4.3v19.6
							c0,2.8,1.8,4.2,5.3,4.2h10c3.6,0,5.4-1.4,5.4-4.2V389.8z"/>
					</g>
				</g>
			</g>
			<g transform="matrix( 1, 0, 0, 1, 0,0) ">
				<g>
					<g id="Shapes_Shape_71_0_Layer4_0_FILL">
						<path class="st1" d="M343.9,394.8c0-0.5,0.5-0.7,1.5-0.7l14.9-0.1v-4.3h-15.4c-3.6,0-5.3,1.4-5.3,4.3v15.4
							c0,2.8,1.8,4.2,5.3,4.2h10c3.6,0,5.4-1.4,5.4-4.2v-8.1H356v7.3c0,0.5-0.5,0.7-1.5,0.7h-9.1c-1,0-1.5-0.2-1.5-0.7V394.8z"/>
					</g>
				</g>
			</g>
			<g transform="matrix( 1, 0, 0, 1, 0,0) ">
				<g>
					<g id="Shapes_Shape_71_0_Layer3_0_FILL">
						<path class="st1" d="M320.1,389.8c-3.6,0-5.4,1.4-5.4,4.3l14.9,0.1c1,0,1.5,0.2,1.5,0.7v4.7l-16.4-0.1v14.1h4.3v-9.8h12.1v9.8
							h4.4V394c0-2.8-1.8-4.3-5.4-4.3L320.1,389.8L320.1,389.8z"/>
					</g>
				</g>
			</g>
			<g transform="matrix( 1, 0, 0, 1, 0,0) ">
				<g>
					<g id="Shapes_Shape_71_0_Layer2_0_FILL">
						<path class="st1" d="M293.4,399.5v-4.7c0-0.5,0.5-0.7,1.5-0.7l15-0.1v-4.3h-15.4c-3.6,0-5.4,1.4-5.4,4.3v15.4
							c0,2.8,1.8,4.2,5.4,4.2h15.4v-4.4l-15,0.1c-1,0-1.5-0.2-1.5-0.7v-4.7H310v-4.4L293.4,399.5z"/>
					</g>
				</g>
			</g>
			<g transform="matrix( 1, 0, 0, 1, 0,0) ">
				<g>
					<g id="Shapes_Shape_71_0_Layer1_0_FILL">
						<path class="st1" d="M267.8,389.8h-4.3v19.6c0,2.8,1.8,4.2,5.3,4.2h15.4v-4.4l-14.9,0.1c-1,0-1.5-0.2-1.5-0.7V389.8z"/>
					</g>
				</g>
			</g>
			<g transform="matrix( 1, 0, 0, 1, 0,0) ">
				<g>
					<g id="Shapes_Shape_71_0_Layer0_0_FILL">
						<path class="st1" d="M398.1,365.8h2.8v-1.9h-7.8v1.9h2.8v6h2.3L398.1,365.8 M410.9,363.8h-3.4l-1.1,4.4h-0.1l-1-4.4h-3.5v7.9
							h2.2v-5.6h0.1l1.4,5.6h1.8l1.5-5.6h0.1v5.6h2.1v-7.9H410.9z"/>
					</g>
				</g>
			</g>
		</g>
		<circle class="st4" cx="176.6" cy="180.3" r="69.4"/>
	</g>
</g>
</svg>
