<?xml version="1.0" encoding="utf-8"?>
<!-- Generator: Adobe Illustrator 24.1.2, SVG Export Plug-In . SVG Version: 6.00 Build 0)  -->
<svg version="1.1" id="Layer_1" xmlns="http://www.w3.org/2000/svg" xmlns:xlink="http://www.w3.org/1999/xlink" x="0px" y="0px"
	 viewBox="0 0 500 500" style="enable-background:new 0 0 500 500;" xml:space="preserve">
<style type="text/css">
	.st0{fill:none;stroke:#333333;stroke-width:2;stroke-linecap:round;stroke-linejoin:round;stroke-miterlimit:5;}
	.st1{fill:none;stroke:#333333;stroke-width:2;stroke-linecap:round;stroke-linejoin:round;stroke-miterlimit:2.4999;}
</style>
<g id="COF">
	<g>
		<g transform="matrix( 0.5, 0, 0, 0.5, 163.85,63.9) ">
			<g transform="matrix( 1, 0, 0, 1, 0,0) ">
				<g>
					<path id="Shapes_Shape_46_0_Layer0_0_1_STROKES_1_" class="st0" d="M530.5,505.2c4.9,4.9,7.3,10.8,7.3,17.7s-2.4,12.8-7.3,17.7
						c-4.9,4.9-10.8,7.3-17.7,7.3c-6.9,0-12.8-2.5-17.6-7.3c-4.9-4.9-7.4-10.8-7.4-17.7s2.4-12.8,7.4-17.7
						c4.9-4.9,10.8-7.3,17.6-7.3C519.7,497.9,525.6,500.4,530.5,505.2z"/>
				</g>
			</g>
		</g>
		<g transform="matrix( 0.5, 0, 0, 0.5, 123.85,63.9) ">
			<g transform="matrix( 1, 0, 0, 1, 0,0) ">
				<g transform="matrix( 1, 0, 0, 1, 0,0) ">
					<g>
						<path class="st0" d="M530.5,505.2c4.9,4.9,7.3,10.8,7.3,17.7s-2.4,12.8-7.3,17.7c-4.9,4.9-10.8,7.3-17.7,7.3
							c-6.9,0-12.8-2.5-17.6-7.3c-4.9-4.9-7.4-10.8-7.4-17.7s2.4-12.8,7.4-17.7c4.9-4.9,10.8-7.3,17.6-7.3
							C519.7,497.9,525.6,500.4,530.5,505.2z"/>
					</g>
				</g>
			</g>
		</g>
		<g transform="matrix( 0.5, 0, 0, 0.5, 83.85,63.9) ">
			<g transform="matrix( 1, 0, 0, 1, 0,0) ">
				<g>
					<path class="st0" d="M530.5,505.2c4.9,4.9,7.3,10.8,7.3,17.7s-2.4,12.8-7.3,17.7c-4.9,4.9-10.8,7.3-17.7,7.3
						c-6.9,0-12.8-2.5-17.6-7.3c-4.9-4.9-7.4-10.8-7.4-17.7s2.4-12.8,7.4-17.7c4.9-4.9,10.8-7.3,17.6-7.3
						C519.7,497.9,525.6,500.4,530.5,505.2z"/>
				</g>
			</g>
		</g>
		<g transform="matrix( 0.4095611572265625, -0.2867889404296875, 0.2867889404296875, 0.4095611572265625, 100,0) ">
			<g transform="matrix( 1, 0, 0, 1, 0,0) ">
				<g>
					<path id="Shapes_Shape_45_0_Layer0_0_1_STROKES_1_" class="st1" d="M367.2,679.5v-25 M-80.3,754.5l0-25 M367.2,654.5l-450.5,0
						c-13.7,0-25.5,4.9-35.4,14.7c-9.8,9.8-14.7,21.5-14.7,35.3c0,13.7,4.9,25.5,14.7,35.3c9.8,9.8,21.6,14.7,35.3,14.7h2.9
						 M-80.3,729.5h-1.9c-6.8,0-12.7-2.4-17.7-7.3c-1.5-1.5-2.7-3-3.8-4.7l470.9,0v-25l-471.4,0c1.1-2,2.5-3.9,4.3-5.7
						c4.9-4.9,10.8-7.3,17.7-7.3l449.5,0"/>
				</g>
			</g>
		</g>
		<g transform="matrix( 0.4095611572265625, -0.2867889404296875, 0.2867889404296875, 0.4095611572265625, -0.05,0.05) ">
			<g transform="matrix( 1, 0, 0, 1, 0,0) ">
				<g>
					<path id="Shapes_Shape_44_0_Layer0_0_1_STROKES_1_" class="st1" d="M316,679.5l-398,0c-6.9,0-12.8,2.4-17.7,7.3
						c-4.9,4.9-7.4,10.8-7.4,17.7s2.4,12.8,7.4,17.7s10.8,7.3,17.6,7.3l398,0c6.9,0,12.8-2.5,17.7-7.4c4.9-4.9,7.3-10.8,7.3-17.6
						c0-6.9-2.4-12.8-7.4-17.7C328.7,681.9,322.8,679.5,316,679.5z M317,654.5l-400,0c-13.7,0-25.5,4.9-35.4,14.7
						c-9.8,9.8-14.7,21.5-14.7,35.3c0,13.7,4.9,25.5,14.7,35.3c9.8,9.8,21.6,14.7,35.3,14.7l400,0c13.7,0,25.5-4.9,35.4-14.7
						c9.8-9.8,14.6-21.6,14.6-35.3c0-13.8-4.9-25.5-14.7-35.4C342.5,659.3,330.7,654.4,317,654.5z"/>
				</g>
			</g>
		</g>
		<g transform="matrix( 0.4095611572265625, -0.2867889404296875, 0.2867889404296875, 0.4095611572265625, -100,0) ">
			<g transform="matrix( 1, 0, 0, 1, 0,0) ">
				<g>
					<path id="Shapes_Shape_43_0_Layer0_0_1_STROKES_1_" class="st1" d="M367.2,679.5v-25 M367.2,754.5v-25 M367.2,654.5l-450.5,0
						c-13.7,0-25.5,4.9-35.4,14.7c-9.8,9.8-14.7,21.5-14.7,35.3c0,13.7,4.9,25.5,14.7,35.3c9.8,9.8,21.6,14.7,35.3,14.7l450.5,0
						 M367.2,729.5l-449.5,0c-6.8,0-12.7-2.4-17.7-7.3c-4.9-4.9-7.3-10.8-7.3-17.7s2.5-12.8,7.3-17.7c4.9-4.9,10.8-7.3,17.7-7.3
						l449.5,0"/>
				</g>
			</g>
		</g>
	</g>
</g>
</svg>
