<?xml version="1.0" encoding="utf-8"?>
<!-- Generator: Adobe Illustrator 24.1.2, SVG Export Plug-In . SVG Version: 6.00 Build 0)  -->
<svg version="1.1" id="Layer_1" xmlns="http://www.w3.org/2000/svg" xmlns:xlink="http://www.w3.org/1999/xlink" x="0px" y="0px"
	 viewBox="0 0 500 500" style="enable-background:new 0 0 500 500;" xml:space="preserve">
<style type="text/css">
	.st0{fill:#6D3D84;}
	.st1{fill:#333333;}
	.st2{fill:none;stroke:#010101;stroke-width:0.9751;stroke-linecap:round;stroke-linejoin:round;}
	.st3{fill:#010101;}
	.st4{fill:none;stroke:#FFFFFF;stroke-width:1.3652;stroke-linecap:round;stroke-linejoin:round;}
	.st5{fill:#6D3D84;stroke:#6D3D84;stroke-miterlimit:10;}
</style>
<g id="Van_Krupper">
	<g transform="matrix( 1, 0, 0, 1, 0,0) ">
		<g transform="matrix( 1, 0, 0, 1, 0,0) ">
			<g>
				<g id="Shapes_Shape_23_0_Layer19_0_FILL">
					<path class="st0" d="M340.6,88.7V97c0,27.4,0.9,51.8,2.6,73.4c1.7,21.3,3.9,35.5,6.6,42.6v159.4c0,16.7-1.3,31-3.9,42.8
						l-1.2,4.9c-2.3,8.5-5,12.8-8.1,12.8s-5.7-4.3-8-12.8l-1.2-4.9L326,408c-1.7-10.3-2.5-22.1-2.5-35.5V266.6l2.5-0.7
						c3.5-1.2,6.5-3.4,9-6.4c3.1-3.7,4.6-8,4.6-12.9c0-4.8-1.5-9.2-4.6-12.9c-2.5-3-5.5-5.1-9-6.3l-2.5-0.7V213
						c0.9-2.4,1.8-5.6,2.5-9.5c1.6-7.9,3-19,4.1-33.1c1.8-21.6,2.6-46.1,2.6-73.4v-8.3L340.6,88.7 M362.9,91.6h7.9v8.3
						c0,27.4,0.9,51.8,2.6,73.4c1.7,21.3,3.9,35.5,6.6,42.6v159.4c0,16.7-1.3,31-3.9,42.8l-0.4,2c-2.5,10.5-5.4,15.7-8.8,15.7
						s-6.3-5.2-8.8-15.7l-0.5-2c-2.6-11.8-3.9-26.1-3.9-42.8V215.9c2.7-7.2,4.9-21.4,6.6-42.6c1.8-21.6,2.6-46.1,2.6-73.4
						L362.9,91.6 M347.2,90.6h8.2c1.2,10.5,1.8,23.2,1.8,38c0,14.7-0.6,27.2-1.7,37.6c-1.1,10.4-2.5,15.6-4.1,15.6s-3-5.2-4.1-15.6
						c-1.1-10.4-1.7-22.9-1.7-37.6C345.4,113.8,346,101.1,347.2,90.6 M393.1,94.5h7.9v8.3c0,27.4,0.9,51.8,2.6,73.4
						c1.7,21.3,3.9,35.5,6.6,42.6v159.4c0,16.3-1.3,30.2-3.7,41.8l-0.2,0.9c-1.8,8.3-3.9,13.7-6.2,16.1c-1,1-2,1.6-3.1,1.6
						s-2.1-0.5-3.1-1.6c-2.3-2.5-4.4-7.8-6.2-16.1l-0.2-0.9c-2.4-11.6-3.7-25.5-3.7-41.8V218.8c2.7-7.2,4.9-21.4,6.6-42.6
						c1.8-21.6,2.6-46.1,2.6-73.4L393.1,94.5 M376.1,146.2c0-14.7,0.6-27.2,1.7-37.6s2.5-15.6,4.1-15.6s3,5.2,4.1,15.6
						s1.7,22.9,1.7,37.6s-0.6,27.2-1.7,37.6s-2.5,15.6-4.1,15.6s-3-5.2-4.1-15.6C376.7,173.4,376.1,160.9,376.1,146.2 M319.6,210.1
						v16.1h-0.5c-5.7,0-10.5,2-14.5,6s-6,8.8-6,14.5s2,10.5,6,14.5s8.8,6,14.5,6h0.5v102.4c0,16.7-1.3,31-3.9,42.8
						s-5.7,17.7-9.3,17.7s-6.7-5.9-9.3-17.7c-2.6-11.8-3.9-26.1-3.9-42.8V210.1c2.7-7.2,4.9-21.4,6.6-42.6
						c1.8-21.6,2.6-46.1,2.6-73.4v-8.3h7.9v8.3c0,27.4,0.9,51.8,2.6,73.4C314.6,188.7,316.9,202.9,319.6,210.1 M181.5,74h7.9v8.3
						c0,27.4,0.9,51.8,2.6,73.4c1.7,21.3,3.9,35.5,6.6,42.6v159.4c0,16.7-1.3,31-3.9,42.8c-2.6,11.8-5.7,17.7-9.3,17.7
						s-6.7-5.9-9.3-17.7c-2.6-11.8-3.9-26.1-3.9-42.8V198.4c2.7-7.2,4.9-21.4,6.6-42.6c1.8-21.6,2.6-46.1,2.6-73.4L181.5,74
						 M159.2,71.1v8.3c0,27.4,0.9,51.8,2.6,73.4c1.7,21.3,3.9,35.5,6.6,42.6v159.4c0,16.7-1.3,31-3.9,42.8
						c-2.6,11.8-5.7,17.7-9.3,17.7s-6.7-5.9-9.3-17.7c-2.6-11.8-3.9-26.1-3.9-42.8V195.4c2.7-7.2,4.9-21.4,6.6-42.6
						c1.8-21.6,2.6-46.1,2.6-73.4v-8.3L159.2,71.1 M194.7,96.5L195,76h11l0.3,20.5H194.7 M211.8,77h7.9v8.3
						c0,27.4,0.9,51.8,2.6,73.4c1.7,21.3,3.9,35.5,6.6,42.6v159.4c0,16.7-1.3,31-3.9,42.8s-5.7,17.7-9.3,17.7s-6.7-5.9-9.3-17.7
						c-2.6-11.8-3.9-26.1-3.9-42.8V201.3c2.7-7.2,4.9-21.4,6.6-42.6c1.8-21.6,2.6-46.1,2.6-73.4L211.8,77 M249.9,79.9v8.3
						c0,27.4,0.9,51.8,2.6,73.4c1.7,21.3,3.9,35.5,6.6,42.6v159.4c0,16.7-1.3,31-3.9,42.8s-5.7,17.7-9.3,17.7s-6.7-5.9-9.3-17.7
						c-2.6-11.8-3.9-26.1-3.9-42.8V204.2c2.7-7.2,4.9-21.4,6.6-42.6c1.8-21.6,2.6-46.1,2.6-73.4v-8.3H249.9 M263.9,90.2
						c1,1,1.6,2.3,1.6,3.8s-0.5,2.8-1.6,3.8c-1,1-2.3,1.6-3.8,1.6s-2.8-0.5-3.8-1.6c-1-1-1.6-2.3-1.6-3.8s0.5-2.8,1.6-3.8
						c1-1,2.3-1.6,3.8-1.6C261.6,88.7,262.8,89.2,263.9,90.2 M272.3,91.1v-8.3h7.9v8.3c0,27.4,0.9,51.8,2.6,73.4
						c1.7,21.3,3.9,35.5,6.6,42.6v159.4c0,16.7-1.3,31-3.9,42.8s-5.7,17.7-9.3,17.7s-6.7-5.9-9.3-17.7c-2.6-11.8-3.9-26.1-3.9-42.8
						V207.1c2.7-7.2,4.9-21.4,6.6-42.6C271.4,142.9,272.3,118.5,272.3,91.1 M285.5,84.8h10.6c0.4,9.7,0.5,19.7,0.5,30.2
						c0,20.1-0.6,37.2-1.7,51.4s-2.5,21.3-4.1,21.3s-3-7.1-4.1-21.3S285,135.1,285,115C284.9,104.5,285.1,94.4,285.5,84.8
						 M49.5,61.8c1.6,0,3,5.2,4.1,15.6s1.7,22.9,1.7,37.6s-0.6,27.2-1.7,37.6c-1.1,9.8-2.4,15-3.9,15.5h-0.3V61.8 M60.7,70.6v-8.3
						h7.9v8.3c0,27.4,0.9,51.8,2.6,73.4c1.7,21.3,3.9,35.5,6.6,42.6V346c0,16.7-1.3,31-3.9,42.8s-5.7,17.7-9.3,17.7
						c-3.6,0-6.7-5.9-9.3-17.7c-2.6-11.8-3.9-26.1-3.9-42.8V186.6c2.7-7.2,4.9-21.4,6.6-42.6C59.8,122.4,60.7,97.9,60.7,70.6
						 M106.2,82.8c1.1-10.4,2.5-15.6,4.1-15.6s3,5.2,4.1,15.6s1.7,22.9,1.7,37.6s-0.6,27.2-1.7,37.6s-2.5,15.6-4.1,15.6
						s-3-5.2-4.1-15.6c-1.1-10.4-1.7-22.9-1.7-37.6S105.1,93.2,106.2,82.8 M79.6,63.8c1.6,0,3,5.2,4.1,15.6s1.7,22.9,1.7,37.6
						s-0.6,27.2-1.7,37.6c-1.1,10.4-2.5,15.6-4.1,15.6s-3-5.2-4.1-15.6c-1.1-10.4-1.7-22.9-1.7-37.6s0.6-27.2,1.7-37.6
						C76.6,69,78,63.8,79.6,63.8 M90.8,65.3h7.9v8.3c0,27.4,0.9,51.8,2.6,73.4c1.7,21.3,3.9,35.5,6.6,42.6V349
						c0,16.7-1.3,31-3.9,42.8s-5.7,17.7-9.3,17.7s-6.7-5.9-9.3-17.7C83,380,81.7,365.7,81.6,349V189.6c2.7-7.2,4.9-21.4,6.6-42.6
						c1.8-21.6,2.6-46.1,2.6-73.4L90.8,65.3 M136.2,77.8c1-3.8,2.1-5.7,3.5-5.7c1.3,0,2.5,1.9,3.5,5.7c0.9,3.8,1.4,8.4,1.4,13.8
						s-0.5,10-1.4,13.8c-1,3.8-2.1,5.7-3.5,5.7c-1.3,0-2.5-1.9-3.5-5.7c-0.9-3.8-1.4-8.4-1.4-13.8C134.8,86.2,135.2,81.6,136.2,77.8
						 M121.1,68.2h7.9v8.3c0,27.4,0.9,51.8,2.6,73.4c1.7,21.3,3.9,35.5,6.6,42.6V352c0,16.7-1.3,31-3.9,42.8s-5.7,17.7-9.3,17.7
						c-3.6,0-6.7-5.9-9.3-17.7s-3.9-26.1-3.9-42.8V192.5c2.7-7.2,4.9-21.4,6.6-42.6c1.8-21.6,2.6-46.1,2.6-73.4L121.1,68.2
						 M136.2,125.6c1-3.8,2.1-5.7,3.5-5.7c1.3,0,2.5,1.9,3.5,5.7c0.9,3.8,1.4,8.4,1.4,13.8s-0.5,10-1.4,13.8c-1,3.8-2.1,5.7-3.5,5.7
						s-2.5-1.9-3.5-5.7c-0.9-3.8-1.4-8.4-1.4-13.8C134.8,134,135.2,129.4,136.2,125.6 M260.1,119.4c-1.5,0-2.8-0.5-3.8-1.6
						c-1-1-1.6-2.3-1.6-3.8s0.5-2.8,1.6-3.8c1-1,2.3-1.6,3.8-1.6s2.8,0.5,3.8,1.6c1,1,1.6,2.3,1.6,3.8s-0.5,2.8-1.6,3.8
						C262.8,118.9,261.6,119.4,260.1,119.4 M265.4,137.1c0,1.5-0.5,2.8-1.6,3.8c-1,1-2.3,1.6-3.8,1.6s-2.8-0.5-3.8-1.6
						c-1-1-1.6-2.3-1.6-3.8s0.5-2.8,1.6-3.8c1-1,2.3-1.6,3.8-1.6s2.8,0.5,3.8,1.6C264.9,134.4,265.4,135.6,265.4,137.1 M263.9,153.3
						c1,1,1.6,2.3,1.6,3.8s-0.5,2.8-1.6,3.8c-1,1-2.3,1.6-3.8,1.6s-2.8-0.5-3.8-1.6c-1-1-1.6-2.3-1.6-3.8s0.5-2.8,1.6-3.8
						c1-1,2.3-1.6,3.8-1.6S262.8,152.3,263.9,153.3 M194.8,114h11.6c-0.2,18.8-0.9,34.4-2,46.9c-1.1,12.6-2.4,18.9-3.9,18.9
						s-2.7-6.3-3.9-18.9C195.7,148.4,195.1,132.8,194.8,114z"/>
				</g>
			</g>
		</g>
		<g transform="matrix( 1, 0, 0, 1, 0,0) ">
			<g>
				<g id="Shapes_Shape_23_0_Layer18_0_FILL">
					<path class="st1" d="M49.5,168h0.3H49.5L49.5,168z"/>
				</g>
			</g>
			<g>
				<path id="Shapes_Shape_23_0_Layer18_0_1_STROKES" class="st2" d="M49.5,168L49.5,168h0.3"/>
			</g>
		</g>
		<g transform="matrix( 1, 0, 0, 1, 0,0) ">
			<g>
				<g id="Shapes_Shape_23_0_Layer17_0_FILL">
					<path class="st3" d="M64.8,419L64.8,419c2.7,0,4.9,0.9,6.8,2.8s2.8,4.2,2.8,6.8c0,2.7-0.9,5-2.8,6.9s-4.1,2.8-6.8,2.8
						c-2.6,0-4.9-0.9-6.7-2.8c-1.9-1.9-2.8-4.2-2.8-6.9c0-2.7,0.9-4.9,2.8-6.8C59.9,419.9,62.2,419,64.8,419 M64.9,420.5L64.9,420.5
						c-2.2,0-4,0.8-5.5,2.4s-2.2,3.5-2.2,5.8s0.8,4.2,2.3,5.8c1.5,1.6,3.3,2.4,5.5,2.4c2.1,0,4-0.7,5.5-2.3c1.5-1.6,2.2-3.5,2.2-5.8
						s-0.7-4.2-2.2-5.8C68.8,421.3,67,420.5,64.9,420.5 M61.3,423.5l3.1-0.3c1.5,0,2.6,0.3,3.3,0.8c0.7,0.5,1,1.2,1,2.2
						c0,1.3-0.7,2.2-2.1,2.6v0.1c1,0.2,1.6,1.1,1.8,2.6l0.7,2.6h-1.8c-0.2-0.3-0.5-1.2-0.7-2.7c-0.2-1.3-1-1.9-2.3-1.9H63v4.6h-1.7
						V423.5 M63,428.3h1.3c1.8,0,2.6-0.6,2.6-1.9s-0.9-1.9-2.6-1.9H63V428.3z"/>
				</g>
			</g>
		</g>
		<g transform="matrix( 1, 0, 0, 1, 0,0) ">
			<g>
				<path id="Shapes_Shape_23_0_Layer16_0_1_STROKES" class="st4" d="M370.8,351.9h-29.3v-2.6h-36.3c-0.1-1.7-0.9-2.9-2.5-3.5
					c0-0.7-0.2-1.3-0.5-1.9l0.1-0.7c0-0.9-0.3-1.7-1-2.3c-0.6-0.7-1.4-1-2.3-1c-1,0-1.8,0.4-2.5,1.1l0.1-0.7c0-0.6-0.2-1.1-0.5-1.5
					c-0.4-0.4-0.8-0.6-1.3-0.6l-0.9,0.2c0-0.7-0.3-1.4-0.7-1.9c-0.4-0.5-0.9-0.8-1.5-0.8s-1,0.2-1.5,0.7c-0.4,0.5-0.6,1-0.7,1.8
					c-0.6,0.1-1.2,0.4-1.6,0.9c-0.4,0.6-0.6,1.2-0.6,2l0.3,1.4l-0.8,0.2v-0.3c0-0.7-0.2-1.3-0.6-1.8s-0.8-0.8-1.4-0.8
					c-0.5,0-1,0.3-1.4,0.8s-0.6,1.1-0.6,1.8l0.1,1c-0.7,0.3-1.2,0.9-1.3,1.7l-0.5-0.1c-0.6,0-1.1,0.3-1.6,0.8
					c-0.4,0.5-0.6,1.1-0.6,1.8c0,0.7,0.2,1.2,0.5,1.7h-9v-2h-31.2v-59.1h-15v48.1H217v-61.1h-11.7v13.7H178v46.8h-3.9v5.9h-5.9v-15
					h-6.5v-25.4h-8.4v19.5h-4.6v-39.6H137v39.6h-5.9V307h-15.6v13.7h-11v22.8H96v0.6H86 M291.5,345.8c0-0.7-0.2-1.4-0.7-2
					c0.9-0.5,1.3-1.3,1.4-2.4l0.8-0.5c0.2,1,0.8,1.5,1.8,1.5c0.4,0,0.8-0.1,1.1-0.4l-0.3,1.3l0.1,1c-1.6,0.3-2.4,1-2.5,2.1
					C292.7,346,292.1,345.8,291.5,345.8z"/>
			</g>
		</g>
		<g transform="matrix( 1, 0, 0, 1, 0,0) ">
			<g>
				<path id="Shapes_Shape_23_0_Layer15_0_1_STROKES" class="st4" d="M252.4,307v37.1h12.4v-0.6h0.6v-24.7h-7.2V307H252.4z"/>
			</g>
		</g>
		<g transform="matrix( 1, 0, 0, 1, 0,0) ">
			<g>
				<path id="Shapes_Shape_23_0_Layer14_0_1_STROKES" class="st4" d="M340.2,301.9l-36.4,30.5h72.7L340.2,301.9z"/>
			</g>
		</g>
		<g transform="matrix( 1, 0, 0, 1, 0,0) ">
			<g>
				<path id="Shapes_Shape_23_0_Layer13_0_1_STROKES" class="st4" d="M372.9,335.6h-61.7v3.4h61.7V335.6z"/>
			</g>
		</g>
		<g transform="matrix( 1, 0, 0, 1, 0,0) ">
			<g>
				<path id="Shapes_Shape_23_0_Layer12_0_1_STROKES" class="st4" d="M366.4,341.4h-30.5v3.2h30.5V341.4z"/>
			</g>
		</g>
		<g transform="matrix( 1, 0, 0, 1, 0,0) ">
			<g>
				<path id="Shapes_Shape_23_0_Layer11_0_1_STROKES" class="st4" d="M76.1,327.1c-0.8,0-1.2,0.5-1.2,1.5c0,0.9,0.4,1.4,1.2,1.4
					c0.1,0.8,0.9,1.2,2.2,1.2c0.9,0,1.5-0.2,2-0.7c0.4,0.7,0.9,1,1.6,1c0.4,0,0.8-0.1,1.1-0.4l1.3,0.3c0.5,0,1-0.1,1.4-0.4
					c0.4,0.5,1,0.8,1.7,0.8c0.6,0,1.1-0.2,1.6-0.6c0.4-0.4,0.6-0.9,0.6-1.5c0-1-0.5-1.7-1.4-2c-0.1-0.5-0.2-0.8-0.3-1l0.1-0.4
					c0-0.5-0.2-1-0.5-1.3s-0.8-0.5-1.3-0.5c-0.6,0-1,0.2-1.4,0.6v-0.4c0-0.8-0.3-1.2-1-1.2l-0.5,0.1c0-1-0.4-1.5-1.2-1.5
					c-0.7,0-1.1,0.5-1.2,1.4c-0.8,0.1-1.2,0.7-1.2,1.6l0.1,0.8l-0.4,0.1v-0.1c0-1-0.4-1.5-1.1-1.5s-1.1,0.5-1.1,1.5l0.1,0.5
					c-0.4,0.2-0.6,0.5-0.7,0.9L76.1,327.1z M81.8,327.5c0-0.4-0.1-0.7-0.3-1.1c0.5-0.3,0.7-0.7,0.8-1.4l0.4-0.2
					c0.1,0.6,0.4,0.8,1,0.8l0.6-0.2l-0.1,0.7l0.1,0.6c-0.9,0.2-1.4,0.6-1.5,1.2C82.5,327.6,82.1,327.5,81.8,327.5z"/>
			</g>
		</g>
		<g transform="matrix( 1, 0, 0, 1, 0,0) ">
			<g>
				<path id="Shapes_Shape_23_0_Layer10_0_1_STROKES" class="st4" d="M92.3,333.9l0.2,0.8l-0.4,0.1v-0.1c0-1-0.4-1.5-1.1-1.5
					s-1.1,0.5-1.1,1.5l0.1,0.5c-0.4,0.2-0.7,0.5-0.7,0.9H89c-0.8,0-1.2,0.5-1.2,1.5c0,0.9,0.4,1.4,1.2,1.4l0,0
					c0.1,0.8,0.8,1.2,2.1,1.2c0.9,0,1.6-0.2,2-0.7c0.4,0.7,0.9,1,1.6,1c0.4,0,0.8-0.2,1.2-0.5l1.3,0.3l1.4-0.4
					c0.4,0.5,1,0.8,1.7,0.8c0.6,0,1.1-0.2,1.6-0.6c0.4-0.4,0.6-0.9,0.6-1.5c0-1-0.5-1.7-1.4-2l-0.3-1v-0.4c0-0.5-0.2-1-0.5-1.3
					c-0.4-0.4-0.8-0.5-1.3-0.5c-0.6,0-1,0.2-1.4,0.6l0.1-0.4c0-0.8-0.3-1.2-1-1.2l-0.5,0.1c-0.1-1-0.5-1.5-1.2-1.5s-1.2,0.5-1.2,1.4
					C92.7,332.4,92.3,333,92.3,333.9z"/>
			</g>
		</g>
		<g transform="matrix( 1, 0, 0, 1, 0,0) ">
			<g>
				<path id="Shapes_Shape_23_0_Layer9_0_1_STROKES" class="st4" d="M384.5,353.2c0-1-0.5-1.7-1.4-2l-0.3-1v-0.4
					c0-0.5-0.2-0.9-0.5-1.3c-0.4-0.4-0.8-0.5-1.3-0.5c-0.6,0-1.1,0.2-1.4,0.6l0.1-0.4c0-0.8-0.3-1.2-1-1.2l-0.5,0.1
					c-0.1-1-0.5-1.5-1.2-1.5s-1.1,0.5-1.2,1.4c-0.8,0.1-1.2,0.7-1.2,1.7l0.1,0.8l-0.4,0.1v-0.1c0-0.9-0.4-1.4-1.1-1.4
					s-1.1,0.5-1.1,1.4l0.1,0.5c-0.4,0.1-0.6,0.4-0.7,0.9h-0.3c-0.8,0-1.3,0.5-1.3,1.5"/>
			</g>
		</g>
		<g transform="matrix( 1, 0, 0, 1, 0,0) ">
			<g>
				<path id="Shapes_Shape_23_0_Layer8_0_1_STROKES" class="st4" d="M86.4,344.4c0.2-0.9-0.7-1.8-2.6-2.5c0-0.4-0.2-0.8-0.5-1.1
					l0.2-0.4c0.1-0.5-0.2-1-0.9-1.5c-0.7-0.5-1.6-0.8-2.7-1l-3,0.1l0.2-0.4c0.2-0.7-0.5-1.3-2-1.6H74c0.1-0.9-0.7-1.6-2.3-2
					c-1.6-0.2-2.6,0.1-2.9,0.9l-2,0.2c-0.6,0.2-0.9,0.5-1,0.9l0.2,0.8h-1v-0.1c0.1-0.4-0.1-0.8-0.5-1.1s-0.9-0.6-1.6-0.7
					c-1.6-0.2-2.5,0.1-2.6,1l0.1,0.6c-0.9,0-1.4,0.2-1.7,0.6l-0.7-0.2l-1.9,0.1c-0.6,0.2-0.9,0.4-1,0.8"/>
			</g>
		</g>
		<g transform="matrix( 1, 0, 0, 1, 0,0) ">
			<g>
				<path id="Shapes_Shape_23_0_Layer7_0_1_STROKES" class="st5" d="M428.6,302.9v-0.3c0-0.9,0.2-1.6,0.5-2.2"/>
			</g>
		</g>
		<g transform="matrix( 1, 0, 0, 1, 0,0) ">
			<g>
				<path id="Shapes_Shape_23_0_Layer6_0_1_STROKES" class="st5" d="M429.1,300.4c0.8-1.1,1.9-1.8,3.3-2"/>
			</g>
		</g>
		<g transform="matrix( 1, 0, 0, 1, 0,0) ">
			<g>
				<g id="Shapes_Shape_23_0_Layer5_0_FILL">
					<path class="st5" d="M435.6,303.4c-1.1,0.7-1.2,0.6-0.1-0.2l1.1-0.8l0.7-0.3l0.3-0.7c-1.7-2.1-3.4-3.1-5.3-3
						c0.9-0.1,2,0,3.1,0.5s2,1.1,2.6,1.9l0.7-0.7c0.2-0.9,0.7-1.8,1.6-2.5c0.8-0.7,1.8-1.1,3-1.3c-1.5,0.3-2.8,1.5-3.9,3.7
						c0.2,0.2,0.2,0.4,0,0.8l0.4,0.1c0.8,0.1,1.2,0.3,1.2,0.4h-1.3l-0.4-0.1l-0.4,0.6l-0.2,0.3c0,0.3,0,0.4-0.2,0.2l-0.1,0.2
						l0.3,0.7l0.2,0.9c0.3,1,0.2,1-0.1,0V304c-0.2-0.7-0.6-1-1.2-1.1l0,0l-1.1,0.2L435.6,303.4z"/>
				</g>
			</g>
			<g>
				<path id="Shapes_Shape_23_0_Layer5_0_1_STROKES" class="st5" d="M435.6,303.4l0.8-0.4l1.1-0.2l0,0c0.6,0.1,1,0.5,1.2,1.1v0.1
					c0.4,1,0.4,1,0.1,0l-0.2-0.9l-0.3-0.7l0.1-0.2c0.2,0.2,0.2,0.1,0.2-0.2l0.2-0.3l0.4-0.6l0.4,0.1h1.3c0-0.2-0.4-0.3-1.2-0.4
					l-0.4-0.1c0.2-0.4,0.2-0.7,0-0.8c1.2-2.1,2.5-3.4,3.9-3.7c-1.2,0.2-2.2,0.6-3,1.3c-0.9,0.7-1.4,1.5-1.6,2.5l-0.7,0.7
					c-0.6-0.8-1.4-1.4-2.6-1.9c-1.1-0.5-2.2-0.7-3.1-0.5c1.8-0.1,3.6,0.9,5.3,3l-0.3,0.7l-0.7,0.3l-1.1,0.8
					C434.4,304,434.5,304.1,435.6,303.4z"/>
			</g>
		</g>
		<g transform="matrix( 1, 0, 0, 1, 0,0) ">
			<g>
				<path id="Shapes_Shape_23_0_Layer4_0_1_STROKES" class="st5" d="M443.7,296.3c1.2-0.1,2.6,0.5,4.2,1.9l1.6,1.3
					C448,297,446.1,295.9,443.7,296.3z"/>
			</g>
		</g>
		<g transform="matrix( 1, 0, 0, 1, 0,0) ">
			<g>
				<path id="Shapes_Shape_23_0_Layer3_0_1_STROKES" class="st5" d="M418.5,310.1c0.5-0.7,1.2-1.1,2.1-1.3"/>
			</g>
		</g>
		<g transform="matrix( 1, 0, 0, 1, 0,0) ">
			<g>
				<path id="Shapes_Shape_23_0_Layer2_0_1_STROKES" class="st5" d="M418.2,311.5v0.2c0-0.7,0.1-1.2,0.3-1.6
					C418.3,310.6,418.2,311.1,418.2,311.5z"/>
			</g>
		</g>
		<g transform="matrix( 1, 0, 0, 1, 0,0) ">
			<g>
				<g id="Shapes_Shape_23_0_Layer1_0_FILL">
					<path class="st5" d="M425.1,309.9L425.1,309.9v0.5h0.2l0.7,0.2h-0.8h-0.3l-0.2,0.3l-0.1,0.2l-0.1,0.1l-0.2,0.2l0.4,0.6
						c0.3,1.1,0.3,1.2,0,0.3c-0.3-0.8-0.9-0.9-1.8-0.5c-1,0.5-1,0.4,0-0.3l0.8-0.3l0.2-0.6c-1.2-1.3-2.3-2-3.4-1.9
						c0.6-0.1,1.3,0,2,0.3l1.6,1.2l0.5-0.5c0.3-1.4,1.3-2.2,3-2.4C426.8,307.7,425.9,308.5,425.1,309.9z"/>
				</g>
			</g>
			<g>
				<path id="Shapes_Shape_23_0_Layer1_0_1_STROKES" class="st5" d="M425.1,309.9c0.8-1.4,1.7-2.2,2.6-2.4c-1.7,0.3-2.7,1.1-3,2.4
					l-0.5,0.5l-1.6-1.2c-0.7-0.3-1.4-0.4-2-0.3c1.1-0.1,2.2,0.6,3.4,1.9l-0.2,0.6l-0.8,0.3c-1,0.7-1,0.8,0,0.3
					c0.9-0.5,1.5-0.3,1.8,0.5c0.3,0.9,0.3,0.8,0-0.3l-0.4-0.6l0.2-0.2l0.1-0.1l0.1-0.2l0.2-0.3h0.3h0.8l-0.7-0.2h-0.2L425.1,309.9
					L425.1,309.9z"/>
			</g>
		</g>
		<g transform="matrix( 1, 0, 0, 1, 0,0) ">
			<g>
				<g id="Shapes_Shape_23_0_Layer0_0_FILL">
					<path class="st5" d="M430.6,308.8c-1.1-0.9-2-1.3-2.7-1.3c1.5-0.2,2.7,0.5,3.7,2L430.6,308.8z"/>
				</g>
			</g>
			<g>
				<path id="Shapes_Shape_23_0_Layer0_0_1_STROKES" class="st5" d="M430.6,308.8l1,0.8c-1-1.6-2.2-2.2-3.7-2
					C428.7,307.4,429.6,307.8,430.6,308.8z"/>
			</g>
		</g>
	</g>
</g>
</svg>
