<?xml version="1.0" encoding="utf-8"?>

<svg version="1.1" id="Layer_1" xmlns="http://www.w3.org/2000/svg" xmlns:xlink="http://www.w3.org/1999/xlink" x="0px" y="0px"
	 viewBox="0 0 500 500" style="enable-background:new 0 0 500 500;" xml:space="preserve">
<style type="text/css">
	.st0{fill:#999999;}
	.st1{fill:#F8991D;}
	.st2{fill:#FFCD05;}
</style>
<g id="ChristopherRushbrooke">
	<g>
		<g transform="matrix( 0.9375, 0, 0, 0.9375, 2,45.8) ">
			<g transform="matrix( 1, 0, 0, 1, 0,0) ">
				<g>
					<g id="Fonts_Font_88_Glyph_14_0_Layer0_0_FILL">
						<path class="st0" d="M34.3,211.4h-3.1v11h-2.7c-0.4,0-0.7-0.2-0.9-0.5c-0.3-0.3-0.4-0.7-0.4-1.1v-9.3h-3V222
							c0,0.9,0.3,1.6,0.9,2.2c0.6,0.6,1.3,0.9,2.2,0.9h13.9v-13.7H38v11h-3.6L34.3,211.4L34.3,211.4z"/>
					</g>
				</g>
			</g>
		</g>
		<g transform="matrix( 0.9375, 0, 0, 0.9375, 34.7,45.8) ">
			<g transform="matrix( 1, 0, 0, 1, 0,0) ">
				<g>
					<g>
						<path class="st0" d="M21.6,211.4h-3.1v11h-2.7c-0.4,0-0.7-0.2-0.9-0.5c-0.3-0.3-0.4-0.7-0.4-1.1v-9.3h-3V222
							c0,0.9,0.3,1.6,0.9,2.2c0.6,0.6,1.3,0.9,2.2,0.9h13.9v-13.7h-3.2v11h-3.6L21.6,211.4L21.6,211.4z"/>
					</g>
				</g>
			</g>
		</g>
		<g transform="matrix( 0.9375, 0, 0, 0.9375, 67.4,45.8) ">
			<g transform="matrix( 1, 0, 0, 1, 0,0) ">
				<g>
					<g>
						<path class="st0" d="M9,211.4H5.9v11H3.2c-0.4,0-0.7-0.2-0.9-0.5c-0.3-0.3-0.4-0.7-0.4-1.1v-9.3h-3V222c0,0.9,0.3,1.6,0.9,2.2
							c0.6,0.6,1.3,0.9,2.2,0.9h13.9v-13.7h-3.2v11H9V211.4z"/>
					</g>
				</g>
			</g>
		</g>
		<g transform="matrix( 0.9375, 0, 0, 0.9375, 100.1,45.8) ">
			<g transform="matrix( 1, 0, 0, 1, 0,0) ">
				<g>
					<g id="Fonts_Font_88_Glyph_0_0_Layer0_0_FILL">
						<path class="st0" d="M-10.5,221.9h-3.1v3.3h3.1V221.9z"/>
					</g>
				</g>
			</g>
		</g>
		<g transform="matrix( 0.9375, 0, 0, 0.9375, 114.2,45.8) ">
			<g transform="matrix( 1, 0, 0, 1, 0,0) ">
				<g>
					<g id="Fonts_Font_88_Glyph_2_0_Layer0_0_FILL">
						<path class="st1" d="M-8.2,212.3c-0.6-0.6-1.4-0.9-2.2-0.9h-5.9c-0.9,0-1.6,0.3-2.2,0.9c-0.6,0.6-0.9,1.4-0.9,2.2v7.6
							c0,0.9,0.3,1.6,0.9,2.2c0.6,0.6,1.4,0.9,2.2,0.9h9l-0.1-2.9h-7.7c-0.4,0-0.7-0.1-1-0.4c-0.3-0.3-0.4-0.6-0.4-1.1v-4.9
							c0-0.4,0.1-0.8,0.4-1.1c0.3-0.3,0.6-0.4,0.9-0.4h3.3c0.4,0,0.7,0.1,1,0.4c0.3,0.3,0.4,0.6,0.4,1.1v4.1h3.1v-5.4
							C-7.3,213.6-7.6,212.9-8.2,212.3z"/>
					</g>
				</g>
			</g>
		</g>
		<g transform="matrix( 0.9375, 0, 0, 0.9375, 139.25,45.8) ">
			<g transform="matrix( 1, 0, 0, 1, 0,0) ">
				<g>
					<g id="Fonts_Font_88_Glyph_4_0_Layer0_0_FILL">
						<path class="st1" d="M-16.8,214.5c0-0.9-0.3-1.6-0.9-2.2c-0.6-0.6-1.4-0.9-2.2-0.9h-5.9v-6.7h-3.1v20.4h3.1v-11h4.6
							c0.4,0,0.7,0.2,1,0.5s0.4,0.7,0.4,1.1v9.3h3.1v-10.5H-16.8z"/>
					</g>
				</g>
			</g>
		</g>
		<g transform="matrix( 0.9375, 0, 0, 0.9375, 164.9,45.8) ">
			<g transform="matrix( 1, 0, 0, 1, 0,0) ">
				<g>
					<g id="Fonts_Font_88_Glyph_10_0_Layer0_0_FILL">
						<path class="st1" d="M-30.2,211.4h-5.5c-0.9,0-1.6,0.3-2.2,0.9c-0.6,0.6-0.9,1.4-0.9,2.2v10.7h3.1v-9.3c0-0.4,0.1-0.8,0.4-1.1
							c0.3-0.3,0.6-0.5,0.9-0.5h4.2V211.4z"/>
					</g>
				</g>
			</g>
		</g>
		<g transform="matrix( 0.9375, 0, 0, 0.9375, 185.25,45.8) ">
			<g transform="matrix( 1, 0, 0, 1, 0,0) ">
				<g>
					<g id="Fonts_Font_88_Glyph_5_0_Layer0_0_FILL">
						<path class="st1" d="M-43.5,211.3h-3.2v13.9h3.2V211.3 M-43.5,208.9v-3.3h-3.2v3.3H-43.5z"/>
					</g>
				</g>
			</g>
		</g>
		<g transform="matrix( 0.9375, 0, 0, 0.9375, 197.6,45.8) ">
			<g transform="matrix( 1, 0, 0, 1, 0,0) ">
				<g>
					<g id="Fonts_Font_88_Glyph_11_0_Layer0_0_FILL">
						<path class="st1" d="M-47.3,216.9c-0.4,0-0.7-0.1-1-0.4c-0.3-0.2-0.4-0.5-0.4-0.9s0.1-0.7,0.4-1c0.3-0.3,0.6-0.4,1-0.4h7.8
							v-2.9h-9c-0.9,0-1.6,0.3-2.2,0.9c-0.6,0.6-0.9,1.4-0.9,2.2v2.3c0,0.9,0.3,1.6,0.9,2.2c0.6,0.6,1.3,0.9,2.2,0.9h4.6
							c0.3,0,0.6,0.1,0.9,0.4c0.3,0.2,0.5,0.5,0.5,0.8c0,0.4-0.1,0.7-0.4,0.9c-0.3,0.2-0.6,0.4-1,0.4h-7.7v2.9h9
							c0.9,0,1.6-0.3,2.2-0.9c0.6-0.6,0.9-1.4,0.9-2.2v-2.6c0-0.8-0.4-1.4-1.1-1.9c-0.6-0.4-1.2-0.6-2-0.6L-47.3,216.9L-47.3,216.9z
							"/>
					</g>
				</g>
			</g>
		</g>
		<g transform="matrix( 0.9375, 0, 0, 0.9375, 222.45,45.8) ">
			<g transform="matrix( 1, 0, 0, 1, 0,0) ">
				<g>
					<g id="Fonts_Font_88_Glyph_12_0_Layer0_0_FILL">
						<path class="st1" d="M-55.8,207.8l-3-0.1v3.6h-2.4v2.9h2.4v7.8c0,0.9,0.3,1.6,0.9,2.2c0.6,0.6,1.4,0.9,2.2,0.9h4.9
							c0.9,0,1.6-0.3,2.2-0.9c0.6-0.6,0.9-1.4,0.9-2.2v-5.4h-3.1v4.1c0,0.4-0.1,0.8-0.4,1.1c-0.3,0.3-0.6,0.4-1,0.4h-2.3
							c-0.4,0-0.7-0.1-0.9-0.4s-0.4-0.7-0.4-1.1v-6.4h8.1v-2.9h-8.1C-55.8,211.4-55.8,207.8-55.8,207.8z"/>
					</g>
				</g>
			</g>
		</g>
		<g transform="matrix( 0.9375, 0, 0, 0.9375, 249.35,45.8) ">
			<g transform="matrix( 1, 0, 0, 1, 0,0) ">
				<g>
					<g id="Fonts_Font_88_Glyph_8_0_Layer0_0_FILL">
						<path class="st1" d="M-68.2,211.4c-0.9,0-1.6,0.3-2.2,0.9c-0.6,0.6-0.9,1.4-0.9,2.2v7.6c0,0.9,0.3,1.6,0.9,2.2
							c0.6,0.6,1.3,0.9,2.2,0.9h6.5c0.9,0,1.6-0.3,2.2-0.9c0.6-0.6,0.9-1.4,0.9-2.2v-7.6c0-0.9-0.3-1.6-0.9-2.2
							c-0.6-0.6-1.4-0.9-2.2-0.9H-68.2 M-62,214.7c0.3,0.3,0.4,0.6,0.4,1.1v4.9c0,0.4-0.1,0.8-0.4,1.1c-0.3,0.3-0.6,0.4-1,0.4h-4
							c-0.4,0-0.7-0.1-1-0.4c-0.3-0.3-0.4-0.6-0.4-1.1v-4.9c0-0.4,0.1-0.8,0.4-1.1s0.6-0.4,1-0.4h3.9
							C-62.6,214.3-62.3,214.4-62,214.7z"/>
					</g>
				</g>
			</g>
		</g>
		<g transform="matrix( 0.9375, 0, 0, 0.9375, 275.6,45.8) ">
			<g transform="matrix( 1, 0, 0, 1, 0,0) ">
				<g>
					<g id="Fonts_Font_88_Glyph_9_0_Layer0_0_FILL">
						<path class="st1" d="M-70.2,212.3c-0.6-0.6-1.4-0.9-2.2-0.9h-9.1v20.2h3.1v-6.4h5.9c0.9,0,1.6-0.3,2.2-0.9
							c0.6-0.6,0.9-1.4,0.9-2.2v-7.6C-69.3,213.6-69.6,212.9-70.2,212.3 M-73.6,214.2c0.4,0,0.7,0.2,0.9,0.5
							c0.3,0.3,0.4,0.7,0.4,1.1v4.9c0,0.4-0.1,0.8-0.4,1.1s-0.6,0.5-1,0.5h-4.7v-8.2L-73.6,214.2L-73.6,214.2z"/>
					</g>
				</g>
			</g>
		</g>
		<g transform="matrix( 0.9375, 0, 0, 0.9375, 301.25,45.8) ">
			<g transform="matrix( 1, 0, 0, 1, 0,0) ">
				<g>
					<g>
						<path class="st1" d="M-79.3,214.5c0-0.9-0.3-1.6-0.9-2.2c-0.6-0.6-1.4-0.9-2.2-0.9h-5.9v-6.7h-3.1v20.4h3.1v-11h4.6
							c0.4,0,0.7,0.2,1,0.5s0.4,0.7,0.4,1.1v9.3h3.1L-79.3,214.5L-79.3,214.5z"/>
					</g>
				</g>
			</g>
		</g>
		<g transform="matrix( 0.9375, 0, 0, 0.9375, 326.9,45.8) ">
			<g transform="matrix( 1, 0, 0, 1, 0,0) ">
				<g>
					<g id="Fonts_Font_88_Glyph_3_0_Layer0_0_FILL">
						<path class="st1" d="M-90.4,212.3c-0.6-0.6-1.4-0.9-2.2-0.9h-5.9c-0.9,0-1.6,0.3-2.2,0.9c-0.6,0.6-0.9,1.4-0.9,2.2v7.6
							c0,0.9,0.3,1.6,0.9,2.2c0.6,0.6,1.4,0.9,2.2,0.9h9v-2.9h-7.8c-0.4,0-0.7-0.1-1-0.4s-0.4-0.6-0.4-1.1v-1.2h9.1v-5.1
							C-89.4,213.6-89.7,212.9-90.4,212.3 M-93.9,214.3c0.4,0,0.7,0.1,1,0.4c0.3,0.3,0.4,0.6,0.4,1.1v1h-6v-1c0-0.4,0.1-0.8,0.4-1.1
							s0.6-0.4,0.9-0.4H-93.9z"/>
					</g>
				</g>
			</g>
		</g>
		<g transform="matrix( 0.9375, 0, 0, 0.9375, 351.95,45.8) ">
			<g transform="matrix( 1, 0, 0, 1, 0,0) ">
				<g>
					<g>
						<path class="st1" d="M-102.4,211.4h-5.5c-0.9,0-1.6,0.3-2.2,0.9c-0.6,0.6-0.9,1.4-0.9,2.2v10.7h3.1v-9.3
							c0-0.4,0.1-0.8,0.4-1.1s0.6-0.5,0.9-0.5h4.2V211.4z"/>
					</g>
				</g>
			</g>
		</g>
		<g transform="matrix( 0.9375, 0, 0, 0.9375, 372.3,45.8) ">
			<g transform="matrix( 1, 0, 0, 1, 0,0) ">
				<g>
					<g>
						<path class="st2" d="M-110.3,211.4h-5.5c-0.9,0-1.6,0.3-2.2,0.9c-0.6,0.6-0.9,1.4-0.9,2.2v10.7h3.1v-9.3
							c0-0.4,0.1-0.8,0.4-1.1s0.6-0.5,0.9-0.5h4.2V211.4z"/>
					</g>
				</g>
			</g>
		</g>
		<g transform="matrix( 0.9375, 0, 0, 0.9375, 392.65,45.8) ">
			<g transform="matrix( 1, 0, 0, 1, 0,0) ">
				<g>
					<g id="Fonts_Font_88_Glyph_13_0_Layer0_0_FILL">
						<path class="st2" d="M-126.7,211.4V222c0,0.9,0.3,1.6,0.9,2.2c0.6,0.6,1.3,0.9,2.2,0.9h9.1v-13.7h-3.2v11h-4.6
							c-0.4,0-0.7-0.2-0.9-0.5c-0.3-0.3-0.4-0.7-0.4-1.1v-9.3L-126.7,211.4L-126.7,211.4z"/>
					</g>
				</g>
			</g>
		</g>
		<g transform="matrix( 0.9375, 0, 0, 0.9375, 418.3,45.8) ">
			<g transform="matrix( 1, 0, 0, 1, 0,0) ">
				<g>
					<g>
						<path class="st2" d="M-132.5,216.9c-0.4,0-0.7-0.1-1-0.4c-0.3-0.2-0.4-0.5-0.4-0.9s0.1-0.7,0.4-1c0.3-0.3,0.6-0.4,1-0.4h7.8
							v-2.9h-9c-0.9,0-1.6,0.3-2.2,0.9c-0.6,0.6-0.9,1.4-0.9,2.2v2.3c0,0.9,0.3,1.6,0.9,2.2c0.6,0.6,1.3,0.9,2.2,0.9h4.6
							c0.3,0,0.6,0.1,0.9,0.4c0.3,0.2,0.5,0.5,0.5,0.8c0,0.4-0.1,0.7-0.4,0.9c-0.3,0.2-0.6,0.4-1,0.4h-7.7v2.9h9
							c0.9,0,1.6-0.3,2.2-0.9c0.6-0.6,0.9-1.4,0.9-2.2v-2.6c0-0.8-0.4-1.4-1.1-1.9c-0.6-0.4-1.2-0.6-2-0.6L-132.5,216.9
							L-132.5,216.9z"/>
					</g>
				</g>
			</g>
		</g>
		<g transform="matrix( 0.9375, 0, 0, 0.9375, 443.15,45.8) ">
			<g transform="matrix( 1, 0, 0, 1, 0,0) ">
				<g>
					<g>
						<path class="st2" d="M-134.1,214.5c0-0.9-0.3-1.6-0.9-2.2c-0.6-0.6-1.4-0.9-2.2-0.9h-5.9v-6.7h-3.1v20.4h3.1v-11h4.6
							c0.4,0,0.7,0.2,1,0.5s0.4,0.7,0.4,1.1v9.3h3.1v-10.5H-134.1z"/>
					</g>
				</g>
			</g>
		</g>
		<g transform="matrix( 0.9375, 0, 0, 0.9375, 468.8,45.8) ">
			<g transform="matrix( 1, 0, 0, 1, 0,0) ">
				<g>
					<g id="Fonts_Font_88_Glyph_1_0_Layer0_0_FILL">
						<path class="st2" d="M-153,204.7h-3.1v20.4h9.1c0.9,0,1.6-0.3,2.2-0.9c0.6-0.6,0.9-1.4,0.9-2.2v-7.4c0-1-0.3-1.8-0.9-2.4
							c-0.6-0.6-1.3-0.9-2.2-0.9h-5.9v-6.6 M-148.4,214.2c0.4,0,0.7,0.2,1,0.5s0.4,0.7,0.4,1.1v4.9c0,0.4-0.1,0.8-0.4,1.1
							c-0.3,0.3-0.6,0.5-0.9,0.5h-4.7v-8.2L-148.4,214.2L-148.4,214.2z"/>
					</g>
				</g>
			</g>
		</g>
		<g transform="matrix( 0.9375, 0, 0, 0.9375, 494.45,45.8) ">
			<g transform="matrix( 1, 0, 0, 1, 0,0) ">
				<g>
					<g>
						<path class="st2" d="M-157.4,211.4h-5.5c-0.9,0-1.6,0.3-2.2,0.9c-0.6,0.6-0.9,1.4-0.9,2.2v10.7h3.1v-9.3
							c0-0.4,0.1-0.8,0.4-1.1s0.6-0.5,0.9-0.5h4.2V211.4z"/>
					</g>
				</g>
			</g>
		</g>
		<g transform="matrix( 0.9375, 0, 0, 0.9375, 514.8,45.8) ">
			<g transform="matrix( 1, 0, 0, 1, 0,0) ">
				<g>
					<g>
						<path class="st2" d="M-170.7,211.4c-0.9,0-1.6,0.3-2.2,0.9c-0.6,0.6-0.9,1.4-0.9,2.2v7.6c0,0.9,0.3,1.6,0.9,2.2
							c0.6,0.6,1.3,0.9,2.2,0.9h6.5c0.9,0,1.6-0.3,2.2-0.9c0.6-0.6,0.9-1.4,0.9-2.2v-7.6c0-0.9-0.3-1.6-0.9-2.2
							c-0.6-0.6-1.4-0.9-2.2-0.9H-170.7 M-164.5,214.7c0.3,0.3,0.4,0.6,0.4,1.1v4.9c0,0.4-0.1,0.8-0.4,1.1s-0.6,0.4-1,0.4h-3.9
							c-0.4,0-0.7-0.1-1-0.4s-0.4-0.6-0.4-1.1v-4.9c0-0.4,0.1-0.8,0.4-1.1c0.3-0.3,0.6-0.4,1-0.4h3.9
							C-165.1,214.3-164.8,214.4-164.5,214.7z"/>
					</g>
				</g>
			</g>
		</g>
		<g transform="matrix( 0.9375, 0, 0, 0.9375, 541.05,45.8) ">
			<g transform="matrix( 1, 0, 0, 1, 0,0) ">
				<g>
					<g>
						<path class="st2" d="M-180.8,211.4c-0.9,0-1.6,0.3-2.2,0.9c-0.6,0.6-0.9,1.4-0.9,2.2v7.6c0,0.9,0.3,1.6,0.9,2.2
							c0.6,0.6,1.3,0.9,2.2,0.9h6.5c0.9,0,1.6-0.3,2.2-0.9c0.6-0.6,0.9-1.4,0.9-2.2v-7.6c0-0.9-0.3-1.6-0.9-2.2
							c-0.6-0.6-1.4-0.9-2.2-0.9H-180.8 M-174.7,214.7c0.3,0.3,0.4,0.6,0.4,1.1v4.9c0,0.4-0.1,0.8-0.4,1.1s-0.6,0.4-1,0.4h-3.9
							c-0.4,0-0.7-0.1-1-0.4s-0.4-0.6-0.4-1.1v-4.9c0-0.4,0.1-0.8,0.4-1.1c0.3-0.3,0.6-0.4,1-0.4h3.9
							C-175.2,214.3-174.9,214.4-174.7,214.7z"/>
					</g>
				</g>
			</g>
		</g>
		<g transform="matrix( 0.9375, 0, 0, 0.9375, 567.3,45.8) ">
			<g transform="matrix( 1, 0, 0, 1, 0,0) ">
				<g>
					<g id="Fonts_Font_88_Glyph_6_0_Layer0_0_FILL">
						<path class="st2" d="M-191.1,204.7h-3.2v20.4h3.2v-4.8h3.8c0.4,0,0.7,0.1,1,0.4c0.3,0.3,0.4,0.6,0.4,1.1v3.3h3.2v-4.7
							c0-0.9-0.3-1.6-0.9-2.2c-0.6-0.6-1.4-0.9-2.2-0.9h-2.2l5.9-6.1h-3.5l-5.5,6.1V204.7z"/>
					</g>
				</g>
			</g>
		</g>
		<g transform="matrix( 0.9375, 0, 0, 0.9375, 591.8,45.8) ">
			<g transform="matrix( 1, 0, 0, 1, 0,0) ">
				<g>
					<g>
						<path class="st2" d="M-192.6,212.3c-0.6-0.6-1.4-0.9-2.2-0.9h-5.9c-0.9,0-1.6,0.3-2.2,0.9c-0.6,0.6-0.9,1.4-0.9,2.2v7.6
							c0,0.9,0.3,1.6,0.9,2.2c0.6,0.6,1.4,0.9,2.2,0.9h9v-2.9h-7.8c-0.4,0-0.7-0.1-1-0.4c-0.3-0.3-0.4-0.6-0.4-1.1v-1.2h9.1v-5.1
							C-191.7,213.6-192,212.9-192.6,212.3 M-196.2,214.3c0.4,0,0.7,0.1,1,0.4c0.3,0.3,0.4,0.6,0.4,1.1v1h-6v-1
							c0-0.4,0.1-0.8,0.4-1.1c0.3-0.3,0.6-0.4,0.9-0.4H-196.2z"/>
					</g>
				</g>
			</g>
		</g>
		<g transform="matrix( 0.9375, 0, 0, 0.9375, 616.85,45.8) ">
			<g transform="matrix( 1, 0, 0, 1, 0,0) ">
				<g>
					<g>
						<path class="st0" d="M-210.1,221.9h-3.1v3.3h3.1V221.9z"/>
					</g>
				</g>
			</g>
		</g>
		<g transform="matrix( 0.9375, 0, 0, 0.9375, 630.95,45.8) ">
			<g transform="matrix( 1, 0, 0, 1, 0,0) ">
				<g>
					<g>
						<path class="st0" d="M-207.7,212.3c-0.6-0.6-1.4-0.9-2.2-0.9h-5.9c-0.9,0-1.6,0.3-2.2,0.9c-0.6,0.6-0.9,1.4-0.9,2.2v7.6
							c0,0.9,0.3,1.6,0.9,2.2c0.6,0.6,1.4,0.9,2.2,0.9h9l-0.1-2.9h-7.7c-0.4,0-0.7-0.1-1-0.4s-0.4-0.6-0.4-1.1v-4.9
							c0-0.4,0.1-0.8,0.4-1.1c0.3-0.3,0.6-0.4,0.9-0.4h3.3c0.4,0,0.7,0.1,1,0.4c0.3,0.3,0.4,0.6,0.4,1.1v4.1h3.1v-5.4
							C-206.8,213.6-207.1,212.9-207.7,212.3z"/>
					</g>
				</g>
			</g>
		</g>
		<g transform="matrix( 0.9375, 0, 0, 0.9375, 656,45.8) ">
			<g transform="matrix( 1, 0, 0, 1, 0,0) ">
				<g>
					<g>
						<path class="st0" d="M-225.2,211.4c-0.9,0-1.6,0.3-2.2,0.9c-0.6,0.6-0.9,1.4-0.9,2.2v7.6c0,0.9,0.3,1.6,0.9,2.2
							c0.6,0.6,1.3,0.9,2.2,0.9h6.5c0.9,0,1.6-0.3,2.2-0.9c0.6-0.6,0.9-1.4,0.9-2.2v-7.6c0-0.9-0.3-1.6-0.9-2.2
							c-0.6-0.6-1.4-0.9-2.2-0.9H-225.2 M-219,214.7c0.3,0.3,0.4,0.6,0.4,1.1v4.9c0,0.4-0.1,0.8-0.4,1.1s-0.6,0.4-1,0.4h-3.9
							c-0.4,0-0.7-0.1-1-0.4s-0.4-0.6-0.4-1.1v-4.9c0-0.4,0.1-0.8,0.4-1.1c0.3-0.3,0.6-0.4,1-0.4h3.9
							C-219.6,214.3-219.3,214.4-219,214.7z"/>
					</g>
				</g>
			</g>
		</g>
		<g transform="matrix( 0.9375, 0, 0, 0.9375, 682.25,45.8) ">
			<g transform="matrix( 1, 0, 0, 1, 0,0) ">
				<g>
					<g id="Fonts_Font_88_Glyph_7_0_Layer0_0_FILL">
						<path class="st0" d="M-221.6,214.5c0-0.9-0.3-1.6-0.9-2.2c-0.6-0.6-1.4-0.9-2.2-0.9h-13.9v13.7h3.1v-11h3.7v11h3.1v-11h2.7
							c0.4,0,0.7,0.2,1,0.5s0.4,0.7,0.4,1.1v9.3h3.1v-10.5H-221.6z"/>
					</g>
				</g>
			</g>
		</g>
	</g>
</g>
</svg>
